<svg xmlns="http://www.w3.org/2000/svg" viewBox="0 0 20 20"><path fill="#FFF" d="M18 7h-2.5c-.827 0-1.5-.673-1.5-1.5V2H6v16h12V7z"/><path fill="#FFF" d="M18 6v-.293l-3-3V5.5c0 .275.225.5.5.5H18z"/><path opacity=".64" fill="#605E5C" d="M18.707 5L15 1.293A1 1 0 0014.293 1H6a1 1 0 00-1 1v16a1 1 0 001 1h12a1 1 0 001-1V5.707A1 1 0 0018.707 5zM18 5.707V6h-2.5a.501.501 0 01-.5-.5V2.707l3 3zM6 17.8V2.2c0-.11.09-.2.2-.2H14v3.5A1.5 1.5 0 0015.5 7H18v10.8a.2.2 0 01-.2.2H6.2a.2.2 0 01-.2-.2z"/><path fill="#185ABD" d="M16.5 12H12v1h4.5a.5.5 0 000-1z"/><path fill="#2B7CD3" d="M16.5 10H12v1h4.5a.5.5 0 000-1z"/><path fill="#41A5EE" d="M16.5 8H12v1h4.5a.5.5 0 000-1z"/><path fill="#185ABD" d="M2 16h8a1 1 0 001-1V7a1 1 0 00-1-1H2a1 1 0 00-1 1v8a1 1 0 001 1z"/><path fill="#FFF" d="M7.21 13.936L6 9.496l-1.206 4.44h-.876L2.755 8.094h.886l.808 3.826 1.074-3.826h.866l1.153 3.916.802-3.916h.885l-1.144 5.842z"/></svg>