<svg xmlns="http://www.w3.org/2000/svg" viewBox="0 0 20 20"><path fill="#FFB900" d="M10 5L8.586 3.586A2 2 0 007.172 3H2a1 1 0 00-1 1v12a1 1 0 001 1h16a1 1 0 001-1V6a1 1 0 00-1-1h-8z"/><path fill="#FFD75E" d="M10 5L8.586 6.414A2 2 0 017.172 7H1v9a1 1 0 001 1h16a1 1 0 001-1V6a1 1 0 00-1-1h-8z"/><linearGradient id="a" gradientUnits="userSpaceOnUse" x1="10" y1="5" x2="10" y2="17"><stop offset="0" stop-color="#fff" stop-opacity="0"/><stop offset=".999" stop-color="#ffd75e" stop-opacity=".3"/></linearGradient><path fill="url(#a)" d="M10 5L8.586 6.414A2 2 0 017.172 7H1v9a1 1 0 001 1h16a1 1 0 001-1V6a1 1 0 00-1-1h-8z"/><path fill="#E67628" d="M2 16.5c-.373 0-.71-.142-.973-.367A.988.988 0 002 17h16c.505 0 .905-.38.973-.867-.262.226-.6.367-.973.367H2z"/><path opacity=".4" fill="#FFF" d="M8.836 6.914L10.75 5H10L8.586 6.414A2 2 0 017.172 7H1v.5h6.422a2 2 0 001.414-.586z"/></svg>