<svg xmlns="http://www.w3.org/2000/svg" viewBox="0 0 20 20"><path fill="#FFF" d="M16 7h-2.5c-.827 0-1.5-.673-1.5-1.5V2H4v16h12V7z"/><path fill="#FFF" d="M16 6v-.293l-3-3V5.5c0 .275.225.5.5.5H16z"/><path opacity=".64" fill="#605E5C" d="M16.707 5L13 1.293A1 1 0 0012.293 1H4a1 1 0 00-1 1v16a1 1 0 001 1h12a1 1 0 001-1V5.707A1 1 0 0016.707 5zM16 5.707V6h-2.5a.501.501 0 01-.5-.5V2.707l3 3zM4 17.8V2.2c0-.11.09-.2.2-.2H12v3.5A1.5 1.5 0 0013.5 7H16v10.8a.2.2 0 01-.2.2H4.2a.2.2 0 01-.2-.2z"/><path fill="#C8C6C4" d="M14.5 10h-9a.5.5 0 010-1h9a.5.5 0 010 1z"/><path fill="#D65532" d="M12.795 16H7.2a.2.2 0 01-.2-.2v-3.6c0-.11.09-.2.2-.2h5.6c.11 0 .2.084.2.194-.004.678-.012 2.932-.006 3.61a.194.194 0 01-.2.196zM6 12v4a1 1 0 001 1h6a1 1 0 001-1v-4a1 1 0 00-1-1H7a1 1 0 00-1 1zm-1.25 4H3a1 1 0 01-1-1v-2a1 1 0 011-1h1.75a.25.25 0 01.25.25v3.5a.25.25 0 01-.25.25zM17 16h-1.75a.25.25 0 01-.25-.25v-3.5a.25.25 0 01.25-.25H17a1 1 0 011 1v2a1 1 0 01-1 1z"/></svg>