<svg xmlns="http://www.w3.org/2000/svg" viewBox="0 0 20 20"><path fill="#FFF" d="M3.5 17h13c.275 0 .5-.225.5-.5v-13c0-.275-.225-.5-.5-.5h-13c-.275 0-.5.225-.5.5v13c0 .275.225.5.5.5z"/><path fill="none" stroke="#A6CCC3" stroke-miterlimit="10" d="M11.691 10.657l-.878 1.286-1.687-2.326a1 1 0 00-1.619 0l-2.39 3.296a1 1 0 00.81 1.587h8.146a1 1 0 00.826-1.564l-1.556-2.28a1 1 0 00-1.652 0z"/><circle fill="none" stroke="#FF9810" stroke-miterlimit="10" cx="13.5" cy="6.5" r="1"/><path opacity=".64" fill="#605E5C" d="M16.5 18h-13c-.827 0-1.5-.673-1.5-1.5v-13C2 2.673 2.673 2 3.5 2h13c.827 0 1.5.673 1.5 1.5v13c0 .827-.673 1.5-1.5 1.5zM3.5 3a.5.5 0 00-.5.5v13a.5.5 0 00.5.5h13a.5.5 0 00.5-.5v-13a.5.5 0 00-.5-.5h-13z"/></svg>