<svg xmlns="http://www.w3.org/2000/svg" viewBox="0 0 20 20"><path fill="#FFF" d="M18 7h-2.5c-.827 0-1.5-.673-1.5-1.5V2H6v16h12V7z"/><path fill="#FFF" d="M18 6v-.293l-3-3V5.5c0 .275.225.5.5.5H18z"/><path opacity=".64" fill="#605E5C" d="M18.707 5L15 1.293A1 1 0 0014.293 1H6a1 1 0 00-1 1v16a1 1 0 001 1h12a1 1 0 001-1V5.707A1 1 0 0018.707 5zM18 5.707V6h-2.5a.501.501 0 01-.5-.5V2.707l3 3zM6 17.8V2.2c0-.11.09-.2.2-.2H14v3.5A1.5 1.5 0 0015.5 7H18v10.8a.2.2 0 01-.2.2H6.2a.2.2 0 01-.2-.2z"/><path fill="#ED6C47" d="M15.95 11H14l-1-1-1 1v2.489c.419.316.935.511 1.5.511a2.5 2.5 0 002.45-3z"/><path fill="#FF8F6B" d="M13.5 9a2.48 2.48 0 00-1.5.509V11h2V9.05a2.51 2.51 0 00-.5-.05z"/><path fill="#FFC7B5" d="M15 10h2a2.567 2.567 0 00-2-2v2z"/><path fill="#C43E1C" d="M2 16h8a1 1 0 001-1V7a1 1 0 00-1-1H2a1 1 0 00-1 1v8a1 1 0 001 1z"/><path fill="#F9F7F7" d="M6.08 8c.62 0 1.096.16 1.425.481.33.321.495.786.495 1.393 0 .39-.081.738-.245 1.042a1.743 1.743 0 01-.696.71 2.1 2.1 0 01-1.044.253H5V14h-.988V8H6.08zM5 11h.899C6.406 11 7 10.898 7 10c0-1.008-.641-1.012-1.069-1.012H5V11z"/></svg>