<svg xmlns="http://www.w3.org/2000/svg" viewBox="0 0 20 20"><path fill="#FFF" d="M3.5 17h13c.275 0 .5-.225.5-.5v-13c0-.275-.225-.5-.5-.5h-13c-.275 0-.5.225-.5.5v13c0 .275.225.5.5.5z"/><path opacity=".64" fill="#605E5C" d="M16.5 18h-13c-.827 0-1.5-.673-1.5-1.5v-13C2 2.673 2.673 2 3.5 2h13c.827 0 1.5.673 1.5 1.5v13c0 .827-.673 1.5-1.5 1.5zM3.5 3a.5.5 0 00-.5.5v13a.5.5 0 00.5.5h13a.5.5 0 00.5-.5v-13a.5.5 0 00-.5-.5h-13z"/><path fill="none" stroke="#69AFE5" stroke-linecap="round" stroke-linejoin="round" stroke-miterlimit="10" d="M12.5 10l-4-2.5v5z"/></svg>