<?xml version="1.0" ?><svg id="Capa_1" style="enable-background:new 0 0 128 128;" version="1.1" viewBox="0 0 128 128" xml:space="preserve" xmlns="http://www.w3.org/2000/svg" xmlns:xlink="http://www.w3.org/1999/xlink"><style type="text/css">
	.st0{fill:#21A365;}
	.st1{fill:#107C41;}
	.st2{fill:#185B37;}
	.st3{fill:#33C481;}
	.st4{fill:#17864C;}
	.st5{fill:#FFFFFF;}
	.st6{fill:#036C70;}
	.st7{fill:#1A9BA1;}
	.st8{fill:#37C6D0;}
	.st9{fill:#04878B;}
	.st10{fill:#4F59CA;}
	.st11{fill:#7B82EA;}
	.st12{fill:#4C53BB;}
	.st13{fill:#0F78D5;}
	.st14{fill:#29A7EB;}
	.st15{fill:#0358A8;}
	.st16{fill:#0F79D6;}
	.st17{fill:#038387;}
	.st18{fill:#048A8E;}
	.st19{fill:#C8421D;}
	.st20{fill:#FF8F6A;}
	.st21{fill:#ED6B47;}
	.st22{fill:#891323;}
	.st23{fill:#AF2131;}
	.st24{fill:#C94E60;}
	.st25{fill:#E08195;}
	.st26{fill:#B42839;}
	.st27{fill:#0464B8;}
	.st28{fill:#0377D4;}
	.st29{fill:#4FD8FF;}
	.st30{fill:#1681D7;}
	.st31{fill:#0178D4;}
	.st32{fill:#042071;}
	.st33{fill:#168FDE;}
	.st34{fill:#CA64EA;}
	.st35{fill:#7E1FAF;}
	.st36{fill:#AE4BD5;}
	.st37{fill:#9332BF;}
	.st38{fill:#7719AA;}
	.st39{fill:#0078D4;}
	.st40{fill:#1490DF;}
	.st41{fill:#0364B8;}
	.st42{fill:#28A8EA;}
	.st43{fill:#41A5ED;}
	.st44{fill:#2C7BD5;}
	.st45{fill:#195ABE;}
	.st46{fill:#103E91;}
	.st47{fill:#2166C3;}
	.st48{opacity:0.2;}
</style><circle class="st10" cx="111.1" cy="30.2" r="13"/><path class="st10" d="M108.3,104.8h-2c-10.7,0-19.3-8.7-19.3-19.3V54.9c0-3.1,2.5-5.5,5.5-5.5h29.6c3.1,0,5.5,2.5,5.5,5.5v30.5  C127.7,96.1,119,104.8,108.3,104.8z"/><circle class="st11" cx="70.3" cy="24.2" r="18.7"/><path class="st11" d="M70.4,122.1h-3.2c-16.8,0-30.5-13.7-30.5-30.5V54.1c0-2.5,2.1-4.6,4.6-4.6h55c2.5,0,4.6,2.1,4.6,4.6v37.5  C100.9,108.4,87.3,122.1,70.4,122.1z"/><path class="st12" d="M59.5,97.2h-53c-3.5,0-6.4-2.9-6.4-6.4V38.6c0-3.5,2.9-6.4,6.4-6.4h53c3.5,0,6.4,2.9,6.4,6.4v52.2  C65.9,94.3,63.1,97.2,59.5,97.2z"/><g><path class="st5" d="M29.4,52.7H19v-5.5h27.5v5.5H36.1V83h-6.6V52.7z"/></g><path class="st48" d="M66,49.5v41.2c0,3.5-2.9,6.4-6.4,6.4H37.2l1.5,5.7H65c3.5,0,6.4-2.9,6.4-6.4V49.5L66,49.5z"/></svg>