<svg xmlns="http://www.w3.org/2000/svg" viewBox="-5860 -8896 32 32">
  <defs>
    <style>
      .cls-1 {
        fill: none;
      }

      .cls-2 {
        fill: #666;
      }

      .cls-3 {
        fill: #f35022;
      }
    </style>
  </defs>
  <g id="FB:_Unlink" data-name="FB: Unlink" transform="translate(-6880 -9199.999)">
    <rect id="Rectangle_2295" data-name="Rectangle 2295" class="cls-1" width="32" height="32" rx="2" transform="translate(1020 303.999)"/>
    <g id="Group_3910" data-name="Group 3910">
      <path id="Path_1712" data-name="Path 1712" class="cls-2" d="M-.531-13.812a3.558,3.558,0,0,1,1.444.295,3.854,3.854,0,0,1,1.179.8,3.7,3.7,0,0,1,.8,1.179,3.632,3.632,0,0,1,.291,1.448,3.632,3.632,0,0,1-.291,1.448,3.7,3.7,0,0,1-.8,1.179,3.854,3.854,0,0,1-1.179.8,3.558,3.558,0,0,1-1.444.295h-.531V-7.437h.531A2.572,2.572,0,0,0,.5-7.645a2.679,2.679,0,0,0,.843-.569,2.724,2.724,0,0,0,.573-.847,2.558,2.558,0,0,0,.212-1.033,2.529,2.529,0,0,0-.212-1.029,2.737,2.737,0,0,0-.573-.843A2.737,2.737,0,0,0,.5-12.538,2.529,2.529,0,0,0-.531-12.75h-4.25a2.558,2.558,0,0,0-1.033.212,2.724,2.724,0,0,0-.847.573,2.679,2.679,0,0,0-.569.843,2.572,2.572,0,0,0-.208,1.029A2.6,2.6,0,0,0-7.23-9.06a2.666,2.666,0,0,0,.569.847,2.666,2.666,0,0,0,.847.569,2.6,2.6,0,0,0,1.033.208h.531v1.063h-.531A3.587,3.587,0,0,1-6.23-6.67a3.788,3.788,0,0,1-1.179-.8,3.788,3.788,0,0,1-.8-1.179A3.587,3.587,0,0,1-8.5-10.094a3.587,3.587,0,0,1,.295-1.448,3.788,3.788,0,0,1,.8-1.179,3.788,3.788,0,0,1,1.179-.8,3.587,3.587,0,0,1,1.448-.295ZM7.421-7.1a2.661,2.661,0,0,0-.261-.971,2.686,2.686,0,0,0-.573-.78,2.65,2.65,0,0,0-.818-.523,2.574,2.574,0,0,0-.988-.191H4.25v-1.062h.531a3.587,3.587,0,0,1,1.448.295,3.788,3.788,0,0,1,1.179.8,3.788,3.788,0,0,1,.8,1.179A3.587,3.587,0,0,1,8.5-6.906a3.632,3.632,0,0,1-.091.8Zm-9.546.191a2.6,2.6,0,0,0,.208,1.033,2.666,2.666,0,0,0,.569.847A2.666,2.666,0,0,0-.5-4.458,2.6,2.6,0,0,0,.531-4.25H1.992L3.055-3.187H.531A3.587,3.587,0,0,1-.917-3.482a3.788,3.788,0,0,1-1.179-.8,3.788,3.788,0,0,1-.8-1.179,3.587,3.587,0,0,1-.295-1.448,3.587,3.587,0,0,1,.295-1.448,3.788,3.788,0,0,1,.8-1.179,3.788,3.788,0,0,1,1.179-.8,3.587,3.587,0,0,1,1.448-.295h.531v1.063H.531A2.558,2.558,0,0,0-.5-9.351a2.724,2.724,0,0,0-.847.573,2.679,2.679,0,0,0-.569.843A2.572,2.572,0,0,0-2.125-6.906Zm10.6,2.374L6.6-2.656,8.475-.772l-.747.747L5.844-1.9,3.959-.017,3.212-.772,5.1-2.656,3.212-4.541l.747-.747L5.844-3.4,7.728-5.288Z" transform="translate(1036 327.999)"/>
      <path id="Path_1391" data-name="Path 1391" class="cls-3" d="M8.475-4.532,6.6-2.656,8.475-.772l-.747.747L5.844-1.9,3.959-.017,3.212-.772,5.1-2.656,3.212-4.541l.747-.747L5.844-3.4,7.728-5.288Z" transform="translate(1036 327.999)"/>
    </g>
  </g>
</svg>
