<?xml version="1.0" encoding="utf-8"?>
<!-- Generator: Adobe Illustrator 21.1.0, SVG Export Plug-In . SVG Version: 6.00 Build 0)  -->
<svg version="1.1" id="Calque_1" xmlns="http://www.w3.org/2000/svg" xmlns:xlink="http://www.w3.org/1999/xlink" x="0px" y="0px"
	 viewBox="0 0 432 432" style="enable-background:new 0 0 432 432;" xml:space="preserve">
<style type="text/css">
	.st0{fill:#BE1622;}
	.st1{fill:#C69C6C;}
	.st2{fill:#F39200;}
	.st3{fill:#F9B03D;}
	.st4{fill:#5BA7AD;}
	.st5{fill:#3F7579;}
	.st6{fill:#1B1B1B;}
	.st7{fill:#FFFFFF;}
	.st8{fill:#D8B6C4;}
	.st9{fill:#765844;}
	.st10{fill:#E9B2C5;}
	.st11{fill:#C7B29A;}
	.st12{fill:#EDBD7D;}
	.st13{fill:#1D71B8;}
	.st14{fill:#95C11F;}
	.st15{fill:#E94E1B;}
	.st16{fill:#575756;}
	.st17{fill:#844C16;}
	.st18{fill:#E50071;}
	.st19{fill:#AF175D;}
	.st20{fill:#E4051E;}
	.st21{fill:#13110C;}
	.st22{fill:#891A2C;}
	.st23{fill:#28295F;}
	.st24{fill:#CECFBC;}
	.st25{fill:#981F24;}
	.st26{fill:#020203;}
	.st27{fill:#BC2333;}
	.st28{fill:#AD1917;}
	.st29{fill:#04683B;}
	.st30{fill:#049348;}
	.st31{fill:#2D3D8D;}
	.st32{fill:#F39233;}
	.st33{fill:#EB5C35;}
	.st34{fill:#AA1917;}
	.st35{fill:#55514F;}
	.st36{fill:#20376D;}
	.st37{fill:#B3BBC5;}
	.st38{fill:#BAC6BC;}
	.st39{fill:#B4BA8C;}
	.st40{fill:#746458;}
	.st41{fill:#343434;}
	.st42{fill:#CEC3BC;}
	.st43{fill:#FBBA0E;}
	.st44{fill:#FED98D;}
	.st45{fill:#676767;}
	.st46{fill:#8DBE22;}
	.st47{fill:#D0E1A4;}
	.st48{fill:#EFE8E4;}
	.st49{fill:#754695;}
	.st50{fill:#A78BC0;}
	.st51{fill:#8EC045;}
	.st52{fill:#0D71B9;}
	.st53{fill:#EAC686;}
	.st54{fill:#D24063;}
	.st55{fill:#E2A11A;}
	.st56{fill:#E9BD71;}
	.st57{fill:#E8423E;}
	.st58{fill:#F8AE4C;}
	.st59{fill:#00A19A;}
	.st60{fill:#2578B9;}
	.st61{fill:#A29F9D;}
	.st62{fill:#D2B89A;}
	.st63{fill:#E6C2A9;}
	.st64{fill:#6E3B11;}
	.st65{fill:#9B6228;}
	.st66{fill:#C9A1CB;}
	.st67{fill:#F8AB00;}
	.st68{fill:#BEBBBB;}
	.st69{fill:#066938;}
	.st70{fill:#36A36A;}
	.st71{fill:#4F702A;}
	.st72{fill:#A4191E;}
	.st73{fill:#3AAA35;}
	.st74{fill:#D01419;}
	.st75{fill:#CA1527;}
	.st76{fill:#684A40;}
	.st77{fill:#9A7B65;}
	.st78{fill:#FBB700;}
	.st79{fill:#82BB26;}
	.st80{fill:#00A8E4;}
	.st81{fill:#CEA57B;}
	.st82{fill:#57B031;}
	.st83{fill:#E5251F;}
	.st84{fill:#EFDD37;}
	.st85{fill:#59C4E9;}
	.st86{fill:#F08017;}
	.st87{fill:#974393;}
	.st88{fill:#F9EA31;}
	.st89{fill:#C1292E;}
	.st90{fill:#F2D77E;}
	.st91{fill:#E6332A;}
	.st92{fill:#29235C;}
	.st93{fill:#3C3C3B;}
	.st94{fill:#2FAC66;}
	.st95{fill:#2D2E83;}
	.st96{fill:#645B51;}
	.st97{fill:#36A9E1;}
	.st98{fill:#312783;}
	.st99{fill:#2E4959;}
	.st100{fill:#5F8699;}
	.st101{fill:#172B35;}
	.st102{fill:#C3D5E4;}
	.st103{fill:#7B9135;}
	.st104{fill:#E59546;}
	.st105{fill:#B2C65F;}
	.st106{fill:#85BBB7;}
	.st107{fill:#F39323;}
	.st108{fill:#FFFFFE;}
	.st109{fill:#EFD2AC;}
	.st110{fill:#C0E0EF;}
	.st111{fill:#EFDAEC;}
	.st112{fill:#63B8A4;}
	.st113{fill:#BDCCD4;}
	.st114{fill:#8C633A;}
	.st115{fill:#CA9E67;}
	.st116{fill:#7D4E24;}
	.st117{fill:#B8B569;}
	.st118{fill:#E8C515;}
	.st119{fill:#A5A258;}
	.st120{fill:#AA884D;}
	.st121{fill:#9E994B;}
	.st122{fill:#D1A479;}
	.st123{fill:#936037;}
	.st124{fill:#FAFAFA;}
	.st125{fill:#98CDC5;}
	.st126{fill:#E1EBE8;}
	.st127{fill:#DDCE9E;}
	.st128{fill:#A67D52;}
	.st129{fill:#437156;}
	.st130{fill:#4F8366;}
	.st131{fill:#8F6947;}
	.st132{fill:#856143;}
	.st133{fill:#171512;}
	.st134{fill:#AA191B;}
	.st135{fill:#1C1A38;}
	.st136{fill:#8E8C38;}
	.st137{fill:#CAC955;}
	.st138{fill:#6C6A29;}
	.st139{fill:#D8D564;}
	.st140{fill:#5CABD5;}
	.st141{fill:#70B4D9;}
	.st142{fill:#9A9999;}
	.st143{fill:#B4B4B4;}
	.st144{fill:#ABAA3D;}
	.st145{fill:#D7DB2F;}
	.st146{fill:#B8CED8;}
	.st147{fill:#05AB9E;}
	.st148{fill:#DAB828;}
	.st149{fill:#EB7533;}
	.st150{fill:#EDE4CA;}
	.st151{fill:#575452;}
	.st152{fill:#F9F6F4;}
	.st153{fill:#94B2AA;}
	.st154{fill:#D8D7C4;}
	.st155{fill:#BAD68E;}
	.st156{fill:#F0E6E1;}
	.st157{fill:#BFD786;}
	.st158{fill:#E9E499;}
	.st159{fill:#A2D3C2;}
	.st160{fill:#EB7976;}
	.st161{fill:#EEF4E7;}
	.st162{fill:#EADA7F;}
	.st163{fill:#B2D9C2;}
	.st164{fill:#43B284;}
	.st165{fill:#9AC028;}
	.st166{fill:#D8AD80;}
	.st167{fill:#F2F2F2;}
	.st168{fill:#767574;}
	.st169{fill:#CDC8C6;}
	.st170{fill:#634E42;}
	.st171{fill:#E4E0DF;}
	.st172{fill:#D98F53;}
	.st173{fill:#E2CAB5;}
	.st174{fill:#B61824;}
	.st175{fill:#E2BAA0;}
	.st176{fill:#CF455A;}
	.st177{fill:#648546;}
	.st178{fill:#4F6834;}
	.st179{fill:#91BB64;}
	.st180{fill:#D1CE4D;}
	.st181{fill:#CFCE67;}
	.st182{fill:#E5E4BD;}
	.st183{fill:#A69F28;}
	.st184{fill:#E3BF32;}
	.st185{fill:#E68024;}
	.st186{fill:#D27444;}
	.st187{fill:#D1B05A;}
	.st188{fill:#F4E3BD;}
	.st189{fill:#668852;}
	.st190{fill:#A3C18F;}
	.st191{fill:#D8B41E;}
	.st192{fill:#E2DBBA;}
	.st193{fill:#603914;}
	.st194{fill:#CF1042;}
	.st195{fill:#2F8A7F;}
	.st196{fill:#D19A69;}
	.st197{fill:#E9C3A4;}
	.st198{fill:#F2BF21;}
	.st199{fill:#CFD3D1;}
	.st200{fill:#E9F2ED;}
	.st201{fill:#4E4D4D;}
	.st202{fill:#C4E2D0;}
	.st203{fill:#F3F3F3;}
	.st204{fill:#F8FAF9;}
	.st205{fill:#C6B5A8;}
	.st206{fill:#F2F1E7;}
	.st207{fill:#CEC87B;}
	.st208{fill:#C7E4E5;}
	.st209{fill:#D4894A;}
	.st210{fill:#FBFDFA;}
	.st211{fill:#B4CD5F;}
	.st212{fill:#1F1B15;}
	.st213{fill:#161210;}
	.st214{fill:#A8D1D2;}
	.st215{fill:#8E6640;}
	.st216{fill:#B22518;}
	.st217{fill:#683F1D;}
	.st218{fill:#F0F7F7;}
	.st219{fill:#CD924B;}
	.st220{fill:#CDCCCC;}
	.st221{fill:#F2D7C0;}
	.st222{fill:#B21924;}
	.st223{fill:#EDCEB1;}
	.st224{fill:#7D552C;}
	.st225{fill:#A0BC6F;}
	.st226{fill:#94AD65;}
	.st227{fill:#E7E6E6;}
	.st228{fill:#9FD6DB;}
	.st229{fill:#EACD7F;}
	.st230{fill:#E28C52;}
	.st231{fill:#141414;}
	.st232{fill:#E97E28;}
	.st233{fill:#D0C657;}
	.st234{fill:#F3BC95;}
	.st235{fill:#FBFDFC;}
	.st236{fill:#CA252F;}
	.st237{fill:#B8B6B7;}
	.st238{fill:#808181;}
	.st239{fill:#F7F5DB;}
	.st240{fill:#CA1618;}
	.st241{fill:#FDC30B;}
	.st242{fill:#5F3917;}
	.st243{fill:#FFDA36;}
	.st244{fill:#AB7049;}
	.st245{fill:#619DCF;}
	.st246{fill:#45779A;}
	.st247{fill:#68AFA1;}
	.st248{fill:#108E77;}
	.st249{fill:#A5779F;}
	.st250{fill:#008D36;}
	.st251{fill:#E83E49;}
	.st252{fill:#A12D38;}
	.st253{fill-rule:evenodd;clip-rule:evenodd;fill:#677124;}
</style>
<g>
	<path class="st8" d="M328.4,315.7c0-10.2-12.8-19.4-33.4-26c-0.3,5.9-1,11.8-2.5,17.4c-2.5,9.2-7.8,17.4-16.2,22.3
		c-8.9,5.2-19.6,6.7-29.8,7.4c-14.6,1-29.3,0.6-43.9,0.3c-12.2-0.2-24.9-0.4-36.7-3.5c-8.5-2.3-16.2-6.7-21.2-14.2
		c-5.7-8.6-6.9-19.3-8.5-29.3c-20.1,6.6-32.5,15.7-32.5,25.7c0,17.1,36.2,31.5,85,35.5c0.5,5.2,0.9,11.4,5.6,14.1
		c4.3,2.4,11.2,1.7,15.9,1.9c5.8,0.2,11.7,0.1,17.5-0.3c3.7-0.2,6.9-3.2,6.9-7.5c0-2.7-0.5-5.1-1.2-7.5
		C287.2,349.1,328.4,334,328.4,315.7z"/>
	<g>
		<path class="st9" d="M287.6,240.8c-5.1-8.4-16-11.8-28.6-12.8c2.3-2.2,4.4-4.5,6.3-7.1c5.4-7.2,9-15.8,10.4-24.7
			c1.4-9,1.8-20-4.8-27.2c-5.4-5.9-14.5-6.6-22.6-7.3c4.5-9.5,6.9-21.9,2.4-30.8c-3.1-6.1-9.1-8.5-15.6-9.1
			c-7-0.7-14.1-0.7-21.1-0.9c-12.3-0.3-30.3-2.6-39.5,7.6c-7.9,8.8-5.2,23.3-1.1,34.1c-7.4,1.6-15,4.1-19.4,10
			c-6.8,9.2-3,22.5-0.2,32.6c2.2,7.8,5.1,15.3,8.7,22.5c-3.8,0.1-7.4,0.9-10.9,3.2c-21.7,14.3-13.9,47.9-10.3,69
			c5.8,33.3,27.7,33.3,78.2,33.8c45.3,0.4,70.1-1.7,71.9-43.7C291.6,286,293.2,250,287.6,240.8z"/>
		<g>
			<path class="st10" d="M266.2,299c-0.6,0.2-1.1,0.4-1.7,0.7c0-0.3-0.1-0.6-0.1-0.9c-0.3-2.1-2.2-3.9-4.4-3.6
				c-2.1,0.3-4,2.2-3.6,4.4c0,0.2,0.1,0.4,0.1,0.5c-0.7-0.1-1.3-0.1-2-0.2c-2.1-0.2-4.4,1.1-4.6,3.3c-0.2,2.1,1.1,4.4,3.3,4.6
				c0.1,0,0.2,0,0.3,0c-0.1,0.2-0.1,0.5-0.2,0.7c0,0.1-0.1,0.2-0.1,0.2c-0.1,0.4-0.3,0.7-0.5,1c-1,1.8,0.2,4.6,2,5.3
				c2.2,0.9,4.2-0.1,5.3-2c0.1-0.1,0.1-0.3,0.2-0.4c0.5,0.5,1,1,1.5,1.5c0.7,0.7,2,1,2.9,0.9c1-0.1,2.2-0.7,2.8-1.5
				c0.6-0.8,1-1.9,0.9-2.9c-0.2-1.1-0.7-2-1.5-2.8c-0.1-0.1-0.2-0.2-0.3-0.3c0.9-0.3,1.8-0.7,2.6-1c2-0.8,3.2-3.2,2.3-5.2
				C270.6,299.3,268.3,298.2,266.2,299z"/>
			<path class="st10" d="M217.7,202c-0.2,0.1-0.3,0.2-0.5,0.2c0-1.1-0.1-2.1-0.1-3.2c-0.1-2.4-2.3-4.6-4.8-4.4
				c-2.5,0.2-4.5,2.2-4.4,4.8c0,0.7,0.1,1.4,0.1,2.1c-0.4-0.1-0.7-0.1-1.1-0.2c-2.4-0.4-5.1,0.9-5.5,3.4c-0.4,2.3,0.9,5.1,3.4,5.5
				c0.2,0,0.4,0.1,0.6,0.1c-0.3,0.7-0.6,1.4-1,2.1c-1,2.2-0.4,5.1,1.9,6.2c2.1,1,5.1,0.4,6.2-1.9c0-0.1,0.1-0.2,0.1-0.3
				c0.2,0.1,0.5,0.3,0.7,0.4c0.1,0.1,0.1,0.1,0.2,0.2c0.3,0.3,0.6,0.6,0.9,0.9c1.6,1.8,5,1.5,6.5-0.2c1.7-2,1.5-4.6-0.2-6.5
				c-0.1-0.1-0.3-0.3-0.4-0.4c0.7-0.4,1.4-0.7,2.2-1.1c1-0.5,1.8-1.8,2-2.8c0.3-1.1,0.1-2.6-0.6-3.5c-0.7-1-1.6-1.8-2.8-2
				C220,201.1,218.9,201.4,217.7,202z"/>
			<path class="st10" d="M223.1,268.2c-0.2-0.1-0.4-0.1-0.6-0.2c0.5-0.7,1.1-1.4,1.6-2.2c0.7-1,0.9-2.7,0.6-3.8
				c-0.3-1.3-1.2-2.6-2.4-3.3c-1.2-0.6-2.5-1-3.8-0.6c-1.4,0.4-2.4,1.2-3.3,2.4c-0.1,0.2-0.2,0.3-0.4,0.5c-0.6-1.1-1.1-2.1-1.7-3.2
				c-1.3-2.4-4.6-3.5-7-2.1c-2.4,1.4-3.5,4.5-2.1,7c0.4,0.7,0.7,1.4,1.1,2.1c-0.4,0.1-0.8,0.2-1.2,0.3c-2.6,0.7-4.7,3.4-3.9,6.2
				c0.7,2.6,3.4,4.7,6.2,3.9c0.2-0.1,0.5-0.1,0.7-0.2c0,0.8,0,1.7,0.1,2.5c0.1,2.7,2.1,5.4,5,5.3c2.7,0,5.4-2.1,5.3-5
				c0-0.1,0-0.2,0-0.4c0.3,0,0.6,0.1,0.9,0.1c0.1,0,0.2,0,0.3,0.1c0.5,0.1,0.9,0.3,1.4,0.5c2.5,1,5.8-0.9,6.4-3.5
				C227.3,271.7,225.8,269.2,223.1,268.2z"/>
			<path class="st10" d="M169.1,203.9c0.9,0.4,1.8,0.4,2.7,0.1c0.1,0,0.3-0.1,0.4-0.1c-0.1,0.8-0.3,1.6-0.4,2.4
				c-0.3,1.8,1,3.8,2.8,4.1c1.9,0.2,3.7-0.9,4.1-2.8c0.1-0.5,0.2-1,0.3-1.6c0.3,0.1,0.5,0.2,0.8,0.3c1.7,0.7,3.9,0.1,4.7-1.7
				c0.7-1.7,0.2-3.9-1.7-4.7c-0.1-0.1-0.3-0.1-0.4-0.2c0.3-0.5,0.7-0.9,1-1.4c1.1-1.5,1.1-3.7-0.4-4.9c-1.4-1.1-3.8-1.2-4.9,0.4
				c0,0.1-0.1,0.1-0.1,0.2c-0.2-0.1-0.3-0.3-0.5-0.4c0-0.1-0.1-0.1-0.1-0.2c-0.2-0.3-0.4-0.6-0.5-0.8c-0.9-1.6-3.5-1.9-4.9-0.9
				c-1.6,1.2-1.8,3.2-0.9,4.9c0.1,0.1,0.1,0.2,0.2,0.4c-0.6,0.2-1.2,0.3-1.8,0.5c-0.8,0.2-1.6,1.1-1.9,1.8c-0.4,0.8-0.5,1.9-0.1,2.7
				C167.6,202.8,168.2,203.6,169.1,203.9z"/>
			<path class="st10" d="M226.8,307.5c0-0.8-0.5-1.8-1.1-2.4c-0.7-0.5-1.5-0.9-2.4-0.9c-0.9,0.1-1.7,0.5-2.4,1.1
				c-0.1,0.1-0.2,0.2-0.3,0.3c-0.2-0.7-0.5-1.5-0.7-2.2c-0.5-1.7-2.5-2.8-4.2-2.2c-1.7,0.6-2.7,2.4-2.2,4.2c0.2,0.5,0.3,1,0.5,1.5
				c-0.3,0-0.5,0-0.8,0.1c-1.7,0.2-3.4,1.6-3.2,3.5c0.1,1.7,1.6,3.4,3.5,3.2c0.2,0,0.3,0,0.5,0c-0.1,0.5-0.2,1.1-0.3,1.6
				c-0.3,1.7,0.7,3.7,2.5,4c1.7,0.3,3.7-0.7,4-2.5c0-0.1,0-0.2,0-0.2c0.2,0.1,0.4,0.1,0.6,0.2c0.1,0,0.1,0.1,0.2,0.1
				c0.3,0.1,0.6,0.3,0.8,0.5c1.5,1,3.8,0.1,4.5-1.4c0.8-1.8,0.1-3.5-1.4-4.5c-0.1-0.1-0.2-0.1-0.4-0.2c0.4-0.4,0.9-0.8,1.3-1.2
				C226.5,309.3,226.8,308.2,226.8,307.5z"/>
			<path class="st10" d="M203.3,146.1c0.1,0,0.2,0,0.3,0c0,0.3-0.1,0.5-0.1,0.8c0,0.1,0,0.2-0.1,0.2c-0.1,0.4-0.3,0.8-0.5,1.1
				c-1,2,0.4,4.8,2.5,5.5c2.4,0.8,4.4-0.3,5.5-2.5c0.1-0.2,0.1-0.3,0.2-0.5c0.6,0.5,1.1,1,1.7,1.5c0.8,0.7,2.2,0.9,3.1,0.7
				c1-0.2,2.2-0.8,2.8-1.7c0.6-0.9,1-2,0.7-3.1c-0.2-1.2-0.8-2-1.7-2.8c-0.1-0.1-0.2-0.2-0.4-0.3c0.9-0.4,1.8-0.8,2.7-1.2
				c2-0.9,3.2-3.6,2.1-5.6c-1-2.1-3.5-3.1-5.6-2.1c-0.6,0.3-1.2,0.5-1.8,0.8c-0.1-0.3-0.1-0.6-0.2-1c-0.5-2.2-2.5-4-4.9-3.6
				c-2.2,0.4-4.1,2.5-3.6,4.9c0,0.2,0.1,0.4,0.1,0.6c-0.7,0-1.4-0.1-2.1-0.1c-2.2-0.1-4.5,1.4-4.7,3.8
				C199.4,143.6,201,146,203.3,146.1z"/>
			<path class="st10" d="M271.6,264.4c-0.5-0.1-1-0.2-1.5-0.4c0.1-0.2,0.2-0.5,0.3-0.7c0.8-1.6,0.4-3.7-1.3-4.6
				c-1.6-0.8-3.8-0.4-4.6,1.3c-0.1,0.1-0.1,0.3-0.2,0.4c-0.4-0.4-0.8-0.7-1.3-1.1c-1.3-1.2-3.5-1.3-4.8,0.1
				c-1.2,1.3-1.4,3.5,0.1,4.8c0.1,0.1,0.1,0.1,0.2,0.2c-0.1,0.1-0.3,0.3-0.4,0.4c-0.1,0-0.1,0.1-0.2,0.1c-0.3,0.2-0.6,0.3-0.8,0.5
				c-1.6,0.8-2.1,3.2-1.1,4.6c1.1,1.6,2.9,2,4.6,1.1c0.1-0.1,0.2-0.1,0.4-0.2c0.1,0.6,0.2,1.2,0.3,1.7c0.1,0.8,0.9,1.6,1.6,2
				c0.7,0.4,1.8,0.6,2.6,0.3c0.8-0.3,1.6-0.8,2-1.6c0.4-0.9,0.5-1.7,0.3-2.6c0-0.1,0-0.2-0.1-0.4c0.8,0.2,1.5,0.4,2.3,0.6
				c1.7,0.4,3.7-0.7,4.1-2.5C274.4,266.6,273.5,264.8,271.6,264.4z"/>
			<path class="st10" d="M179.2,298.9c-0.2,0.1-0.3,0.2-0.5,0.3c-0.2-0.8-0.5-1.5-0.7-2.3c-0.3-1-1.5-2-2.5-2.4
				c-1.1-0.4-2.6-0.5-3.6,0.1c-1.1,0.5-2,1.4-2.4,2.5c-0.4,1.2-0.3,2.4,0.1,3.6c0.1,0.2,0.1,0.3,0.2,0.5c-1.1-0.1-2.2-0.2-3.2-0.4
				c-2.4-0.3-5,1.6-5.1,4.1c-0.2,2.5,1.5,4.9,4.1,5.1c0.7,0.1,1.4,0.2,2.1,0.2c-0.1,0.3-0.2,0.7-0.4,1c-0.8,2.3,0.1,5.2,2.6,6
				c2.3,0.8,5.2-0.1,6-2.6c0.1-0.2,0.1-0.4,0.2-0.6c0.6,0.4,1.3,0.8,1.9,1.3c2,1.3,5,1.2,6.5-0.9c1.4-2,1.2-5.1-0.9-6.5
				c-0.1-0.1-0.2-0.1-0.3-0.2c0.2-0.2,0.4-0.4,0.5-0.7c0.1-0.1,0.1-0.1,0.2-0.2c0.3-0.3,0.7-0.5,1.1-0.8c2-1.3,2.3-4.8,0.7-6.5
				C184,297.6,181.4,297.5,179.2,298.9z"/>
			<path class="st10" d="M165.6,278.3c2.1-0.8,3.6-3.2,2.7-5.5c-0.1-0.2-0.1-0.4-0.2-0.6c0.7-0.1,1.4-0.2,2.1-0.3
				c2.2-0.3,4.3-2.2,4-4.6c-0.2-2.2-2.2-4.3-4.6-4c-0.1,0-0.2,0-0.3,0c0-0.3,0-0.5,0-0.8c0-0.1,0-0.2,0-0.3c0.1-0.4,0.2-0.8,0.3-1.2
				c0.6-2.2-1.3-4.7-3.4-5c-2.5-0.4-4.4,1.1-5,3.4c0,0.2-0.1,0.3-0.1,0.5c-0.6-0.4-1.3-0.8-1.9-1.2c-0.9-0.5-2.3-0.5-3.2-0.2
				c-1,0.3-2.1,1.2-2.5,2.2c-0.4,1-0.6,2.2-0.2,3.2c0.4,1.1,1.2,1.9,2.2,2.5c0.1,0.1,0.3,0.2,0.4,0.3c-0.8,0.6-1.7,1.1-2.5,1.7
				c-1.9,1.3-2.5,4.1-1.2,6c1.4,1.9,4,2.5,6,1.2c0.5-0.4,1.1-0.7,1.6-1.1c0.1,0.3,0.2,0.6,0.4,0.9
				C161,277.7,163.4,279.2,165.6,278.3z"/>
			<path class="st10" d="M253,209.3c1.9-0.9,2.6-2.8,2-4.8c0-0.1-0.1-0.3-0.1-0.4c0.6,0,1.3,0,1.9-0.1c0.9,0,1.9-0.7,2.4-1.4
				c0.6-0.7,0.9-1.8,0.7-2.7c-0.2-0.9-0.6-1.8-1.4-2.4c-0.9-0.6-1.7-0.8-2.7-0.7c-0.1,0-0.3,0-0.4,0c0.3-0.8,0.6-1.6,1-2.4
				c0.7-1.8-0.1-4.1-2-4.8c-1.9-0.7-4,0.1-4.8,2c-0.2,0.5-0.4,1-0.6,1.5c-0.2-0.2-0.5-0.3-0.7-0.5c-1.6-1.1-4-1-5.1,0.7
				c-1.1,1.5-1,4,0.7,5.1c0.1,0.1,0.3,0.2,0.4,0.3c-0.5,0.4-0.9,0.8-1.4,1.2c-1.5,1.2-2,3.6-0.7,5.1c1.2,1.5,3.6,2,5.1,0.7
				c0.1-0.1,0.1-0.1,0.2-0.2c0.1,0.2,0.2,0.4,0.4,0.5c0,0.1,0.1,0.1,0.1,0.2c0.1,0.3,0.3,0.6,0.4,1
				C248.8,209.1,251.4,210.1,253,209.3z"/>
		</g>
		<g>
			<path class="st10" d="M272.4,171c-0.5-0.7-1-1.3-1.5-2c-5.4-5.9-14.5-6.6-22.6-7.3c-35,6.7-74.9,0.8-74.9,0.8
				c-7.4,1.6-15,4.1-19.4,10c-0.1,0.1-0.2,0.3-0.3,0.4C173.5,176.3,222.5,182.1,272.4,171z"/>
			<path class="st10" d="M285.5,238c-5.6-6.4-15.4-9.1-26.6-10c-49.5,11.5-96.4-0.2-96.4-0.2c-3.8,0.1-7.4,0.9-10.9,3.2
				c-3.5,2.3-6.2,5.1-8.3,8.3C170.4,245.5,226.5,254.2,285.5,238z"/>
		</g>
	</g>
	<g>
		<g>
			<path class="st11" d="M188.6,113.8c-0.1-2.1-0.2-4.3-0.3-6.4c-0.2-4.3-0.4-8.5-0.7-12.8c-0.1-2.3,0.8-12.5-3.8-12
				c-4.5,0.5-3.4,11.1-3.3,14c0.3,7.6,1.8,15.2,2.1,22.8c1.9-0.7,3.9-1.1,6-1.5C188.6,116.3,188.7,114.7,188.6,113.8z"/>
			<g>
				<path class="st12" d="M179.8,78.4c1.4,4,6.1,2.8,6.9-0.4c0.6-2.2-0.1-5.9-4-11.7C182.3,67.4,178.3,73.9,179.8,78.4z"/>
			</g>
		</g>
		<g>
			<path class="st11" d="M206.9,112.9c-0.1-2.1-0.2-4.3-0.3-6.4c-0.2-4.3-0.4-8.5-0.7-12.8c-0.1-2.3,0.8-12.5-3.8-12
				c-4.5,0.5-3.4,11.1-3.3,14c0.3,7.2,1.6,14.2,2.1,21.4c2,0,3.9,0.1,5.8,0.1c0.1,0,0.2,0,0.3,0
				C206.8,115.6,206.9,113.9,206.9,112.9z"/>
			<g>
				<path class="st12" d="M198.6,76.8c1.3,4,6,2.9,7-0.2c0.7-2.2,0-5.9-3.8-11.8C201.3,65.9,197.2,72.3,198.6,76.8z"/>
			</g>
		</g>
		<g>
			<path class="st11" d="M224.3,112.2c-0.1-2.1-0.2-4.3-0.3-6.4c-0.2-4.3-0.4-8.5-0.7-12.8c-0.1-2.3,0.8-12.5-3.8-12
				c-4.5,0.5-3.4,11.1-3.3,14c0.3,7.6,1.8,15,2.1,22.6c2.1,0.1,4.1,0.1,6.2,0.2C224.1,115.9,224.3,113.4,224.3,112.2z"/>
			<g>
				<path class="st12" d="M216.6,76.7c1.2,4,5.9,3.1,7,0c0.7-2.2,0.2-5.9-3.4-11.9C219.7,65.9,215.3,72.2,216.6,76.7z"/>
			</g>
		</g>
		<g>
			<path class="st11" d="M238.8,82.6c-4.5,0.1-4.3,10.7-4.4,13.7c-0.3,7.4,0.5,14.7,0.2,22.1c2.1,0.2,4.1,0.5,6.1,1
				c-0.2-1.8,0.2-4.1,0.2-5.2c0.1-2.1,0.1-4.3,0.2-6.4c0.1-4.3,0.3-8.5,0.4-12.8C241.6,92.6,243.4,82.5,238.8,82.6z"/>
			<g>
				<path class="st12" d="M240.6,66.3c-0.6,1-5.3,7-4.4,11.7c0.9,4.1,5.7,3.5,6.9,0.5C244.1,76.3,243.8,72.6,240.6,66.3z"/>
			</g>
		</g>
	</g>
</g>
</svg>
