<?xml version="1.0" encoding="utf-8"?>
<!-- Generator: Adobe Illustrator 23.0.1, SVG Export Plug-In . SVG Version: 6.00 Build 0)  -->
<svg version="1.1" id="Calque_1" xmlns="http://www.w3.org/2000/svg" xmlns:xlink="http://www.w3.org/1999/xlink" x="0px" y="0px"
	 viewBox="0 0 432 432" style="enable-background:new 0 0 432 432;" xml:space="preserve">
<style type="text/css">
	.st0{fill:#AB8056;}
	.st1{fill:#1A1A1A;}
	.st2{fill:#736358;}
	.st3{fill:#C48C10;}
	.st4{fill:#544841;}
	.st5{fill:#E884A9;}
	.st6{fill:#B3B3B2;}
	.st7{fill:#C0282E;}
	.st8{fill:#333333;}
	.st9{fill:#19854B;}
	.st10{fill:#EBC776;}
	.st11{fill:#D5A953;}
	.st12{fill:#E1DFDB;}
	.st13{fill:#D2B155;}
	.st14{fill:#E8973E;}
	.st15{fill:#3A6C51;}
	.st16{fill:#036838;}
	.st17{fill:#4E695A;}
	.st18{fill:#8B3F43;}
	.st19{fill:#476C58;}
	.st20{fill:#A24F4D;}
	.st21{fill:#C5ADA4;}
	.st22{fill:#CCCBCB;}
	.st23{fill:#B79FA7;}
	.st24{fill:#815969;}
	.st25{fill:#A7A7A6;}
	.st26{fill:#D0AD76;}
	.st27{fill:#E8B953;}
	.st28{fill:#C59B6C;}
	.st29{fill:#F29222;}
	.st30{fill:#E6E5E5;}
	.st31{fill:#D2B79A;}
	.st32{fill:#BE8B65;}
	.st33{fill:#81A993;}
	.st34{fill:#9C7684;}
	.st35{fill:#824D61;}
	.st36{fill:#B14044;}
	.st37{fill:#8F5168;}
	.st38{fill:#D88EA9;}
	.st39{fill:#805C5C;}
	.st40{fill:#CCA3A3;}
	.st41{fill:#FFFFFF;}
	.st42{fill:#6A9DC3;}
	.st43{fill:#F49F5A;}
	.st44{fill:#6A3E4D;}
	.st45{fill:#F8AF3C;}
	.st46{fill:#EA5877;}
	.st47{fill:#F1D86A;}
	.st48{fill:#5EBEBD;}
	.st49{fill:#BDCD55;}
	.st50{fill:#A5A4A5;}
	.st51{fill:#B09FA0;}
	.st52{fill:#60AE9F;}
	.st53{fill:#BB8071;}
	.st54{fill:#9E7BB5;}
	.st55{fill:#A57C52;}
	.st56{fill:#E8973E;stroke:#E8973E;stroke-miterlimit:10;}
	.st57{fill:#AD375A;}
	.st58{fill:#7E8C66;}
	.st59{fill:#7C887F;}
	.st60{fill:#472912;}
	.st61{fill:#2B1A0F;}
	.st62{fill:#E52E31;}
	.st63{fill:#CA656A;}
	.st64{fill:#4E4D4D;}
	.st65{fill:#3A6D86;}
	.st66{fill:#1D1D1B;}
	.st67{fill:#0D0D0D;}
	.st68{fill:#EA94AA;}
	.st69{fill:#8DA198;}
	.st70{fill:#C896A9;}
	.st71{fill:#F5C645;}
	.st72{fill:#EFB443;}
	.st73{fill:#E68A44;}
	.st74{fill:#622C6A;}
	.st75{fill:#279352;}
	.st76{fill:#479754;}
	.st77{fill:#8764A2;}
	.st78{fill:#B59471;}
	.st79{fill:#B8D38E;}
	.st80{fill:#5CAF62;}
	.st81{fill:#F5DB56;}
	.st82{fill:#9C9E9F;}
	.st83{fill:#207242;}
	.st84{fill:#404041;}
	.st85{fill:#C1C2C1;}
	.st86{fill:#CBCACA;}
	.st87{fill:#904290;}
	.st88{fill:#129E56;}
	.st89{fill:#F1CC45;}
	.st90{fill:#5C3289;}
	.st91{fill:#2AA658;}
	.st92{fill:#C49A6C;}
	.st93{fill:#F1F1F1;}
	.st94{fill:#754D27;}
	.st95{fill:#8B6239;}
	.st96{fill:#B3B2B2;}
	.st97{fill:#979796;}
	.st98{fill:#C38045;}
	.st99{fill:#0E1014;}
	.st100{fill:#D8AA58;}
	.st101{fill:#0B0C0E;}
	.st102{fill:#6A4694;}
	.st103{fill:#3EA958;}
	.st104{fill:#FAD96F;}
	.st105{fill:#C58489;}
	.st106{fill:#C98C94;}
	.st107{fill:#2C2E30;}
	.st108{fill:#DDAAB1;}
	.st109{fill:#5A9AB5;}
	.st110{fill:#989898;}
	.st111{fill:#469771;}
	.st112{fill:#B59825;}
	.st113{fill:#E96C99;}
	.st114{fill:#BFA490;}
	.st115{fill:#808080;}
	.st116{fill:#80C9CB;}
	.st117{fill:#C9CE66;}
	.st118{fill:#72A6CB;}
	.st119{fill:#ED799D;}
	.st120{fill:#F4AB5E;}
	.st121{fill:#F2902A;}
	.st122{fill:#7FBB48;}
	.st123{fill:#ED7AA9;}
	.st124{fill:#53A2DA;}
	.st125{fill:#07473E;}
	.st126{fill:#960527;}
	.st127{fill:#110A09;}
	.st128{fill:#F15A24;}
	.st129{fill:#9B0808;}
	.st130{fill:#EFEFEF;}
	.st131{fill:#87C1BF;}
	.st132{fill:#E58645;}
	.st133{fill:#4F3928;}
	.st134{fill:#666666;}
	.st135{fill:#BDCCD4;}
	.st136{fill:#A0C1C0;}
</style>
<g>
	<g>
		<g>
			<g>
				<path class="st14" d="M230.25,110.21c-0.32,1.15-0.87,2.18-1.81,2.97c-1.72,1.45-4.1,1.25-5.54-0.47
					c-0.98-1.17-1.27-2.59-1.42-4.03c-0.23-2.32,0.16-4.59,0.8-6.82c0.14-0.51,0.28-1.01,0.45-1.51c0.11-0.34,0.24-0.68,0.41-1
					c0.62-1.17,1.65-1.48,2.7-0.68c0.77,0.59,1.53,1.28,2.07,2.08c1.82,2.69,2.75,5.66,2.41,8.95
					C230.31,109.87,230.28,110.03,230.25,110.21z"/>
				<path class="st109" d="M225.06,147.48c-0.23-2.35-0.45-4.54-0.64-6.74c-0.38-4.43-0.76-8.85-1.1-13.29
					c-0.2-2.66-0.34-5.32-0.49-7.99c-0.04-0.72-0.03-1.44-0.02-2.16c0.01-0.67,0.38-1.11,0.98-1.36c1.69-0.7,3.44-0.86,5.24-0.59
					c0.55,0.08,0.99,0.42,1.19,0.94c0.29,0.73,0.62,1.47,0.74,2.24c0.44,2.73,0.91,5.46,1.17,8.21c0.49,5.18,0.85,10.37,1.27,15.55
					c0.13,1.6,0.3,3.21,0.46,4.96C230.91,147.33,228.04,147.4,225.06,147.48z"/>
			</g>
			<g>
				<path class="st14" d="M208.71,118.65c-0.07,1.19-0.38,2.32-1.13,3.29c-1.36,1.79-3.73,2.11-5.51,0.74
					c-1.2-0.93-1.8-2.25-2.25-3.63c-0.73-2.22-0.83-4.51-0.69-6.83c0.03-0.52,0.06-1.05,0.11-1.57c0.04-0.36,0.09-0.72,0.18-1.07
					c0.35-1.28,1.29-1.8,2.49-1.24c0.88,0.41,1.77,0.92,2.47,1.58c2.36,2.23,3.9,4.94,4.28,8.22
					C208.69,118.31,208.7,118.47,208.71,118.65z"/>
				<path class="st109" d="M216.55,147.94c-2.72,0.35-5.39,0.69-8.09,1.04c-0.09-0.19-0.18-0.36-0.24-0.54
					c-2.06-6.26-3.8-12.6-5.05-19.07c-0.12-0.61-0.21-1.23-0.26-1.86c-0.08-0.98,0.28-1.73,1.19-2.18c1.65-0.83,3.4-1.21,5.24-1.19
					c0.53,0,0.88,0.24,1.07,0.71c0.34,0.86,0.73,1.7,0.97,2.58c1.4,5.31,2.77,10.63,4.14,15.95c0.32,1.24,0.6,2.49,0.89,3.74
					C216.48,147.38,216.5,147.63,216.55,147.94z"/>
			</g>
			<g>
				<path class="st14" d="M252.03,120.08c-0.46,1.11-1.13,2.06-2.15,2.74c-1.88,1.24-4.22,0.76-5.45-1.12
					c-0.83-1.27-0.96-2.72-0.93-4.17c0.04-2.33,0.7-4.54,1.6-6.67c0.2-0.48,0.4-0.97,0.63-1.45c0.15-0.33,0.32-0.65,0.53-0.95
					c0.76-1.09,1.81-1.27,2.76-0.35c0.7,0.68,1.37,1.45,1.81,2.31c1.49,2.89,2.06,5.95,1.33,9.18
					C252.13,119.75,252.08,119.91,252.03,120.08z"/>
				<path class="st109" d="M242.49,147.32c0.1-2.61,0.18-5.11,0.31-7.61c0.13-2.43,0.29-4.86,0.48-7.29c0.13-1.61,0.35-3.2,0.55-4.8
					c0.04-0.36,0.15-0.71,0.25-1.05c0.2-0.64,0.61-1.08,1.29-1.23c1.28-0.29,2.54-0.26,3.82,0.03c0.54,0.12,0.89,0.45,1.04,0.95
					c0.2,0.66,0.41,1.33,0.48,2.01c0.23,2.46,0.28,4.93,0.15,7.4c-0.1,1.84-0.08,3.69-0.12,5.53c-0.04,2.01-0.09,4.02-0.14,6.03
					c0,0.19-0.04,0.38-0.06,0.59C247.85,147.7,245.21,147.51,242.49,147.32z"/>
			</g>
		</g>
		<g>
			<g>
				<path class="st4" d="M181.39,270.4c0.98,0.04,1.93,0.16,2.87,0.11c1.41-0.08,2.68-0.67,3.9-1.32c1.05-0.55,2.05-1.19,3.06-1.81
					c1.27-0.78,2.55-1.53,4.01-1.89c0.45-0.11,0.91-0.2,1.36-0.21c1.52-0.06,2.67,0.55,3.37,1.95c0.7,1.41,1,2.92,1.32,4.44
					c0.47,2.22,0.88,4.46,1.41,6.67c0.43,1.8,1.13,3.52,2.18,5.06c0.53,0.78,1.16,1.54,1.89,2.13c1.51,1.23,3.16,1.1,4.52-0.29
					c0.57-0.58,1.12-1.24,1.48-1.97c0.74-1.5,1.44-3.04,1.97-4.63c1-3,1.81-6.06,2.81-9.06c0.59-1.77,1.31-3.53,2.15-5.19
					c0.57-1.13,1.4-2.15,2.22-3.13c1.03-1.23,2.48-0.94,3.18,0.14c0.62,0.97,1.31,1.9,1.95,2.86c0.74,1.1,1.56,2.13,2.6,2.96
					c2.31,1.85,4.78,1.94,7.19,0.22c0.69-0.5,1.31-1.1,1.95-1.67c0.97-0.85,1.91-1.72,2.9-2.54c0.77-0.63,1.64-1.1,2.62-1.35
					c1.63-0.42,3.03-0.05,4.04,1.33c0.56,0.77,1.06,1.6,1.44,2.47c0.66,1.51,1.17,3.08,1.81,4.6c0.61,1.46,1.25,2.91,1.99,4.3
					c0.46,0.86,1.06,1.68,1.72,2.4c0.55,0.6,1.22,1.13,1.93,1.51c1.56,0.85,3.29,0.65,4.58-0.58c0.7-0.67,1.33-1.48,1.8-2.33
					c0.63-1.15,1.08-2.4,1.6-3.61c0.61-1.42,1.15-2.88,1.84-4.26c0.46-0.94,1.09-1.8,1.71-2.65c0.3-0.42,0.72-0.78,1.14-1.08
					c1.04-0.76,1.7-0.62,2.32,0.52c0.38,0.69,0.67,1.43,0.95,2.17c1.03,2.71,2.05,5.43,3.53,7.94c0.67,1.13,1.4,2.24,2.24,3.25
					c1.67,2.01,3.77,3.37,6.4,3.8c0.19,0.03,0.37,0.09,0.58,0.15c0.08,0.75,0.19,1.46,0.23,2.18c0.17,3.19,0.36,6.38,0.47,9.57
					c0.11,3.03,0.14,6.06,0.22,9.1c0.02,0.82,0.08,1.64,0.12,2.47c0.04,0.8-0.27,1.44-0.92,1.86c-0.63,0.41-1.3,0.78-1.99,1.08
					c-2.95,1.27-6.02,2.15-9.17,2.73c-4.37,0.81-8.76,1.52-13.15,2.19c-3.26,0.5-6.52,0.94-9.8,1.27
					c-3.83,0.39-7.68,0.68-11.53,0.92c-3.85,0.23-7.7,0.41-11.56,0.49c-2.53,0.05-5.08-0.04-7.61-0.19
					c-2.83-0.16-5.66-0.38-8.47-0.68c-3.41-0.36-6.81-0.77-10.2-1.26c-3.52-0.51-7.03-1.12-10.53-1.73
					c-3.83-0.68-7.58-1.68-11.35-3.06c-0.13-1.72-0.33-3.48-0.39-5.25c-0.1-3.26-0.18-6.53-0.13-9.79c0.06-4.22,0.2-8.44,0.4-12.65
					c0.16-3.35,0.48-6.7,0.74-10.05C181.33,270.79,181.37,270.57,181.39,270.4z"/>
				<path class="st109" d="M181.67,267.21c0.14-1.15,0.28-2.32,0.42-3.5c0.42-3.4,0.9-6.79,1.78-10.11
					c0.24-0.89,0.53-1.77,0.78-2.65c0.43-1.49,1.39-2.49,2.78-3.16c1.86-0.9,3.82-1.42,5.82-1.86c3.68-0.81,7.43-1.15,11.18-1.26
					c6.59-0.2,13.18-0.4,19.77-0.47c4.35-0.04,8.7,0.09,13.05,0.25c4.15,0.16,8.3,0.38,12.43,0.71c3.74,0.3,7.48,0.72,11.2,1.21
					c5.43,0.71,10.79,1.77,16.1,3.12c0.92,0.24,1.83,0.54,2.75,0.79c0.73,0.2,1.21,0.65,1.48,1.34c0.27,0.71,0.54,1.42,0.75,2.14
					c1.08,3.68,1.81,7.43,2.24,11.23c0.49,4.29,0.92,8.58,1.36,12.87c0.03,0.32,0,0.65,0,1.06c-1.21-0.2-2.23-0.71-3.14-1.42
					c-1.34-1.06-2.43-2.35-3.19-3.86c-1.06-2.12-2.01-4.29-2.98-6.45c-0.5-1.11-0.89-2.27-1.38-3.39c-0.38-0.88-0.98-1.61-1.68-2.29
					c-1.11-1.09-3.25-0.89-4.24-0.24c-1.46,0.96-2.69,2.16-3.52,3.68c-0.88,1.62-1.64,3.3-2.4,4.98c-0.46,1.02-0.78,2.1-1.25,3.12
					c-0.39,0.83-0.84,1.65-1.38,2.38c-0.79,1.05-1.64,1.13-2.61,0.23c-0.64-0.6-1.26-1.29-1.68-2.05c-0.75-1.35-1.38-2.77-1.99-4.19
					c-0.52-1.21-0.93-2.47-1.41-3.69c-0.58-1.48-1.3-2.88-2.24-4.17c-1.64-2.26-3.86-3-6.51-2.49c-1.68,0.32-3.15,1.13-4.41,2.3
					c-1.21,1.12-2.42,2.24-3.67,3.32c-2,1.74-3.51,1.71-5.3-0.26c-0.86-0.94-1.48-2.09-2.24-3.12c-0.6-0.82-1.17-1.69-1.91-2.38
					c-1.57-1.47-3.64-1.6-5.47-0.45c-1.11,0.7-1.95,1.66-2.66,2.75c-1.61,2.48-2.71,5.2-3.58,8.01c-0.94,3.02-1.82,6.06-2.78,9.07
					c-0.34,1.06-0.82,2.08-1.27,3.11c-0.17,0.39-0.42,0.75-0.66,1.1c-0.98,1.4-1.45,1.42-2.49,0.02c-1.3-1.75-2.02-3.77-2.49-5.87
					c-0.51-2.28-0.91-4.59-1.4-6.87c-0.2-0.93-0.47-1.85-0.8-2.75c-1.53-4.11-4.84-5.08-8.32-4.18c-1.81,0.46-3.4,1.4-4.98,2.36
					c-1.3,0.78-2.64,1.49-3.99,2.16c-0.49,0.24-1.06,0.38-1.61,0.44C183.16,267.91,182.37,267.86,181.67,267.21z"/>
			</g>
			<path class="st31" d="M256.49,175.11c-1.98-0.08-3.82-0.2-5.66-0.23c-5.14-0.08-10.29-0.22-15.43-0.15
				c-5.01,0.07-10.02,0.28-15.02,0.59c-5.69,0.35-11.38,0.8-16.95,2.16c-0.13,0.03-0.26,0.04-0.5,0.08
				c-0.15-0.64-0.32-1.26-0.43-1.89c-0.65-3.67-1.11-7.36-1.24-11.09c-0.06-1.65-0.15-3.29-0.11-4.94c0.03-1.18,0.25-2.35,0.42-3.53
				c0.21-1.39,1.04-2.35,2.3-2.87c1.06-0.44,2.16-0.81,3.27-1.09c3.37-0.84,6.81-1.23,10.26-1.47c3.45-0.24,6.91-0.39,10.37-0.52
				c2.9-0.11,5.8-0.21,8.7-0.19c4.32,0.02,8.64,0.15,12.94,0.59c1.01,0.11,2.01,0.33,3.01,0.54c1.8,0.38,2.95,1.51,3.57,3.22
				c0.66,1.82,0.79,3.72,0.94,5.63c0.27,3.3,0.01,6.59-0.09,9.88C256.8,171.57,256.62,173.3,256.49,175.11z"/>
			<g>
				<path class="st4" d="M264.75,191.03c-0.92,0.26-1.78,0.4-2.54,0.76c-1.13,0.52-2.2,1.19-3.28,1.81
					c-1.14,0.65-2.24,1.39-3.43,1.95c-2.32,1.08-4.6,0.86-6.8-0.46c-1.34-0.81-2.51-1.81-3.58-2.95c-0.47-0.51-0.94-1.02-1.44-1.49
					c-2.39-2.27-5.26-3-8.48-2.59c-3.06,0.38-5.73,1.69-8.24,3.39c-1.45,0.98-2.88,1.98-4.34,2.94c-1.11,0.72-2.31,1.25-3.63,1.51
					c-1.63,0.32-3.23,0.24-4.76-0.38c-1.28-0.52-2.53-1.11-3.77-1.73c-1.74-0.87-3.5-1.71-5.47-1.93c-3.23-0.37-6.22,0.29-8.96,2.07
					c-0.22,0.14-0.43,0.3-0.65,0.45c-0.02,0.02-0.06,0.02-0.24,0.06c-0.11-0.72-0.25-1.44-0.33-2.16c-0.15-1.41-0.31-2.82-0.39-4.23
					c-0.11-2.03,0.46-3.74,2.32-4.9c2.18-1.36,4.53-2.26,7-2.9c4.04-1.04,8.16-1.52,12.3-1.84c3.29-0.25,6.58-0.42,9.87-0.62
					c6.98-0.42,13.98-0.34,20.97-0.29c2.96,0.02,5.93,0.22,8.89,0.4c0.88,0.05,1.76,0.28,2.62,0.49c1.76,0.44,3.03,1.52,3.89,3.11
					c1.18,2.18,1.75,4.54,2.14,6.96C264.55,189.28,264.63,190.13,264.75,191.03z"/>
				<path class="st109" d="M264.97,193.89c0.4,4.88,0.25,9.64,0.28,14.51c-0.84-0.09-1.55-0.19-2.26-0.25
					c-4.5-0.34-9-0.75-13.5-0.98c-7.28-0.38-14.56-0.39-21.85-0.26c-3.56,0.06-7.12,0.12-10.68,0.25
					c-6.03,0.23-12.05,0.57-17.98,1.79c-0.16,0.03-0.32,0.05-0.52,0.08c-0.11-0.26-0.25-0.49-0.31-0.73
					c-0.79-3.26-1.58-6.53-2.37-9.79c-0.13-0.53-0.01-0.92,0.43-1.3c3.24-2.77,6.86-3.5,10.86-1.99c1.1,0.42,2.14,1.01,3.2,1.55
					c1.59,0.8,3.21,1.55,4.98,1.85c2.73,0.46,5.34,0.05,7.73-1.33c1.54-0.89,3.01-1.89,4.48-2.9c1.69-1.16,3.4-2.27,5.34-2.97
					c1.31-0.47,2.67-0.78,4.06-0.76c1.99,0.03,3.74,0.7,5.14,2.17c0.64,0.67,1.27,1.34,1.92,2c1.1,1.11,2.34,2.03,3.7,2.79
					c2.83,1.59,5.78,1.82,8.74,0.51c1.56-0.69,3-1.64,4.46-2.53c1.1-0.67,2.19-1.34,3.47-1.62
					C264.48,193.93,264.67,193.92,264.97,193.89z"/>
			</g>
			<g>
				<path class="st14" d="M235.79,217.44c0.21,0.39,0.35,0.68,0.5,0.96c0.85,1.66,1.91,3.15,3.41,4.31c1.18,0.91,2.5,1.45,3.98,1.62
					c2.16,0.26,3.86-0.6,5.27-2.15c1.12-1.23,1.88-2.69,2.58-4.41c0.21,0.46,0.34,0.78,0.5,1.08c1.17,2.32,2.87,3.99,5.5,4.57
					c1.56,0.34,3.01,0.08,4.37-0.73c1.41-0.84,2.55-1.97,3.47-3.33c0.2-0.29,0.4-0.58,0.72-1.03c0.4,2.46,0.99,4.67,2.57,6.45
					c1.55,1.74,3.47,2.91,5.84,3.4c-0.3,5.83-1,11.56-1.98,17.36c-0.32-0.03-0.61-0.02-0.88-0.08c-6.13-1.31-12.33-2.18-18.57-2.73
					c-4-0.35-8.02-0.59-12.03-0.84c-9.06-0.57-18.13-0.44-27.19-0.28c-4.51,0.08-9.03,0.29-13.53,0.6
					c-2.52,0.17-5.02,0.68-7.53,1.04c-0.19,0.03-0.38,0.05-0.64,0.09c-1.13-5.2-1.68-10.42-2.12-15.72c0.28-0.05,0.5-0.1,0.71-0.14
					c1.03-0.15,1.97-0.52,2.86-1.05c1.63-0.98,3.02-2.23,4.11-3.8c1.3-1.88,2.33-3.9,3.23-6c0.1-0.24,0.21-0.48,0.32-0.72
					c0.03-0.05,0.1-0.08,0.2-0.16c0.16,0.44,0.31,0.86,0.46,1.28c0.98,2.72,2.47,5.11,4.8,6.88c0.78,0.59,1.64,1.12,2.54,1.51
					c2.69,1.16,5.15,0.68,7.32-1.28c1.07-0.97,1.81-2.18,2.38-3.49c0.38-0.87,0.69-1.77,1.09-2.8c0.18,0.4,0.32,0.71,0.46,1.02
					c0.71,1.62,1.63,3.1,2.92,4.31c1.31,1.23,2.82,2.03,4.65,2.19c1.75,0.15,3.15-0.5,4.34-1.73c1.25-1.31,2.11-2.86,2.77-4.52
					C235.35,218.59,235.54,218.07,235.79,217.44z"/>
				<g>
					<path class="st31" d="M203.14,211.01c5.12-0.8,10.19-1,15.4-1.15c-0.08,0.7-0.13,1.31-0.23,1.91c-0.33,2.18-0.61,4.38-1.4,6.46
						c-0.41,1.07-0.9,2.14-1.54,3.07c-1.48,2.13-3.52,2.54-5.79,1.29c-1.63-0.9-2.87-2.19-3.85-3.76
						C204.27,216.46,203.72,213.79,203.14,211.01z"/>
					<path class="st31" d="M221.35,209.73c4.36-0.07,8.7-0.14,13.1-0.2c-0.37,3.35-0.83,6.57-2.29,9.55
						c-0.46,0.93-1.09,1.8-1.74,2.62c-0.78,0.99-1.85,1.18-3.03,0.8c-0.94-0.3-1.71-0.84-2.38-1.54c-1.33-1.39-2.12-3.09-2.69-4.9
						C221.69,214.03,221.45,211.94,221.35,209.73z"/>
					<path class="st31" d="M237.23,209.53c4.42,0.12,8.81,0.25,13.29,0.37c-0.47,3.08-1,6.01-2.39,8.71
						c-0.27,0.52-0.62,1.01-0.98,1.48c-1.36,1.75-2.99,1.95-5,0.97c-0.94-0.46-1.64-1.2-2.27-2.01c-1.33-1.71-2.02-3.68-2.34-5.79
						c-0.16-1.07-0.26-2.15-0.38-3.23C237.15,209.9,237.2,209.77,237.23,209.53z"/>
					<path class="st31" d="M265.93,211.27c-0.73,2.41-1.5,4.64-2.87,6.62c-0.61,0.87-1.34,1.61-2.2,2.24
						c-1.52,1.12-3.28,0.73-4.34,0c-1.01-0.69-1.72-1.62-2.18-2.74c-0.59-1.41-0.88-2.89-1.02-4.4c-0.09-0.91-0.11-1.82-0.17-2.87
						C257.47,210.39,261.64,210.69,265.93,211.27z"/>
					<path class="st31" d="M189.86,224.65c-0.02-0.44-0.08-0.9-0.07-1.35c0.05-1.48,0.11-2.96,0.19-4.44
						c0.12-2.24,1.28-3.82,3.16-4.93c1.66-0.98,3.48-1.57,5.33-2.05c0.38-0.1,0.76-0.16,1.25-0.27c-0.04,0.3-0.02,0.52-0.09,0.72
						c-1,2.87-2.18,5.65-3.84,8.22c-1,1.55-2.28,2.81-3.91,3.69C191.04,224.7,190.72,224.76,189.86,224.65z"/>
					<path class="st31" d="M268.69,211.83c2.34,0.38,3.91,1.46,4.79,3.48c0.57,1.32,0.84,2.71,0.96,4.12
						c0.16,1.93,0.23,3.87,0.1,5.91c-0.31-0.08-0.56-0.11-0.79-0.2c-2.74-1.12-4.32-3.19-4.75-6.08c-0.22-1.46-0.23-2.95-0.3-4.43
						C268.66,213.74,268.69,212.86,268.69,211.83z"/>
				</g>
			</g>
		</g>
	</g>
	<g>
		<g>
			<g>
				<path class="st109" d="M171.41,128.33c-0.63,0.86-1.26,1.58-1.75,2.39c-2.21,3.59-3.6,7.46-3.88,11.7
					c-0.14,2.1,0.03,3.82,0.53,5.13c0.35-0.16,0.7-0.3,1.05-0.47c2.71-1.27,5.55-1.87,8.55-1.52c1.75,0.21,3.41,0.72,4.9,1.71
					c1.14,0.77,1.93,1.77,2.14,3.18c0.13,0.88-0.07,1.71-0.42,2.5c-1.14,2.62-3.22,4.06-5.98,4.46c-4.42,0.64-7.92-1.04-10.66-4.48
					c-0.14-0.18-0.27-0.37-0.41-0.56c-0.12-0.16-0.23-0.31-0.41-0.55c-0.28,0.28-0.55,0.52-0.78,0.78
					c-1.76,1.99-2.72,4.32-3.05,6.95c-0.41,3.37,0.09,6.56,1.67,9.58c1.27,2.42,3.06,4.27,5.71,5.18c0.81,0.28,1.59,0.62,2.39,0.94
					c0.24,0.1,0.49,0.2,0.72,0.33c0.66,0.4,0.89,1.05,0.63,1.68c-0.25,0.61-0.81,0.89-1.54,0.78c-0.03-0.01-0.07-0.01-0.1-0.02
					c-2.55-0.97-5.18-1.78-7.28-3.65c-1.51-1.35-2.53-3.03-3.36-4.83c-1.89-4.08-2.14-8.32-1.1-12.65c0.67-2.76,2.12-5.09,4.19-7.04
					c0.21-0.2,0.43-0.41,0.64-0.62c-0.2-0.88-0.44-1.74-0.58-2.61c-0.66-4.11,0.03-8.07,1.45-11.93c1.18-3.22,2.77-6.2,5.23-8.64
					c0.39-0.39,0.31-0.75,0.21-1.17c-0.66-2.7-0.48-5.36,0.44-7.98c0.54-1.54,1.31-2.98,2.51-4.09c0.67-0.61,1.48-1.08,2.27-1.53
					c0.35-0.2,0.82-0.26,1.24-0.26c0.7-0.01,1.23,0.47,1.34,1.09c0.12,0.69-0.23,1.35-0.97,1.51c-1.38,0.31-2.23,1.22-2.92,2.33
					c-1.46,2.34-1.77,4.9-1.4,7.75c0.4-0.2,0.71-0.35,1.01-0.51c2.42-1.27,4.98-1.87,7.73-1.59c1.13,0.11,2.2,0.43,3.18,0.99
					c2.41,1.39,3.27,4.01,2.15,6.56c-1.57,3.58-5.22,5.18-9.13,4.02c-2.26-0.67-4.05-2.02-5.46-3.88c-0.1-0.13-0.19-0.27-0.29-0.4
					C171.72,128.76,171.63,128.63,171.41,128.33z M167.29,150.16c1.42,2.3,3.24,3.86,5.79,4.48c1.45,0.35,2.88,0.29,4.28-0.24
					c1.33-0.51,2.27-1.41,2.75-2.79c0.27-0.76,0.1-1.41-0.54-1.84c-0.62-0.42-1.29-0.81-2-1.04
					C173.98,147.53,170.64,148.37,167.29,150.16z M173.54,126.49c1.47,2.53,3.44,4.11,6.31,4.34c1.99,0.15,3.84-1.17,4.47-3.07
					c0.33-1.01,0.1-1.95-0.78-2.53c-0.59-0.39-1.29-0.71-1.98-0.82C178.65,123.95,176.03,124.74,173.54,126.49z"/>
				<path class="st109" d="M318.03,279.3c-0.11,0.4-0.2,0.75-0.31,1.09c-0.6,1.93-1.7,3.49-3.45,4.54
					c-1.31,0.79-2.72,1.17-4.26,0.75c-0.9-0.25-1.59-0.78-2.09-1.55c-0.87-1.34-1.06-3.75,0.1-5.33c1.17-1.59,2.76-2.42,4.68-2.62
					c0.84-0.09,1.7-0.02,2.56-0.02c-0.25-3.04-3.16-6.79-7.05-7.26c-0.2-0.02-0.4-0.06-0.59-0.03c-2.24,0.35-4.26,1.14-5.71,2.99
					c-0.7,0.89-1.42,1.09-2.09,0.58c-0.65-0.49-0.7-1.35-0.09-2.2c0.29-0.4,0.62-0.78,0.98-1.11c1.69-1.58,3.72-2.47,5.97-2.87
					c1.6-0.28,3.16,0,4.62,0.69c3.64,1.72,5.87,4.57,6.68,8.53c0.07,0.32,0.13,0.64,0.21,1.03c1.79,0.24,3.56,0.61,5.38,0.25
					c1.19-0.23,2.26-0.7,3.15-1.54c0.55-0.52,1.08-1.06,1.64-1.57c0.24-0.22,0.5-0.44,0.8-0.57c0.63-0.28,1.39-0.02,1.74,0.54
					c0.34,0.55,0.24,1.23-0.26,1.7c-0.6,0.57-1.22,1.11-1.81,1.68c-2.19,2.11-4.85,2.8-7.81,2.59
					C320.03,279.52,319.05,279.4,318.03,279.3z M315.19,278.8c-0.94,0.05-1.8,0.03-2.63,0.16c-1.01,0.15-1.86,0.67-2.39,1.58
					c-0.43,0.73-0.34,1.49,0.11,2.14c0.46,0.67,1.17,0.47,1.81,0.28C313.69,282.47,315.01,280.77,315.19,278.8z"/>
				<path class="st109" d="M219.25,328.49c0.64,0.01,1.14,0.41,1.3,1.13c0.16,0.74,0.25,1.49,0.4,2.24
					c0.55,2.73,1.37,5.36,3.01,7.67c0.85,1.2,1.88,2.2,3.11,3.01c0.27,0.18,0.55,0.37,0.76,0.62c0.5,0.57,0.5,1.27,0.07,1.81
					c-0.43,0.53-1.14,0.64-1.78,0.22c-1.41-0.93-2.73-1.95-3.79-3.29c-2.1-2.65-3.24-5.71-3.93-8.97c-0.21-1-0.37-2.01-0.44-3.03
					C217.88,329.05,218.48,328.48,219.25,328.49z"/>
			</g>
			<g>
				<path class="st14" d="M287.67,334.38c-1.33,0.41-2.62,0.79-3.9,1.2c-1.49,0.48-2.81,1.29-4.11,2.14c-0.3,0.2-0.61,0.4-0.94,0.55
					c-0.68,0.32-1.37,0.12-1.73-0.47c-0.37-0.6-0.25-1.31,0.32-1.77c0.36-0.29,0.74-0.55,1.14-0.78c2.53-1.51,5.17-2.77,8.09-3.34
					c0.26-0.05,0.51-0.12,0.87-0.21c0-0.33,0.01-0.68,0.01-1.03c0.02-5.87,2.15-10.79,6.6-14.65c1.84-1.6,4-2.52,6.4-2.88
					c0.42-0.06,0.85-0.1,1.46-0.17c0.03-0.23,0.05-0.53,0.13-0.81c1.23-4.38,4.01-7.3,8.25-8.92c1.73-0.66,3.49-0.96,5.32-0.93
					c0.26,0,0.54,0.01,0.78,0.08c0.51,0.16,0.84,0.51,0.91,1.06c0.07,0.55-0.14,1.1-0.67,1.31c-0.41,0.17-0.89,0.25-1.33,0.25
					c-2.72,0-5.1,0.94-7.23,2.56c-1.83,1.39-2.86,3.3-3.46,5.56c0.34,0.09,0.61,0.16,0.89,0.23c1.84,0.45,3.58,1.12,5.15,2.21
					c1.28,0.88,2.32,1.98,2.87,3.44c0.26,0.69,0.44,1.47,0.43,2.2c-0.01,1.6-1.04,2.8-2.58,3.22c-1.22,0.33-2.44,0.25-3.6-0.2
					c-3.58-1.39-5.79-3.9-6.27-7.8c-0.02-0.16-0.05-0.32-0.08-0.48c-0.01-0.03-0.04-0.05-0.11-0.13c-1.82,0.1-3.51,0.74-4.96,1.86
					c-3.01,2.31-4.96,5.36-5.82,9.05c-0.35,1.5-0.46,3.05-0.32,4.59c1.1,0.18,2.18,0.29,3.23,0.54c2.86,0.69,5.39,1.95,7.19,4.38
					c0.71,0.96,1.26,2,1.36,3.24c0.16,2.11-1.17,3.82-3.25,4.15c-1.16,0.18-2.3,0.06-3.42-0.27c-3.26-0.98-5.4-3.17-6.68-6.26
					C288.28,336.28,288.03,335.42,287.67,334.38z M290.54,334.18c0.36,0.92,0.61,1.7,0.97,2.43c0.99,1.99,2.41,3.54,4.64,4.14
					c0.62,0.17,1.3,0.25,1.94,0.2c0.98-0.07,1.4-0.74,1.06-1.66c-0.24-0.63-0.59-1.26-1.03-1.77c-1.64-1.91-3.83-2.84-6.26-3.24
					C291.49,334.21,291.1,334.22,290.54,334.18z M304.34,315.89c-0.07,0.16-0.11,0.22-0.11,0.27c0.11,2.61,2.64,5.35,5.24,5.69
					c0.2,0.03,0.39,0.04,0.59,0.03c1.03-0.04,1.35-0.46,1.09-1.47c-0.1-0.37-0.26-0.76-0.49-1.06
					C309.07,317.23,306.76,316.47,304.34,315.89z"/>
				<path class="st14" d="M292.29,209.95c1.15-1.38,1.65-2.86,1.79-4.46c0.33-3.77-0.95-6.98-3.73-9.48
					c-2.26-2.04-4.96-2.79-7.99-1.97c-0.94,0.26-1.76,0.69-2.38,1.49c-0.53,0.68-1.34,0.78-1.91,0.33c-0.58-0.45-0.7-1.23-0.24-1.95
					c0.61-0.94,1.49-1.57,2.5-2.03c2.02-0.91,4.15-1.07,6.29-0.66c2.97,0.57,5.39,2.1,7.21,4.51c2.12,2.8,3.22,5.96,3.01,9.5
					c-0.14,2.32-0.85,4.45-2.3,6.31c-0.2,0.26-0.4,0.52-0.59,0.77c0.3,0.8,0.63,1.56,0.88,2.33c0.81,2.49,0.8,4.98,0,7.48
					c-0.66,2.05-1.59,3.97-2.63,5.85c-0.12,0.23-0.29,0.45-0.48,0.62c-0.42,0.38-1,0.44-1.47,0.18c-0.52-0.28-0.78-0.74-0.68-1.31
					c0.06-0.38,0.26-0.74,0.42-1.1c0.75-1.72,1.59-3.4,2.24-5.16c0.79-2.12,0.6-4.28-0.22-6.38c-0.07-0.18-0.16-0.34-0.27-0.57
					c-0.53,0.3-1,0.59-1.49,0.85c-1.74,0.9-3.56,1.4-5.53,0.94c-1.48-0.34-2.67-1.11-3.46-2.43c-1.21-2.02-0.78-4.3,1.12-5.71
					c1.78-1.32,3.76-1.47,5.83-0.86c1.26,0.37,2.31,1.1,3.25,2C291.73,209.32,291.97,209.6,292.29,209.95z M290.28,211.88
					c-0.81-1.13-1.84-1.91-2.97-2.24c-1.09-0.32-2.15-0.27-3.13,0.35c-1.01,0.64-1.15,1.57-0.4,2.5c0.55,0.68,1.31,0.97,2.17,1
					C287.62,213.54,288.99,212.83,290.28,211.88z"/>
				<path class="st14" d="M159.22,187.33c2.04-0.02,3.72,0.79,5.02,2.34c0.63,0.75,1.14,1.61,1.7,2.42
					c0.57,0.81,1.11,1.63,1.71,2.41c0.61,0.79,1.4,1.38,2.32,1.81c1.28,0.6,2.35,0.45,3.33-0.58c0.46-0.49,0.82-1.11,1.13-1.72
					c0.32-0.64,0.52-1.35,0.8-2.02c0.36-0.87,1.07-1.24,1.78-0.97c0.7,0.26,1.07,0.97,0.77,1.8c-0.47,1.26-0.91,2.57-1.62,3.69
					c-1.8,2.85-4.98,3.74-7.88,1.97c-0.91-0.56-1.79-1.25-2.51-2.04c-0.82-0.89-1.45-1.95-2.15-2.94c-0.4-0.57-0.74-1.17-1.15-1.72
					c-1.15-1.57-2.71-2.08-4.53-1.5c-0.96,0.3-1.87,0.79-2.76,1.27c-0.66,0.36-1.24,0.87-1.9,1.25c-0.68,0.4-1.45,0.21-1.85-0.36
					c-0.37-0.54-0.35-1.27,0.19-1.7c2.22-1.76,4.55-3.28,7.51-3.4C159.15,187.33,159.19,187.33,159.22,187.33z"/>
				<path class="st14" d="M264.97,144.88c0.64,0.01,1.14,0.41,1.3,1.13c0.16,0.74,0.25,1.49,0.4,2.24c0.55,2.73,1.37,5.36,3.01,7.67
					c0.85,1.2,1.88,2.2,3.11,3.01c0.27,0.18,0.55,0.37,0.76,0.62c0.5,0.57,0.5,1.27,0.07,1.81c-0.43,0.53-1.14,0.64-1.78,0.22
					c-1.41-0.93-2.73-1.95-3.79-3.29c-2.11-2.65-3.24-5.71-3.93-8.97c-0.21-1-0.37-2.01-0.44-3.03
					C263.6,145.44,264.2,144.87,264.97,144.88z"/>
				<path class="st14" d="M253.06,334.84c-0.02,1.72-0.56,3.31-1.16,4.88c-0.29,0.75-0.98,1.04-1.68,0.81
					c-0.65-0.21-1.03-0.91-0.84-1.68c0.12-0.51,0.31-1.01,0.48-1.5c0.86-2.53,0.37-4.93-0.69-7.28c-0.11-0.24-0.27-0.46-0.36-0.7
					c-0.3-0.77-0.02-1.55,0.65-1.85c0.65-0.3,1.33-0.06,1.77,0.63c0.88,1.42,1.35,2.99,1.61,4.63
					C252.93,333.46,252.98,334.15,253.06,334.84z"/>
			</g>
		</g>
		<g>
			<g>
				<path class="st14" d="M320.12,191.47c0.11,0.49,0.23,1.04,0.36,1.57c1.01,3.91,2.58,7.61,4.32,11.25
					c1.31,2.73,2.66,5.45,3.9,8.22c2.62,5.83,4.24,11.9,4.42,18.33c0.11,3.87-0.43,7.63-1.7,11.27c-1.46,4.2-3.72,7.92-6.98,10.99
					c-2.76,2.6-5.98,4.09-9.79,4.45c-4.39,0.42-11.17-2.9-12.35-9.16c-0.56-2.99-0.53-5.95,0.25-8.91c0.43-1.63,0.99-3.21,1.81-4.69
					c0.16-0.28,0.33-0.58,0.55-0.81c0.42-0.43,1.05-0.5,1.55-0.23c0.5,0.27,0.79,0.84,0.66,1.42c-0.08,0.35-0.23,0.69-0.41,1
					c-1.72,3.03-2.22,6.3-2.03,9.73c0.26,4.6,2.8,7.42,7.21,8.69c2.34,0.68,4.65,0.11,6.84-0.84c1.81-0.79,3.31-2.03,4.66-3.45
					c3.21-3.38,5.22-7.41,6.28-11.93c1.3-5.56,0.8-11.07-0.55-16.54c-1.07-4.35-2.9-8.4-4.84-12.42c-1.4-2.91-2.79-5.83-4.09-8.79
					c-1.13-2.57-1.98-5.24-2.62-7.98c-0.05-0.22-0.12-0.44-0.19-0.71c-0.19-0.02-0.38-0.07-0.57-0.05
					c-11.21,0.98-22.95-5.61-27.64-17.45c-1.7-4.29-2.61-8.7-2.18-13.34c0.24-2.59,0.88-5.06,2.23-7.31
					c0.17-0.28,0.34-0.57,0.56-0.81c0.45-0.48,1.11-0.57,1.62-0.28c0.55,0.32,0.81,0.99,0.6,1.63c-0.06,0.19-0.15,0.37-0.26,0.53
					c-1.63,2.5-2.2,5.3-2.11,8.2c0.3,9.84,4.27,17.7,12.87,22.86c4.02,2.41,8.44,3.5,13.14,3.3c0.39-0.02,0.78-0.06,1.24-0.1
					c-0.03-0.44-0.05-0.82-0.08-1.21c-0.18-2.25-0.14-4.48,0.56-6.65c0.69-2.12,1.94-3.82,3.88-4.94c2.38-1.36,4.76-1.22,6.99,0.31
					c1.9,1.3,2.58,3.19,2.2,5.44c-0.27,1.6-1.06,2.97-2.11,4.19c-1.95,2.25-4.39,3.76-7.19,4.71c-0.31,0.11-0.62,0.22-0.93,0.33
					C320.21,191.35,320.19,191.39,320.12,191.47z M319.62,188.65c2.85-0.89,5.17-2.24,6.94-4.45c0.6-0.75,1.03-1.6,1.22-2.56
					c0.25-1.27-0.27-2.36-1.42-2.96c-1.33-0.69-2.65-0.68-3.93,0.15c-0.79,0.51-1.42,1.18-1.87,1.99
					C319.22,183.26,319.39,185.88,319.62,188.65z"/>
				<path class="st109" d="M295.74,147.37c0,0.55-0.03,1.02,0.01,1.49c0.12,1.58,0.54,3.09,1.09,4.57c0.2,0.55,0.43,1.1,0.58,1.67
					c0.3,1.12-0.24,2-1.4,2.11c-0.8,0.08-1.62-0.02-2.42-0.13c-2.82-0.38-5.53-1.23-8.21-2.14c-1.24-0.42-1.64-1.48-0.96-2.6
					c0.32-0.52,0.71-1.01,1.09-1.5c1.12-1.45,2.15-2.95,2.93-4.61c0.07-0.15,0.12-0.31,0.2-0.51c-0.22-0.11-0.4-0.22-0.6-0.3
					c-6.2-2.56-11.24-6.59-15.15-12.03c-5.7-7.93-8.1-16.8-7.41-26.51c0.21-2.97,0.89-5.86,1.83-8.7c1.54-4.65,3.86-8.84,7.12-12.48
					c4.34-4.85,9.57-8.29,15.95-9.83c4.37-1.05,8.77-1.09,13.2-0.4c5.91,0.92,11.25,3.19,16.02,6.79c5.7,4.3,9.32,10.02,11.34,16.8
					c1.5,5.05,2.19,10.2,1.69,15.47c-0.86,9.08-4.73,16.63-11.68,22.56c-3.52,3-7.49,5.22-11.84,6.8
					c-3.89,1.41-7.91,2.34-11.94,3.19C296.74,147.16,296.31,147.25,295.74,147.37z"/>
			</g>
			<g>
				<path class="st109" d="M186.26,347.99c-0.26-0.03-0.51-0.07-0.77-0.09c-3.14-0.27-5.86-1.52-8.16-3.63
					c-2.1-1.93-3.21-4.33-3.03-7.22c0.26-4.04,3.57-6.64,7.57-6.01c2.26,0.36,4.06,1.5,5.45,3.29c1.96,2.53,2.69,5.46,2.7,8.61
					c0,0.56-0.03,1.12-0.05,1.79c0.46-0.17,0.85-0.3,1.23-0.47c3.22-1.36,5.53-3.64,6.9-6.86c0.13-0.3,0.25-0.61,0.43-0.89
					c0.4-0.63,1.1-0.83,1.72-0.54c0.58,0.27,0.88,0.89,0.71,1.57c-0.08,0.32-0.22,0.62-0.35,0.92c-2.06,4.78-5.71,7.7-10.66,9.12
					c-0.13,0.04-0.26,0.07-0.38,0.11c-0.06,0.02-0.12,0.05-0.22,0.1c-0.13,0.34-0.26,0.71-0.41,1.07c-1.21,3-3.1,5.43-6.04,6.92
					c-2.34,1.19-4.85,1.42-7.42,1.05c-4.19-0.6-7.86-2.38-11.13-5.02c-3.14-2.53-5.62-5.65-7.74-9.05
					c-2.38-3.82-4.17-7.92-5.63-12.17c-1.69-4.94-2.86-10.02-4.17-15.06c-0.1-0.38-0.19-0.75-0.32-1.27
					c-0.44,0.34-0.77,0.59-1.1,0.85c-2.65,2.04-5.6,3.05-8.96,2.59c-3.95-0.53-6.67-3.21-7.27-7.12c-0.18-1.2-0.01-2.37,0.42-3.5
					c1.31-3.45,4.79-5.88,8.48-5.95c1.89-0.03,3.56,0.6,5.04,1.73c1.77,1.35,3.05,3.09,3.98,5.09c0.1,0.21,0.2,0.41,0.31,0.62
					c0.03,0.06,0.09,0.09,0.2,0.21c0.18-0.23,0.37-0.44,0.51-0.68c2.89-4.71,4.27-9.78,3.42-15.3c-0.58-3.73-2-7.16-4.25-10.22
					c-0.1-0.13-0.21-0.26-0.29-0.4c-0.33-0.58-0.21-1.29,0.27-1.7c0.47-0.4,1.14-0.46,1.64-0.04c0.4,0.33,0.75,0.74,1.05,1.17
					c1.23,1.77,2.16,3.69,2.9,5.71c3.22,8.73,1.6,16.71-3.77,24.09c-0.33,0.46-0.36,0.81-0.22,1.34c1.13,4.2,2.14,8.44,3.33,12.63
					c1.89,6.66,4.42,13.04,8.57,18.67c2.31,3.14,5,5.88,8.43,7.79c2.66,1.48,5.48,2.43,8.56,2.42
					C181.62,354.25,185.23,351.59,186.26,347.99z M145.55,311.33c-0.25-0.62-0.45-1.18-0.69-1.72c-0.8-1.84-1.88-3.47-3.53-4.67
					c-1.05-0.76-2.2-1.19-3.51-1.06c-2.53,0.25-4.38,1.53-5.51,3.8c-0.63,1.27-0.67,2.58-0.09,3.91c1.09,2.49,3.1,3.47,5.68,3.5
					C141.03,315.12,143.37,313.51,145.55,311.33z M187.16,345.29c0.05-0.95,0.14-1.77,0.13-2.58c-0.05-2.49-0.62-4.83-2.21-6.82
					c-0.9-1.12-2.03-1.86-3.46-2.13c-2.78-0.53-4.92,1.43-4.6,4.25c0.18,1.63,0.84,3.04,2.05,4.17c1.53,1.41,3.31,2.4,5.36,2.81
					C185.28,345.16,186.16,345.19,187.16,345.29z"/>
				<path class="st14" d="M148.98,272.7c0.28,0.47,0.49,0.9,0.76,1.28c0.9,1.31,2.03,2.4,3.24,3.4c0.45,0.37,0.93,0.73,1.34,1.15
					c0.83,0.82,0.8,1.85-0.15,2.53c-0.65,0.47-1.41,0.8-2.16,1.11c-2.63,1.1-5.4,1.72-8.18,2.28c-1.28,0.26-2.16-0.46-2.14-1.77
					c0.01-0.61,0.11-1.23,0.19-1.84c0.24-1.81,0.37-3.63,0.21-5.45c-0.01-0.16-0.05-0.32-0.08-0.55c-0.24,0.01-0.46,0.01-0.67,0.04
					c-6.65,0.91-13.03-0.04-19.14-2.77c-8.92-3.99-15.45-10.45-19.75-19.18c-1.31-2.67-2.18-5.52-2.79-8.44
					c-1.01-4.79-1.11-9.58-0.12-14.37c1.31-6.37,4.09-11.98,8.83-16.52c3.24-3.11,7.04-5.35,11.21-6.99
					c5.57-2.19,11.33-2.9,17.27-2.19c7.09,0.85,13.1,3.96,18.26,8.81c3.84,3.61,7.02,7.72,9.24,12.52
					c3.83,8.28,4.28,16.75,1.26,25.38c-1.53,4.36-3.85,8.28-6.81,11.83c-2.65,3.18-5.66,6-8.72,8.76
					C149.74,272.01,149.41,272.31,148.98,272.7z"/>
			</g>
		</g>
	</g>
</g>
</svg>
