<?xml version="1.0" encoding="utf-8"?>
<!-- Generator: Adobe Illustrator 21.1.0, SVG Export Plug-In . SVG Version: 6.00 Build 0)  -->
<svg version="1.1" id="Calque_1" xmlns="http://www.w3.org/2000/svg" xmlns:xlink="http://www.w3.org/1999/xlink" x="0px" y="0px"
	 viewBox="0 0 432 432" style="enable-background:new 0 0 432 432;" xml:space="preserve">
<style type="text/css">
	.st0{fill:#333333;}
	.st1{fill:#BF924C;}
	.st2{fill:#E6E6E6;}
	.st3{fill:#801422;}
	.st4{fill:#6F4436;}
	.st5{fill:#BE9B7B;}
	.st6{fill:#FBB03B;}
	.st7{fill:#D37A20;}
	.st8{fill:#1A1A1A;}
	.st9{fill:#EE7EB0;}
	.st10{fill:#FFD744;}
	.st11{fill:#78CFDE;}
	.st12{fill:#AA4B57;}
	.st13{fill:#B3B3B3;}
	.st14{fill:#66472D;}
	.st15{fill:#4C71A8;}
	.st16{fill:#D18FAF;}
	.st17{fill:#578FC8;}
	.st18{fill:#D9B442;}
	.st19{fill:#8C6E54;}
	.st20{fill:#3C2F2F;}
	.st21{fill:#9FAF88;}
	.st22{fill:#7E8D66;}
	.st23{fill:#D6A1AD;}
	.st24{fill:#FCD5D2;}
	.st25{fill:#BA2C38;}
	.st26{fill:#BF926B;}
	.st27{fill:#5B9DC1;}
	.st28{fill:#F4923E;}
	.st29{fill:#282C35;}
	.st30{fill:#EBB2A5;}
	.st31{fill:#CF6557;}
	.st32{fill:#7FB9BC;}
	.st33{fill:#154B67;}
	.st34{fill:#EAD5B6;}
	.st35{fill:#4D9164;}
	.st36{fill:#C59E73;}
	.st37{fill:#EEC7A0;}
	.st38{fill:#EC9294;}
	.st39{fill:#D2523D;}
	.st40{fill:#BEC1A4;}
	.st41{fill:#939176;}
	.st42{fill:#F8CACC;}
	.st43{fill:#F1949B;}
	.st44{fill:#59A5AD;}
	.st45{fill:#11937F;}
	.st46{fill:#406C70;}
	.st47{fill:#6FAFC6;}
	.st48{fill:#EF777F;}
	.st49{fill:#F3C186;}
	.st50{fill:#F6AD4B;}
	.st51{fill:none;}
	.st52{fill:#579B5E;}
	.st53{fill:#C69C6D;}
	.st54{fill:#4B8599;}
	.st55{fill:#D09596;}
	.st56{fill:#91B468;}
	.st57{fill:#F9C9CC;}
	.st58{fill:#2D302A;}
	.st59{fill:#D17475;}
	.st60{fill:#C1272D;}
	.st61{fill:#736357;}
	.st62{fill:#92B4C4;}
	.st63{fill:#A67C52;}
	.st64{fill:#F7931E;}
	.st65{fill:#B2151B;}
	.st66{fill:#D7A356;}
	.st67{fill:#B88D52;}
	.st68{fill:#8B514D;}
	.st69{fill:#727D6D;}
	.st70{fill:#F6A865;}
	.st71{fill:#F885C1;}
	.st72{fill:#4DC497;}
	.st73{fill:#AAA39B;}
	.st74{fill:#564336;}
	.st75{fill:#006837;}
	.st76{fill:#953D3D;}
	.st77{fill:#BEAF98;}
	.st78{fill:#D06C5D;}
	.st79{fill:#CCCCCC;}
	.st80{fill:#961F21;}
	.st81{fill:#C1934D;}
	.st82{fill:#F7CAC9;}
	.st83{fill:#FF8B85;}
	.st84{fill:#EE5977;}
	.st85{fill:#FDC111;}
	.st86{fill:#53BFD3;}
	.st87{fill:#CCCE01;}
	.st88{fill:#FD8C84;}
	.st89{fill:#92C142;}
	.st90{fill:#FFD066;}
	.st91{fill:#DC042B;}
</style>
<g>
	<path d="M313.6,135.1c-0.1-0.5-0.2-1-0.5-1.5c-0.3-0.6-0.8-0.7-1.4-0.4c-0.2,0.1-0.4,0.3-0.6,0.4c-1.1,0.8-2.2,1.7-3.3,2.5
		c-2.6,1.9-4.8,4.3-7,6.7c-1.1,1.2-2,2.6-2.6,4.1c-1.2,3,0,7.1,2.7,8.3c0,0,0.1,0.1,0.1,0.2c-0.3,0.7-0.6,1.5-0.8,2.2
		c-0.2,0-0.3,0-0.4,0c-1.6-0.2-2.6,0.6-3.2,1.9c-0.4,0.8-0.7,1.6-1,2.5c-3,8.1-5.9,16.1-8.9,24.2c-0.1,0.4-0.3,0.8-0.4,1.2
		c-1.4,0.3-2.7,0.4-4,0.1c-2-0.4-4-0.5-6.1,0c-0.3,0.1-0.5,0-0.8,0.1c-0.3-1.1-0.2-2-0.2-3c0.2-6.2,0.4-12.4,1-18.6
		c0.1-1.2,0.4-2.4,1.3-3.3c0.2-0.2,0.3-0.3,0.4-0.5c1.5-1.9,2.5-4,3-6.3c0.2-0.7,0.2-1.5,0.2-2.3c-0.1-2.7-1.4-4.8-3.5-6.3
		c-1.1-0.8-2.1-1.7-2.8-2.9c-0.8-1.2-1.9-1.9-3.3-2.2c-1.8-0.4-3.5-0.3-5.2,0.1c-2.4,0.6-4.8,1.1-7.2,1.7c-0.6,0.1-1.3,0.1-2.1,0.2
		c0.1-0.4,0.2-0.7,0.3-1c2.3-7.9,4.6-15.7,6.8-23.6c0.5-1.7,0.8-3.4,1-5.2c0.2-1.9,0-2.2-1.6-3.3c0.3-0.6,0.6-1.3,0.9-1.9
		c3.3,0.9,6,0.1,8.5-2c1.3-1.1,2.2-2.6,2.8-4.2c0.7-1.8,1-3.8,1.1-5.7c0-3.8,0-7.5-0.1-11.3c0-0.8-0.1-1.5-0.3-2.3
		c-0.3-1-1-1.2-1.9-0.7c-0.2,0.1-0.3,0.2-0.5,0.3c-2.7,2.1-5.3,4.2-8,6.2c-2.8,2.1-4.9,4.7-6.1,8c-1.2,3.5-0.9,6.6,1.3,9.5
		c0.2,0.2,0.3,0.4,0.2,0.7c-0.3,0.9-0.5,1.8-0.7,2.6c-0.1,0.1-0.1,0.1-0.2,0.1c-0.2,0-0.4,0-0.5,0.1c-1.7,0.2-3,1-3.7,2.6
		c-0.3,0.7-0.6,1.4-0.8,2.1c-3,8.7-6,17.3-9,26c-0.1,0.3-0.2,0.6-0.3,0.9c-0.3-0.1-0.4-0.1-0.6-0.2c-2-0.5-3.9-1.1-5.9-1.6
		c-3.5-0.9-7.1-1.1-10.7-0.5c-2.1,0.4-4.2,0.7-6.4,1c-0.7,0.1-1.5,0.2-2.3,0.3c0-0.3-0.1-0.5-0.1-0.6c-0.1-6.6-0.2-13.2-0.1-19.9
		c0-7.5,0-15-0.6-22.4c-0.1-1.3-0.4-2.7-0.7-4c-0.2-1-1-1.6-2-1.7c-0.4,0-0.7-0.1-1.1-0.2c0.1-1.2,0.2-2.4,0.3-3.5
		c0.7-0.2,1.4-0.3,2-0.5c2.5-1,4.3-2.7,4.8-5.5c0.2-1.2,0-2.3-0.5-3.3c-0.7-1.6-1.4-3.2-2.1-4.7c-1.3-2.7-2.3-5.4-2.7-8.4
		c0-0.3-0.1-0.6-0.2-0.9c-0.3-0.6-0.8-0.7-1.4-0.3c-0.2,0.1-0.3,0.3-0.5,0.5c-1.4,2-2.9,3.9-4.2,5.9c-1.7,2.7-2.6,5.8-2.4,9.1
		c0.2,3.2,1.4,5.8,4.2,7.5c0.1,0,0.1,0.1,0.2,0.2c-0.1,1.5-0.3,2.9-0.4,4.4c-0.2,0.1-0.4,0.1-0.5,0.1c-1.6,0.5-2.2,1.2-2.3,2.9
		c0,0.7-0.1,1.4-0.1,2c-0.1,6.4-0.2,12.9-0.1,19.3c0.1,6.9,0.3,13.9,0.4,20.8c0,0.9,0,1.8,0,2.8c-0.3,0-0.6-0.1-0.9-0.1
		c-1-0.1-1.9-0.2-2.9-0.3c-3.8-0.3-7.6,0.3-11.4,0.6c-2.7,0.3-5.4,0.4-8.1,0.3c-0.3,0-0.6-0.1-0.9-0.1c-0.1-0.2-0.1-0.4-0.1-0.5
		c-1.1-5.4-2.2-10.8-3.3-16.2c-0.8-3.7-1.5-7.5-2.8-11.1c-0.4-1.1-0.8-2.2-1.4-3.3c-0.5-1.1-1.5-1.5-2.7-1.4c-0.5,0.1-1,0.1-1.5,0.2
		c-0.3-1.1-0.5-2.1-0.7-3.1c0.3-0.2,0.5-0.4,0.7-0.5c1.6-1.3,2.5-2.9,2.4-5c-0.1-1.7-0.6-3.3-1.4-4.8c-0.6-1.3-1.4-2.6-2-3.8
		c-0.9-1.8-1.7-3.6-2-5.6c-0.1-0.3-0.1-0.7-0.2-1c-0.3-0.9-1.1-1.1-1.8-0.6c-0.2,0.2-0.5,0.4-0.7,0.6c-0.3,0.4-0.7,0.9-0.9,1.4
		c-1.9,4-3.1,8.1-3.3,12.5c-0.1,1.6,0.1,3.2,0.8,4.7c0.7,1.6,1.9,2.5,3.6,2.9c0.6,0.1,1.2,0.2,1.9,0.3c0.2,1,0.4,2,0.6,3
		c-1.7,0.7-2.1,1.9-1.8,3.5c0.3,1.7,0.6,3.4,1,5.1c1.6,7.1,3.1,14.2,4.7,21.4c0,0.2,0.1,0.4,0.1,0.7c-0.3,0-0.5,0.1-0.8,0.1
		c-2,0.1-3.9,0.2-5.9,0.2c-2.5,0-5,0-7.5-0.1c-2.1,0-4.2-0.2-6.3,0c-3.2,0.2-5.3,2-6.1,4.8c-0.4,1.4,0,2.5,1,3.4
		c0.8,0.7,1.8,1.1,2.8,1.3c0.3,0.1,0.7,0.1,1.1,0.2c0,0.6,0.1,1.2,0.1,1.8c0.1,1.7,0.1,3.4,0.2,5.1c0.2,2.5,0.4,5,0.6,7.6
		c0.2,3,0.5,6,0.7,8.9c0.2,2.6,0.4,5.2,0.6,7.7c0.3,4.6,0.8,9.2,1.6,13.8c0.2,0.9,0.3,1.9,0.5,2.8c-1.4,0.2-2.8,0.1-3.9,0.9
		c-1.1,0.7-2.1,1.6-3.1,2.4c-0.1-0.3-0.2-0.5-0.2-0.8c-1.7-5.9-3.3-11.9-5-17.8c-0.5-1.9-1.2-3.8-2.1-5.6c-0.7-1.3-1.6-2.1-3.2-1.9
		c0,0-0.1,0-0.2-0.1c-0.5-1.3-0.9-2.5-1.4-3.8c0.2-0.1,0.3-0.2,0.4-0.3c1.7-1.4,2.6-4.2,2.2-6.4c-0.2-1.2-0.8-2.3-1.5-3.4
		c-2.4-3.7-5.6-6.6-9-9.2c-0.3-0.2-0.6-0.4-0.9-0.6c-0.2-0.1-0.4-0.2-0.6-0.3c-0.8-0.3-1.3,0-1.6,0.8c-0.1,0.4-0.1,0.8-0.1,1.2
		c0,1.9,0,3.8-0.1,5.6c0,1.7-0.1,3.4-0.1,5.1c0,2.3,0.7,4.3,2.2,6c1,1.2,2.3,2,3.9,2.2c0.8,0.1,1.6,0.1,2.5,0.2c0.5,1.3,1,2.6,1.5,4
		c-0.2,0.2-0.4,0.4-0.6,0.5c-1.1,1-1.6,2.2-1.2,3.7c0.2,1,0.4,1.9,0.7,2.9c2.1,6.7,4.1,13.5,6.2,20.2c0.1,0.3,0.2,0.6,0.3,1
		c-1-0.1-1.8-0.2-2.7-0.3c-3.1-0.3-6,0.2-8.3,2.6c-0.8,0.8-1.9,1.5-2.9,2.2c-0.6,0.5-1.3,0.9-2,1.4c-2.7,2.1-2.8,7.3,1.6,8.8
		c0.5,0.2,1,0.3,1.4,0.6c1.5,0.9,3.1,1.6,5,1.1c0.1,0.4,0.3,0.7,0.3,1c0.5,1.9,1.1,3.8,1.4,5.7c0.9,4.7,1.7,9.4,2.6,14.1
		c0.2,1.3,0.5,2.6,0.6,3.9c0.2,1.2-0.1,1.4-1.3,1.4c-0.8,0-1.5,0-2.3-0.1c-1.9-0.2-3.6,0.2-5.2,1.3c-2.1,1.4-4.5,2.3-7,2.7
		c-1.2,0.2-2.3,0.6-3.2,1.3c-2.7,1.9-3.3,6.5,0.2,8.7c0.6,0.4,1.4,0.7,2.1,0.9c1.4,0.5,2.8,0.5,4.3,0.5c0.5,0,1.1,0.1,1.6,0.1
		c0.1,0.2,0.1,0.3,0.1,0.4c1.4,7.9,2.8,15.8,4.1,23.7c1.4,8,2.8,16.1,4.1,24.1c1.7,10.2,3.7,20.3,6.1,30.3c0.6,2.6,1.3,5.3,2.4,7.8
		c1.2,2.7,3,5,5.5,6.6c1.2,0.8,2.3,1.5,3.6,2.1c3.2,1.6,6.6,2.8,10.1,3.7c3.5,0.9,7.1,1.6,10.7,2.3c4.4,0.8,8.8,1.6,13.3,2.3
		c5,0.8,10,1.3,15,1.6c4.7,0.3,9.4,0.5,14,0.3c4-0.1,7.9-0.3,11.9-0.5c3.4-0.2,6.8-0.4,10.1-0.8c5.7-0.7,11.4-1.4,17.1-2.6
		c4.6-0.9,9.2-2,13.7-3.5c2.9-1,5.7-2.2,8.5-3.3c1.2-0.5,2.4-1.1,3.5-1.7c2.4-1.3,4.1-3.2,5.2-5.7c0.5-1.1,1-2.2,1.3-3.4
		c2.1-7,3.8-14.1,5.3-21.3c1.5-7.2,2.9-14.4,3.9-21.7c0.6-4.3,1.2-8.5,1.8-12.8c0.4-2.8,0.7-5.6,1.1-8.3c0.1-0.9,0.5-1.7,1.1-2.4
		c0.5-0.5,1-1,1.4-1.6c1.3-1.5,2.2-3.1,2.7-5c1.4-5-2.5-8.7-5.8-9.2c-0.9-0.1-1.8-0.1-2.8-0.1c-1.6,0.1-3.1-0.2-4.3-1.2
		c-0.3-0.3-0.7-0.5-1-0.7c-2.2-1.3-4.5-2.1-7.1-1.9c-0.1,0-0.3,0-0.6-0.1c0-0.8-0.2-1.6-0.1-2.4c0.2-3.3,0.4-6.6,0.6-9.9
		c0.3-3.6,0.7-7.1,1-10.7c0.4-4.2,0.9-8.4,1.4-12.6c0.5-4.4,1.1-8.8,1.6-13.2c0.2-1.8,0.5-3.6,0.7-5.4c0.1-1,0.5-1.8,1.7-2.1
		c0.4-0.1,0.8-0.3,1.2-0.5c2.6-1.2,4.1-3.2,4.8-6c0.6-2.5,0-4.5-2.1-6c-0.1-0.1-0.3-0.2-0.4-0.4c0.1-0.3,0.2-0.6,0.2-0.8
		c0.9-2.6,1.8-5.2,2.7-7.9c1.8-5.4,3.7-10.7,5.5-16.1c0.4-1.1,0.5-2.2,0.7-3.3c0.2-1.6-0.3-2.9-1.7-3.8c0,0-0.1-0.1-0.1-0.2
		c0.3-0.8,0.6-1.7,0.9-2.4c1.2-0.3,2.2-0.6,3.3-0.9c3.4-1,5.6-3.2,6.4-6.7C314,144,314.1,139.6,313.6,135.1z M270.6,225.9
		c1.3,0.9,1.5,2.5,0.3,3.6c-0.8,0.8-1.9,1.3-3.1,1.3c-1.2,0-2.3,0-3.5-0.2c-2.5-0.4-4.9-1-7.1-2.1c-0.3-0.1-0.6-0.3-0.9-0.5
		c-1-0.8-1-2.2,0.2-2.8c0.6-0.3,1.2-0.4,1.8-0.5c0.7-0.1,1.5-0.1,2.2-0.2c0,0,0,0,0-0.1c1.6,0,3.2-0.1,4.8,0
		c1.3,0.1,2.5,0.3,3.8,0.6C269.7,225.4,270.2,225.6,270.6,225.9z M265.8,239.6c0,1.2-1.1,2.1-2.4,1.9c-0.8-0.1-1.7-0.4-2.4-0.8
		c-1.7-0.8-3.2-2-4.6-3.3c-0.9-0.8-1.7-1.8-2.5-2.7c-0.6-0.6-0.6-1.3-0.3-1.8c0.4-0.6,1.2-0.9,1.9-0.5c2.8,1.5,5.9,2.5,8.4,4.5
		c0.5,0.4,0.9,0.8,1.3,1.2C265.6,238.6,265.8,239.1,265.8,239.6z M260.2,212.2c0.9-0.7,1.9-1.3,2.8-1.9c0.8-0.5,1.8-0.7,2.8-0.5
		c1,0.2,1.8,1.1,1.8,2.4c-0.1,0.3-0.2,0.8-0.5,1.3c-0.4,0.6-0.9,1.1-1.4,1.6c-0.9,0.8-1.9,1.5-2.9,2.1c-2,1.1-4,2.1-6,3
		c-1,0.5-1.7,0.3-2.2-0.3c-0.5-0.6-0.4-1.4,0.3-2.2C256.5,215.8,258.1,213.7,260.2,212.2z M242.1,163.7c0.3-2.5,2.3-2.7,3.8-2.2
		c0.7,0.2,1.1,0.7,1.2,1.4c0.1,0.4,0.1,0.9,0.1,1.4c0.1,4,0.1,8,0.1,12c0,1.4,0,2.8,0,4.3c1.9,0,3.7,0,5.5,0c0-0.3,0-0.6,0-0.9
		c0-4.4,0-8.8,0.1-13.2c0-1,0-1.9,0.1-2.9c0-0.4,0.2-0.9,0.4-1.3c0.4-0.8,1.2-1.2,2.1-1c0.3,0,0.5,0.1,0.8,0.2
		c1.1,0.3,1.7,0.9,1.8,2.1c0.1,1.8,0.2,3.5,0.2,5.3c0,4.2-0.1,8.4,0,12.6c0,2.4,0.2,4.7,0.3,7.1c0,0.7,0,1.5-0.1,2.2
		c-0.1,0.5-0.4,1-0.9,1.2c-1,0.4-2,0.6-3.1,0.2c-0.9-0.3-1.4-0.9-1.4-1.9c-0.1-1.9-0.1-3.8-0.2-5.7c0-0.3,0-0.7,0-1
		c-1.8,0-3.5,0-5.3,0c0,0.3,0,0.7,0,1.1c0,1.4,0.1,2.9,0.1,4.3c0,1-0.5,1.6-1.6,1.7c-0.7,0.1-1.5,0-2.2-0.1
		c-1.2-0.2-1.7-0.9-1.8-2.1c0-0.9,0-1.7,0-2.6c0-5.1-0.1-10.2-0.1-15.2c0-1.2-0.2-2.4-0.2-3.6C242,165.8,242,164.7,242.1,163.7z
		 M228.4,162.9c1.2-1.4,2.8-2.3,4.7-1.6c2.5,0.8,4.1,2.6,4.9,5c0.1,0.3,0.1,0.6,0,0.9c-0.2,0.7-0.8,1-1.4,0.7
		c-0.4-0.2-0.7-0.4-1-0.7c-0.7-0.5-1.3-1.1-2-1.7c-0.3-0.2-0.6-0.3-1-0.6c-0.3,0.6-0.2,1.1-0.1,1.5c0.5,1.7,1.3,3.3,2.3,4.8
		c1.3,2,2.5,4.2,3.4,6.4c0.8,1.8,1.3,3.6,1.3,5.5c0.1,2.1-0.7,3.9-2.2,5.4c-1.4,1.3-3,1.9-4.9,1.5c-1.7-0.4-3.5-2.3-3.8-4
		c-0.1-0.5,0.1-0.9,0.4-1.1c0.5-0.2,0.8,0,1.2,0.3c0.4,0.4,0.8,0.9,1.3,1.3c1.2,1,2.2,0.6,2.4-1c0.4-2.2,0-4.3-1-6.4
		c-1.1-2.3-2.7-4.3-4.2-6.4c-0.4-0.5-0.7-1-1-1.5C226.2,168.6,226.4,165.3,228.4,162.9z M226.2,204.9c0.1-0.8,0.6-1.2,1.2-1.5
		c1.3-0.4,2.6-0.4,3.8,0c1,0.3,1.6,1.1,1.8,2.1c0.3,1.2,0.6,2.4,0.7,3.6c0.4,4.8,0.4,9.7,0.3,14.5c-0.1,3.2-0.1,6.5,0,9.7
		c0.1,2.3,0.3,4.7,0.9,6.9c0.2,0.6,0.2,0.7,0.8,1.1c0.6-0.3,0.8-0.9,1-1.5c0.4-1.4,0.8-2.9,1.1-4.4c0.6-3.4,0.8-6.8,0.8-10.2
		c0-5.5,0-11,0-16.4c0-0.8,0-1.5,0-2.3c0-0.3,0-0.6,0.1-0.8c0.2-0.8,0.7-1.2,1.4-1.2c0.7,0,1.4,0.4,1.5,1.2c0.1,0.7,0.2,1.4,0.2,2.1
		c0.1,2.1,0.2,4.2,0.2,6.3c0,4.3,0.1,8.6,0,12.9c-0.1,3.8-0.4,7.6-1.4,11.2c-0.3,1.2-0.8,2.4-1.4,3.6c-0.3,0.6-0.7,1.2-1.1,1.7
		c-1.5,1.8-3.7,2.2-5.7,1.1c-1.4-0.8-2.5-1.9-3.3-3.3c-1-1.7-1.7-3.6-2-5.5c-0.4-2.4-0.7-4.9-0.9-7.3c-0.4-5.7-0.6-11.4-0.6-17.2
		C225.7,209.1,225.8,207,226.2,204.9z M224.9,273.6c0.7-2,1.1-4,1.3-6.1c0.2-2.5,0.3-5,0.4-7.5c0-0.7,0-1.5,0.1-2.2
		c0.2-1.2,1.2-1.6,2.1-0.8c0.4,0.4,0.7,0.8,1.1,1.2c0.3,0.3,0.5,0.7,0.9,1.1c0.2-0.4,0.3-0.6,0.4-0.8c0.6-1.5,1.6-2.8,2.9-3.8
		c1.5-1.1,3.1-1.4,4.8-0.5c1.7,0.8,2.6,2.2,2.7,4.1c0,0.7,0,1.4-0.2,2.1c-0.6,2.6-2.4,3.9-5.1,4c-0.2,0-0.4,0-0.7,0c0,0.5,0,1,0,1.5
		c0.2,3.3,1.2,6.3,2.9,9c0.2,0.4,0.5,0.7,0.8,1c0.4,0.4,0.7,0.4,1.2,0.1c0.3-0.2,0.5-0.4,0.7-0.7c1.2-1.5,1.9-3.3,2.3-5.2
		c0.1-0.4,0-0.9-0.1-1.4c-0.4-3.3,0-6.6,1.2-9.7c0.6-1.6,1.6-3,3.2-4c2.2-1.4,4.2-1,5.7,1c1.1,1.4,1.4,3,0.9,4.8
		c-0.8,2.6-2.5,4.3-5.2,5c-0.1,0-0.2,0.1-0.4,0.1c-0.1,0-0.1,0.1-0.2,0.1c-0.1,2.8,0.4,5.5,2.3,7.8c0.8,1,1.8,1.1,2.8,0.2
		c0.7-0.6,1.3-1.3,1.7-2c1.1-1.8,2-3.7,3-5.5c0.1-0.2,0.1-0.5,0.1-0.8c-0.3-3.7-0.1-7.3,0.2-11c0.1-0.8,0.1-1.6,0.2-2.4
		c-1.3-0.6-2.7-0.8-4.1-0.8c-0.5,0-0.9,0-1.4,0c-0.5-0.1-0.9-0.4-0.9-0.8c0-0.5,0.2-0.8,0.6-0.9c0.5-0.2,1.1-0.5,1.7-0.5
		c1.2-0.1,2.3,0,3.5,0.1c0.3,0,0.5,0.1,0.8,0.1c0.1-0.3,0.1-0.6,0.2-0.8c0.1-0.4,0.2-0.8,0.4-1.2c0.4-0.8,1.1-1.3,2.1-1.3
		c1,0,1.7,0.6,2,1.4c0.3,0.7,0.3,1.6,0.5,2.3c0,0.3,0,0.5,0.1,0.9c1.9,0.5,3.8,0.5,5.6-0.2c0.6-0.2,1.2-0.4,1.8-0.6
		c0.5-0.1,0.9,0.1,1.1,0.5c0.2,0.4,0,0.9-0.5,1.1c-1.8,0.9-3.6,1.8-5.6,1.9c-0.8,0-1.6,0-2.5,0c-0.1,0.6-0.1,1.2-0.2,1.8
		c-0.2,3-0.4,6-0.2,9c0.2,2.9,0.8,5.7,1.9,8.4c0.3,0.7,0.7,1.4,1.2,2.1c0.7,0.9,1.1,1,2,0.2c0.7-0.7,1.4-1.5,1.9-2.3
		c0.8-1.4,1.5-2.8,2.3-4.2c0.6-1.2,1.1-2.3,1.7-3.5c0.1-0.3,0.3-0.6,0.5-0.9c0.2-0.2,0.5-0.3,0.7-0.2c0.2,0,0.4,0.3,0.4,0.5
		c0,0.3,0,0.7-0.2,1c-0.4,1-0.7,1.9-1.1,2.8c-0.5,1.4-1,2.8-1.6,4.1c-0.6,1.3-1.3,2.5-2.1,3.7c-0.5,0.7-1.1,1.4-1.8,1.9
		c-1.3,1-2.7,1.1-4.2,0.4c-0.8-0.4-1.6-1-2.2-1.6c-1.9-1.7-3.1-3.9-3.7-6.4c-0.1-0.3-0.2-0.6-0.3-1c-0.1,0-0.1,0-0.2,0
		c-0.4,0.9-0.8,1.8-1.2,2.7c-0.6,1.4-1.3,2.8-2.3,4c-1.3,1.6-3,2.4-5.1,2.2c-1.8-0.1-3.2-1-4.3-2.4c-0.5-0.7-0.9-1.4-1.4-2.2
		c-0.2-0.3-0.3-0.6-0.5-1c-0.1,0.4-0.2,0.7-0.3,1c-0.5,1.6-1.1,3.1-2.3,4.3c-1.3,1.3-2.8,1.6-4.5,1c-0.5-0.2-1-0.5-1.5-0.8
		c-1.7-1.1-2.8-2.7-3.7-4.5c-0.9-1.9-1.4-3.8-1.6-5.8c-0.3-1.8-0.5-3.7-0.2-5.5c0-0.4,0-0.7-0.3-0.9c-0.5-0.4-1-0.8-1.5-1.2
		c0,0,0,0.2,0,0.3c-0.1,2.4-0.1,4.8-0.2,7.2c-0.1,2.4-0.3,4.8-0.9,7.1c-0.2,0.9-0.6,1.8-1.1,2.6c-0.9,1.6-2.4,2.1-4.1,1.6
		c-1.9-0.5-3.1-1.8-3.8-3.5c-0.6-1.4-0.9-2.8-1.3-4.2c-0.2-0.8-0.3-1.7-0.5-2.8c-0.1,0.5-0.2,0.7-0.3,1c-0.5,1.5-1,3-1.5,4.5
		c-0.2,0.5-0.4,1-0.7,1.4c-1.1,1.7-2.9,2.1-4.7,1.3c-1.4-0.6-2.3-1.7-3-3c-0.9-1.6-1.3-3.3-1.5-5.1c-0.2-2.1-0.3-4.3-0.4-6.5
		c0-0.4-0.1-0.9-0.1-1.5c-1.9,1.3-3.3,3-4.9,4.5c0.2,0.3,0.3,0.5,0.4,0.7c1.6,2.9,1.7,5.8,0.5,8.8c-0.6,1.5-1.6,2.7-3.1,3.5
		c-1.9,1.1-3.9,1.8-6.1,1.5c-2.8-0.4-4.3-3-3.2-5.5c0.3-0.7,0.8-1.5,1.4-2.1c1.3-1.3,2.7-2.6,4.1-3.8c0.3-0.3,0.6-0.5,1-0.8
		c-0.5-0.4-1-0.7-1.4-1c-1.8-1.4-3.7-2.8-5.5-4.2c-1.4-1.1-2.4-2.5-3-4.2c-0.4-1.1-0.6-2.1-0.4-3.3c0.4-2.7,3-4.6,5.1-5
		c2.3-0.4,4.3,0.3,6,2c0.4,0.4,0.6,0.9,0.9,1.4c0.1,0.3,0.1,0.7-0.3,0.9c-0.3,0.2-0.6,0.1-0.9-0.1c-0.8-0.6-1.6-1.1-2.5-1.3
		c-0.8-0.2-1.6,0-2.3,0.5c-0.8,0.5-1.1,1.5-0.7,2.6c0.2,0.8,0.7,1.5,1.3,2.1c0.7,0.6,1.5,1.2,2.2,1.8c0.9,0.7,1.9,1.4,2.9,2.2
		c0.9,0.7,1.8,1.5,2.7,2.3c0.2-0.1,0.4-0.3,0.5-0.4c1.1-1.2,2.3-2.4,3.4-3.6c0.6-0.6,1-1.4,1.4-2.2c1-2.2,3.6-2.2,4.8-0.3
		c0.7,1,0.9,2.2,1,3.4c0.2,1.7,0.3,3.4,0.3,5.2c0.1,2.1,0.5,4.2,1.3,6.2c0.2,0.4,0.4,0.8,0.6,1.3c0.7-0.4,1.1-1.1,1.4-1.7
		c1.2-2.1,2-4.4,2.6-6.7c0.3-1.1,0.5-2.2,0.4-3.4c-0.1-1.3,0-2.6,0-3.9c0.1-1.4,1.1-2.5,2.4-2.4c1.1,0,1.9,0.6,2.3,1.6
		c0.3,0.8,0.5,1.6,0.5,2.4c0.2,2.4,0.2,4.9,0.4,7.3c0.2,2.5,0.5,4.9,1.6,7.2c0.2,0.3,0.3,0.6,0.6,1.1
		C224.4,274.7,224.7,274.1,224.9,273.6z M218.3,163.2c0.1-0.8,0.5-1.4,1.2-1.8c1.8-1,3.6,0,3.7,2c0.1,5.2,0.2,10.3,0.3,15.5
		c0.1,2.6,0.1,5.2,0.1,7.8c0,0,0.1,0,0.1,0c-0.1,0.7-0.1,1.4-0.2,2c-0.2,1.3-0.8,1.9-2,1.9c-1.4,0-2.3-0.7-2.4-2
		c-0.2-2-0.3-4-0.4-6.1c-0.2-5.4-0.3-10.9-0.4-16.3C218.2,165.2,218.2,164.2,218.3,163.2z M217.8,205.2c0.8,0.7,1.4,1.6,1.9,2.5
		c0.7,1.3,1.2,2.6,1.7,4c0.9,2.6,1.2,5.4,1.5,8.2c0.2,1.6,0.2,3.2,0.3,4c0,4.6-0.4,8.5-1.5,12.2c-0.5,1.8-1.4,3.5-2.5,5
		c-2.3,2.9-5.4,2.9-7.9,1.5c-1.2-0.7-2.1-1.7-3-2.7c-2-2.6-3.3-5.6-3.9-8.9c-1.3-6.9-0.6-13.7,1.7-20.3c0.7-2.1,1.8-4,3.5-5.5
		C212,202.9,215.3,202.9,217.8,205.2z M186.2,161c0.8-0.5,1.6-0.6,2.5-0.5c0.6,0.1,1.1,0.4,1.4,1c0.3,0.6,0.6,1.2,0.8,1.8
		c2,4.9,3.6,10,5.3,15.1c0.5,1.5,1,3,1.5,4.5c0,0.1,0.1,0.2,0.2,0.5c0.1-0.5,0.3-0.8,0.3-1.1c0.7-3.3,1.3-6.6,2.1-9.9
		c0.4-2,0.9-4,1.5-6c0.4-1.5,2.1-2.2,3.4-1.6c0.6,0.2,1.1,0.7,1.3,1.2c0.3,0.6,0.6,1.2,0.7,1.9c0.6,2.4,1.1,4.7,1.7,7.1
		c0.5,2.2,1.1,4.5,1.6,6.7c0.1,0,0.2,0,0.2,0c0.1-0.9,0.3-1.8,0.4-2.7c0.5-4.2,1-8.3,1.5-12.5c0.1-0.9,0.3-1.8,0.6-2.7
		c0.1-0.4,0.3-0.8,0.5-1.2c0.3-0.5,0.7-0.8,1.3-0.7c0.6,0.1,1,0.4,1.1,1c0.1,0.4,0.2,0.9,0.2,1.3c-0.2,1.8-0.3,3.7-0.6,5.5
		c-0.5,3.5-0.9,7.1-1.4,10.6c-0.4,2.8-1,5.6-1.5,8.4c-0.1,0.4-0.2,0.8-0.4,1.2c-0.4,1-1.2,1.5-2.4,1.4c-1.2,0-1.8-0.5-2.2-1.6
		c-0.5-1.5-1-3-1.4-4.5c-1-3.4-1.8-6.9-2.8-10.3c-0.1-0.2-0.1-0.4-0.3-0.8c-0.4,2-0.8,3.7-1.2,5.5c-0.8,3.3-1.6,6.5-2.8,9.7
		c-0.1,0.4-0.3,0.7-0.5,1.1c-0.7,1.6-2.6,1.9-3.9,1.1c-0.3-0.2-0.6-0.6-0.7-0.9c-0.7-1.6-1.4-3.2-1.9-4.9c-1.6-4.7-3.1-9.3-4.6-14
		c-0.7-2.2-1.4-4.3-2.1-6.5c-0.2-0.6-0.3-1.2-0.4-1.8C185.1,162.2,185.5,161.5,186.2,161z M179.4,204.3c1.3-0.6,2.7-0.7,4.1-0.5
		c0.8,0.1,1.4,0.6,1.8,1.2c0.5,0.7,1,1.5,1.5,2.2c2.3,3.6,4.7,7.3,7,10.9c0.1,0.2,0.3,0.5,0.5,0.8c0.3-0.6,0.6-1,0.9-1.5
		c2.2-3.9,4.2-7.9,5.8-12.2c0.1-0.4,0.3-0.7,0.4-1.1c0.2-0.4,0.5-0.7,1-0.7c0.5,0,0.8,0.2,1.1,0.6c0.3,0.5,0.4,1.1,0.3,1.7
		c-0.2,0.7-0.4,1.4-0.6,2.1c-1,2.7-2.2,5.3-3.6,7.9c-0.6,1.1-1.2,2.3-1.8,3.4c-0.6,1.3-0.9,2.6-0.8,4c0.1,4.8,0.1,9.5,0.2,14.3
		c0,1.4-0.1,2.8-0.2,4.2c0,0.8-0.5,1.2-1.2,1.5c-1,0.3-2,0.4-3,0.3c-1.7-0.2-2.7-1-3-2.7c-0.3-1.9-0.5-3.9-0.6-5.9
		c-0.2-2.9-0.3-5.8-0.5-8.8c0-0.7-0.1-1.4,0-2.1c0-0.5-0.1-0.9-0.4-1.4c-2.3-3.1-4.4-6.3-6.3-9.6c-0.9-1.5-1.8-3-2.6-4.6
		c-0.3-0.6-0.6-1.4-0.8-2.1C178.2,205.4,178.6,204.7,179.4,204.3z M169.5,163.6c0.1-1.5,0.9-2.1,2.3-2.1c0.5,0,1,0,1.6,0.1
		c1.3,0.2,2,1,2.1,2.3c0.2,2.2,0.3,4.4,0.4,6.5c0.2,3.6,0.5,7.2,0.7,10.8c0.1,1.4,0,2.8,0,4.2c0,0,0.1,0,0.1,0c0,1.3,0,2.6,0,3.9
		c0,0.9-0.3,1.4-1.1,1.8c-1.1,0.5-2.1,0.5-3.2,0.3c-0.8-0.2-1.3-0.7-1.5-1.5c-0.2-0.6-0.3-1.3-0.4-1.9c-0.2-2.2-0.3-4.4-0.4-6.5
		c-0.1-3.7-0.2-7.3-0.3-11c-0.1-1.7-0.2-3.4-0.3-5.2C169.5,164.8,169.5,164.2,169.5,163.6z M162.4,208.4c0.3,0.1,0.9,0.2,1.4,0.4
		c0.9,0.5,1.9,1.1,2.7,1.8c2.6,2.2,4.9,4.7,7.1,7.3c0.1,0.2,0.3,0.3,0.4,0.5c0.3,0.7-0.2,1.3-0.9,1.2c-0.4,0-0.7-0.1-1.1-0.3
		c-3-1.4-5.9-3-8.5-4.9c-0.7-0.5-1.4-1.2-2-1.9c-0.5-0.6-0.8-1.2-1-1.9C160,209.4,160.8,208.4,162.4,208.4z M172.9,233.1
		c-0.6,0.6-1.2,1.2-1.8,1.8c-1.6,1.6-3.3,2.9-5.2,4.1c-1.1,0.6-2.2,1.1-3.4,1.4c-0.3,0.1-0.5,0.1-0.7,0.1c-1.2,0-1.9-0.7-1.9-1.7
		c0-0.8,0.4-1.4,0.9-2c1.2-1.3,2.5-2.3,4.1-3.1c1-0.5,2.1-1,3.2-1.5c0.9-0.4,1.8-0.8,2.8-1.2c0.2-0.1,0.3-0.2,0.5-0.2
		c0.7-0.2,1.4,0,1.8,0.6C173.5,231.9,173.4,232.6,172.9,233.1z M157.4,222.3c1.1-0.5,2.3-0.6,3.4-0.6c2.5-0.2,4.9,0.3,7.3,1
		c0.8,0.2,1.7,0.5,2.5,0.7c0.2,0.1,0.4,0.1,0.5,0.2c0.5,0.2,0.9,0.6,0.9,1.2c0,0.5-0.3,0.9-0.9,1.1c-0.5,0.2-1.1,0.3-1.6,0.4
		c-1.7,0.2-3.4,0.3-5.1,0.5c-1.9,0-3.7-0.2-5.5-0.7c-0.5-0.1-1.1-0.3-1.6-0.6c-0.7-0.3-1.1-0.9-1.1-1.7
		C156.1,223.1,156.7,222.6,157.4,222.3z M149,258.4c0.7-2.1,2-3.8,3.8-5c2.5-1.6,5-1.8,7.6-0.3c0.1,0,0.2,0.1,0.3,0.1
		c0.2-0.2,0.3-0.4,0.5-0.6c1-1.1,2.5-1.1,3.4,0.1c0.6,0.8,0.8,1.7,0.8,2.6c0.1,1.4,0.1,2.7,0.1,4.1c0,2.1,0,4.1,0.1,6.2
		c0,2.3,0.7,4.5,1.6,6.6c0.1,0.3,0.3,0.5,0.4,0.7c0.6,0.8,1,0.9,1.7,0.2c0.3-0.4,0.6-0.8,0.9-1.3c0.7-1.3,1.3-2.6,2-3.9
		c0.2-0.3,0.3-0.6,0.6-0.8c0.2-0.3,0.6-0.3,0.9-0.2c0.3,0.2,0.5,0.5,0.4,0.8c0,0.2-0.1,0.4-0.1,0.5c-0.6,1.6-1.1,3.2-1.8,4.8
		c-0.4,1-1,1.8-1.8,2.5c-1.3,1.2-2.8,1.5-4.5,0.9c-2-0.7-3.3-2.1-4.2-3.9c-0.1-0.3-0.2-0.5-0.4-0.9c-0.2,0.2-0.3,0.3-0.4,0.5
		c-0.6,0.9-1.2,1.9-2,2.7c-1.7,1.9-3.8,2.1-5.9,0.7c-1.5-0.9-2.5-2.2-3.3-3.8C147.6,267.5,147.3,263,149,258.4z M176.7,345.6
		c-0.3,1.9-1.4,3.2-3.1,4c-1.8,1-3.8,1.3-5.9,1.4c-0.7,0-1.4,0-2,0c-1.4,0-2-0.5-2.2-1.8c-0.2-1.8-0.5-3.7-0.5-5.5
		c-0.2-5.9-0.3-11.9-0.4-17.8c0-0.5-0.1-1-0.1-1.5c0-0.9,0.3-1.5,1.1-1.8c0.6-0.2,1.3-0.4,2-0.4c1.9-0.1,3.7,0.3,5.4,1.1
		c2.2,1,3.6,2.8,4.1,5.1c0.4,1.8,0,3.3-1.2,4.7c-1.1,1.3-2.4,2.2-3.9,2.8c-0.3,0.1-0.5,0.2-0.7,0.3c0,0,0,0.1,0,0.1
		c0.7,0.2,1.4,0.4,2.1,0.7c1.1,0.4,2.2,0.9,3,1.7C176.3,340.7,177.2,342.9,176.7,345.6z M181.5,351.2c-0.2,0-0.4,0-0.6-0.1
		c-1.1-0.2-1.5-0.5-1.7-1.7c-0.2-1.4-0.2-2.9-0.3-4.3c-0.4-7-0.9-14.1-0.7-21.1c0-0.2,0-0.5,0-0.7c0.1-0.7,0.4-1,1.1-1
		c0.3,0,0.7,0,1,0c1-0.1,1.6,0.2,1.8,1.2c0.2,0.9,0.4,1.8,0.4,2.7c0.1,1.6,0.2,3.2,0.2,4.8c0.1,2.6,0.2,5.1,0.4,7.7c0,0,0,0,0,0
		c0.2,3.4,0.3,6.9,0.5,10.3C183.7,350.6,183.1,351.3,181.5,351.2z M200.6,350.3c-1,0.4-1.9,0.2-2.8-0.3c-1.3-0.7-2.3-1.8-3-3.1
		c-0.7-1.3-1.4-2.6-2.1-3.9c-0.4-0.6-0.8-1.3-1.2-1.9c-0.1-0.1-0.2-0.2-0.5-0.5c-0.1,0.9-0.1,1.6,0,2.4c0.1,2.1,0.3,4.2,0.3,6.3
		c0.1,1.3-0.5,1.9-1.8,1.9c-0.2,0-0.3,0-0.5,0c-1.5-0.1-2-0.4-2.1-2c-0.2-2.4-0.4-4.8-0.6-7.3c-0.3-3.8-0.4-7.7-0.4-11.5
		c0-1.7-0.1-3.4-0.1-5.1c0-0.5,0-1,0.1-1.6c0.1-0.8,0.6-1.3,1.4-1.6c1.1-0.3,2.1-0.4,3.2-0.1c1,0.3,2,0.5,2.9,0.9
		c3.5,1.4,5.4,4.1,5.9,7.8c0.3,2.4-0.7,4.4-2.6,5.9c-0.6,0.4-1.2,0.8-1.8,1.2c1,2.2,1.9,4.4,2.9,6.6c0.6,1.5,1.5,2.7,3.1,3.4
		c0.5,0.2,0.8,0.6,0.8,1.3C201.6,349.8,201.1,350.1,200.6,350.3z M211.1,324.3c-0.8,0.2-1.6,0.3-2.4,0.4c-0.2,0-0.5,0-0.8,0.1
		c0.1,0.7,0.2,1.3,0.2,1.9c0.1,2.2,0.1,4.5,0.3,6.7c0.3,4.2,0.7,8.5,1,12.7c0.1,1,0.1,2,0.1,3c0,1.4-1.4,2.2-2.7,1.6
		c-0.6-0.2-0.9-0.7-0.9-1.3c-0.2-1.3-0.3-2.7-0.5-4c-0.4-4-0.8-8-1.1-12c-0.2-2.2-0.2-4.5-0.2-6.7c0-0.6,0-1.2,0-1.9
		c-1-0.1-1.8-0.1-2.5-0.2c-0.4,0-0.8-0.1-1.2-0.2c-0.4-0.1-0.7-0.4-0.7-0.8c0-0.5,0.2-0.8,0.7-1c0.3-0.1,0.5-0.2,0.8-0.2
		c0.6,0,1.2-0.1,1.8-0.1c2,0,4,0,6,0.1c0.6,0,1.3,0.1,1.9,0.2c0.1,0,0.2,0,0.4,0.1c0.4,0.1,0.7,0.3,0.7,0.8
		C211.8,323.9,211.6,324.2,211.1,324.3z M227.9,349.9c0,0.3-0.1,0.6-0.3,0.8c-0.6,0.7-1.5,0.5-2.2,0.5c-0.7-0.1-1-0.5-1.1-1.2
		c-0.1-0.8-0.3-1.6-0.3-2.5c-0.1-2.3-0.2-4.6-0.3-6.9c0-0.3,0-0.7,0-1.1c-1.6,0.1-3.1,0.1-4.7,0.2c0,0.3,0,0.5,0,0.8
		c0.1,2.7,0.2,5.4,0.2,8c0,0.5-0.1,1-0.2,1.5c-0.2,0.8-0.7,1.2-1.5,1.2c-0.2,0-0.4,0-0.6,0c-1.2,0-1.8-0.5-1.9-1.7
		c-0.2-1.8-0.4-3.6-0.4-5.4c-0.1-4.6-0.1-9.3-0.1-13.9c0-2.1,0-4.2,0-6.3c0-0.4,0.1-0.8,0.1-1.2c0.1-0.7,0.6-1,1.3-1.2
		c1.4-0.2,2.4,0.5,2.5,1.9c0.2,2.9,0.3,5.8,0.4,8.7c0.1,1.6,0.1,3.3,0.1,4.9c0,0.1,0,0.3,0.1,0.5c1.7-0.1,3.2-0.1,4.9-0.2
		c0.3-0.3,0.2-0.8,0.2-1.2c0-3.2-0.1-6.5-0.1-9.7c0-1.2,0.1-2.4,0.1-3.6c0-1,0.5-1.4,1.5-1.4c1.3-0.1,1.8,0.3,2,1.6
		c0.2,1.5,0.2,3,0.2,4.5c0,2.9,0,5.7,0,8.6c0.1,4.2,0.2,8.4,0.3,12.6C227.9,349.1,227.9,349.5,227.9,349.9z M242.1,344
		c-0.5,1.8-1.5,3.5-2.9,4.7c-1.6,1.5-3.6,2.3-5.6,3c-0.9,0.3-1.9-0.3-2.2-1.2c-0.2-0.8-0.4-1.7-0.4-2.5c-0.1-2.4-0.1-4.7-0.2-7.1
		c-0.1-3.6-0.3-7.2-0.5-10.8c0-1.1,0-2.2,0-3.3c0,0,0,0,0,0c0-1,0-2.1,0-3.1c0-0.4,0.1-0.7,0.2-1.1c0.1-0.5,0.5-0.8,1-0.9
		c1.3-0.2,2.6-0.2,3.8,0.6c2.8,1.7,4.8,4,6,7C243.3,334,243.5,339,242.1,344z M257.8,351.3c-0.8,0.3-1.5,0.2-2-0.6
		c-0.3-0.5-0.6-1-0.7-1.5c-0.5-2-1-4.1-1.5-6.1c-0.1-0.2-0.1-0.5-0.2-0.8c-2,0-4,0-6.1,0c-0.1,0.9-0.3,1.8-0.3,2.8
		c-0.2,1.7-0.3,3.5-0.4,5.2c0,0.4-0.1,0.8-0.2,1.2c-0.2,0.6-0.7,0.9-1.2,0.8c-0.5,0-0.8-0.3-1-0.9c-0.1-0.3-0.1-0.7-0.1-1
		c0.4-4.6,0.8-9.1,1.3-13.7c0.1-0.7,0.2-1.3,0.3-2c0.3-2.2,0.6-4.3,1-6.5c0.3-1.6,0.7-3.3,1.1-4.9c0.1-0.5,0.3-1,0.6-1.4
		c0.8-1.2,2.2-1.4,3.2-0.4c0.5,0.5,0.8,1.1,1.1,1.7c1,2.1,1.6,4.3,2.1,6.5c0.6,2.9,1.1,5.8,1.7,8.7c0.6,2.8,1.1,5.5,1.7,8.3
		c0.1,0.6,0.4,1.1,0.5,1.7c0.1,0.4,0.2,0.7,0.3,1.1C259,350.3,258.5,351,257.8,351.3z M271.7,321.7c-0.1,0.6-0.3,1.1-0.6,1.6
		c-0.8,1.5-1.6,3-2.5,4.4c-1.2,1.7-2,3.5-2,5.7c0,2.4-0.1,4.9-0.2,7.3c-0.1,2.6-0.2,5.1-0.3,7.7c0,0.6-0.1,1.3-0.3,1.9
		c-0.2,0.7-0.6,1.2-1.3,1.3c-0.6,0.1-1.2-0.3-1.5-1.1c-0.2-0.5-0.3-1.1-0.4-1.7c0-2,0-3.9,0-5.9c-0.1-3.4-0.1-6.7-0.2-10.1
		c0-0.4-0.2-0.8-0.4-1.1c-1.3-2.8-2.7-5.5-4-8.3c-0.1-0.2-0.2-0.4-0.3-0.7c-0.3-1,0.3-1.7,1.3-1.8c0.7-0.1,1.3,0.2,1.8,0.7
		c0.4,0.4,0.7,0.9,1,1.4c1.1,1.9,2,3.8,2.8,6c1.3-1.4,2.3-2.9,3.2-4.4c0.5-0.9,0.9-1.7,1.4-2.6c0.2-0.4,0.5-0.8,0.8-1.1
		c0.3-0.3,0.6-0.5,1.1-0.3C271.5,320.8,271.8,321.3,271.7,321.7z M285.6,292.2c2.7-0.5,5.5-0.7,8.3-0.3c1.1,0.1,1.7,0.7,1.7,1.6
		c0,0.9-0.7,1.4-1.8,1.4c-1.6,0-3.2,0-4.7,0.1c-5.4,0.6-10.3,2.7-14.5,6.1c-1.6,1.3-3,2.7-4.5,4.2c-1.2,1.2-2.4,2.4-3.7,3.6
		c-1.1,1-2.4,1.8-3.8,2.3c-2.8,1-5.5,0.3-7.5-1.9c-0.7-0.8-1.2-1.8-1.8-2.8c-0.2-0.3-0.3-0.5-0.5-1c-0.3,0.6-0.5,1.1-0.7,1.6
		c-0.7,1.5-1.3,3-2,4.5c-0.3,0.7-0.7,1.3-1.1,1.9c-2.1,3-5.4,3.2-8,2c-1.7-0.8-2.9-2.1-3.8-3.7c-0.9-1.6-1.4-3.4-1.7-5.3
		c-0.1-0.3-0.1-0.7-0.3-1c-0.2,0.4-0.3,0.7-0.5,1.1c-0.4,0.8-0.8,1.6-1.2,2.4c-1.3,2-3.4,2.7-5.6,2c-2.4-0.8-4.3-2.4-5.5-4.7
		c-1.3-2.4-1.7-5.1-1.8-7.8c0-0.7-0.2-1.1-0.8-1.5c-0.5-0.4-1-0.9-1.7-1.5c0.1,1.1,0.1,2,0.1,2.9c0.1,3,0.2,6-0.1,9
		c-0.2,2-0.6,3.9-1.3,5.7c-0.2,0.4-0.3,0.8-0.5,1.2c-1,1.9-2.8,2.6-4.8,1.8c-2-0.8-3.4-2.3-4.4-4.2c-0.8-1.6-1.3-3.3-1.6-5
		c-0.2-1-0.3-1.9-0.4-2.9c0-0.3-0.1-0.5-0.2-1c-0.2,0.4-0.3,0.7-0.4,0.9c-0.3,0.7-0.6,1.4-1,2.1c-1.3,2-3.5,2.6-5.6,1.6
		c-1.3-0.6-2.3-1.6-2.9-2.8c-1-1.9-1.5-4-1.8-6.1c-0.2-1-0.3-2.1-0.4-3.1c-0.6,0.2-3.4,2.9-4.6,4.4c0.3,0.8,0.7,1.5,1,2.3
		c0.7,1.9,0.9,3.8,0.3,5.7c-1.2,4.1-3.7,6.9-8,8c-0.9,0.2-1.9,0.3-2.8,0c-2.2-0.5-4.1-2.6-3.3-5.6c0.4-1.2,1-2.3,1.9-3.3
		c1.1-1.1,2.2-2.1,3.4-3.1c0.9-0.8,1.9-1.5,2.9-2.3c-0.7-0.5-1.3-0.9-1.9-1.3c-1.6-0.9-3.2-1.8-4.8-2.8c-1.4-0.8-2.7-1.7-3.8-2.8
		c-0.3-0.3-0.7-0.4-1.1-0.3c-2,0.3-4,0.6-5.9,0.9c-3.2,0.6-6.4,1.3-9.6,1.8c-3.8,0.6-7.6,0.5-11.4-0.5c-0.5-0.1-1.1-0.4-1.5-0.8
		c-0.9-0.8-0.5-2.1,0.6-2.5c0.4-0.1,1-0.1,1.4,0c1.1,0.2,2.1,0.4,3.2,0.6c3.1,0.4,6.2-0.1,9.3-0.7c2.8-0.5,5.6-1,8.5-1.4
		c1.1-0.2,2.3-0.1,3.4-0.1c0.3,0,0.6,0,0.9,0c0-0.2,0-0.3,0-0.4c-0.9-3,1.3-6.2,3.5-7.4c3.2-1.7,6.4-1.6,9.5,0.3
		c1,0.6,1.7,1.4,2.3,2.3c1.5,2.2,0.7,5.2-1.7,6.4c-0.8,0.4-1.7,0.6-2.8,1c2.1,1.2,4.1,2.5,5.6,4.4c0.2-0.1,0.4-0.2,0.5-0.4
		c1.1-1.1,2.1-2.1,3.1-3.3c0.8-0.9,1.5-2,1.9-3.2c0.3-1,1-1.6,2.1-1.7c1.1-0.1,2,0.5,2.5,1.4c0.7,1.2,0.7,2.5,0.9,3.7
		c0.2,1.6,0.5,3.2,0.8,4.8c0.2,1.1,0.7,2.1,1.3,3c0.1,0.2,0.3,0.4,0.5,0.6c0.3,0.3,0.7,0.4,1.1,0c0.3-0.4,0.7-0.7,0.9-1.1
		c0.8-1.4,1.5-2.8,2.1-4.3c0.3-0.7,0.2-1.6,0.3-2.5c0.1-1,0.2-2,0.4-2.9c0.1-0.4,0.2-0.8,0.4-1.2c0.8-1.6,2.8-1.6,3.7-0.1
		c0.5,0.7,0.6,1.6,0.6,2.4c0,1.2,0,2.4,0,3.6c0,2.6,0,5.2,0.4,7.8c0.4,2.2,1.1,4.3,2.4,6.1c0.3,0.4,0.6,0.7,0.9,1.1
		c0.6-0.4,0.9-0.9,1.1-1.5c0.6-1.3,0.9-2.7,1.1-4.2c0.4-2.7,0.3-5.4,0.3-8.1c0-1.5-0.1-3-0.1-4.4c0-0.7,0.1-1.3,0.8-1.6
		c0.7-0.3,1.2,0.1,1.7,0.6c0.6,0.6,1.2,1.1,1.9,1.8c0.2-0.8,0.3-1.5,0.5-2.1c0.4-1.4,1-2.8,1.9-4c2-2.5,5.4-2.7,7.6-0.5
		c1.4,1.4,1.7,3.2,1.3,5c-0.1,0.7-0.4,1.4-0.7,2c-0.9,2-2.5,3.2-4.7,3.4c-0.1,0-0.3,0-0.5,0.1c0.1,0.5,0.1,1.1,0.2,1.6
		c0.3,1.7,0.9,3.3,1.7,4.7c0.4,0.7,0.9,1.3,1.4,1.8c0.9,0.8,1.7,0.8,2.5-0.2c0.5-0.6,1-1.4,1.3-2.1c0.7-1.7,1.3-3.5,1.9-5.3
		c0.6-1.7,1.1-3.5,1.6-5.2c0.4-1.3,1.1-2.6,1.9-3.7c1.1-1.4,2.4-2.4,4.1-2.8c2.7-0.6,5.5,1.2,6.1,3.9c0.4,2.1-0.7,4.5-2.5,5.6
		c-1.2,0.7-2.5,1.1-3.9,1.1c-0.4,0-0.9,0-1.4,0c-0.1,0.4-0.2,0.8-0.2,1.2c-0.2,2.3-0.2,4.7,0.3,7c0.4,1.5,1,2.8,1.9,4
		c0.2,0.3,0.5,0.6,0.8,0.9c0.9,0.7,1.8,0.7,2.7-0.1c0.7-0.7,1.4-1.5,1.9-2.3c1.2-2.1,2.3-4.3,3.4-6.5c0.1-0.3,0.2-0.6,0.1-0.9
		c-0.5-2.8-0.4-5.7-0.2-8.6c0.1-1.7,0.2-3.3,0.3-5.1c-0.8-0.3-1.7-0.6-2.6-0.9c-0.7-0.2-1.3-0.4-2-0.7c-0.3-0.1-0.5-0.2-0.7-0.4
		c-0.4-0.3-0.5-0.6-0.4-1c0.1-0.4,0.4-0.7,1-0.7c0.7,0.1,1.5,0.1,2.2,0.3c0.9,0.3,1.9,0.6,2.9,1c0.1-0.2,0.1-0.4,0.2-0.5
		c0.2-0.5,0.3-1,0.6-1.4c0.9-1.4,2.6-1.4,3.5,0c0.3,0.5,0.4,1.1,0.6,1.7c0.1,0.3,0.1,0.7,0.2,1.1c1.2-0.1,2.3-0.4,3.3-1
		c0.4-0.2,0.8-0.5,1.2-0.7c0.4-0.2,0.7-0.2,1,0.1c0.3,0.3,0.4,0.7,0.2,1.1c-0.3,0.7-0.8,1.2-1.4,1.5c-1.2,0.7-2.5,1.1-3.9,1.3
		c-0.1,0-0.3,0-0.5,0.1c-0.1,0.5-0.1,0.9-0.1,1.4c-0.1,2.8-0.2,5.5-0.2,8.3c0,2.3,0.6,4.4,1.7,6.4c0.2,0.3,0.4,0.6,0.6,0.9
		c0.9,1.2,1.8,1.6,3.2,1.1c0.9-0.3,1.8-0.8,2.6-1.4c1.4-1.1,2.8-2.4,4.1-3.7c1.8-1.6,3.5-3.2,5.3-4.8
		C277.7,294.8,281.4,293,285.6,292.2z"/>
	<path d="M181.5,305.9c-0.9,0.8-1.8,1.7-2.6,2.6c-0.7,0.8-1.3,1.7-1.5,2.7c-0.4,1.6,0.6,2.7,2.2,2.4c0.9-0.1,1.7-0.4,2.4-0.9
		c1.7-1.2,2.8-2.8,3.3-4.8c0.4-1.6,0.1-3.1-0.9-4.5C183.4,304.3,182.4,305.1,181.5,305.9z"/>
	<path d="M183.8,291.6c0.9-0.6,1.4-2.4,0.3-3.5c-2.5-2.4-6.6-1.8-8.1,1.3c-0.3,0.6-0.3,0.9,0.2,1.4c0.6,0.6,1.3,1.2,2.1,1.7
		c0.3,0.2,0.7,0.3,1,0.4c1-0.2,2-0.3,3-0.6C182.7,292.2,183.3,291.9,183.8,291.6z"/>
	<path d="M245,296.1c1-0.6,1.6-1.5,1.5-2.7c0-0.9-0.4-1.5-1.2-1.8c-0.8-0.3-1.5-0.1-2,0.7c-0.9,1.3-1.5,2.8-1.9,4.4
		C242.7,296.8,243.9,296.7,245,296.1z"/>
	<path d="M229.2,292.5c-0.2-0.5-0.5-0.9-1-0.9c-0.5-0.1-0.7,0.3-0.9,0.6c-1,1.5-1.3,3.1-1.3,5C228.3,297,229.9,294.6,229.2,292.5z"
		/>
	<path d="M190.3,274.4c-0.1,0.2-0.2,0.4-0.3,0.6c-0.5,1.4,0.1,2.4,1.6,2.3c1.8-0.1,3.3-0.9,4.5-2.2c0.1-0.1,0.2-0.3,0.3-0.5
		c1-1.7,0.7-4.1-0.7-5.8C193.7,270.6,191.7,272.3,190.3,274.4z"/>
	<path d="M236.8,262.6c2.1-0.1,3.5-2.5,2.5-4.3c-0.3-0.6-0.8-0.8-1.4-0.9c-0.6,0-0.8,0.4-1,0.9c-0.6,1.3-1.1,2.7-1.3,4.2
		c0.2,0,0.4,0.1,0.5,0.1C236.4,262.6,236.6,262.6,236.8,262.6z"/>
	<path d="M252.5,259.8c0-0.9-0.5-1.5-1.3-1.9c-1.5,1.9-1.9,4-2.3,6.3C251.1,264,252.6,262,252.5,259.8z"/>
	<path d="M212.9,208.6c-0.4,0.8-0.7,1.6-0.9,2.4c-0.5,2.1-0.6,4.3-0.7,6.5c-0.1,3.5,0.2,7.1,0.7,10.6c0.3,2.2,0.7,4.3,1.5,6.4
		c0.2,0.7,0.6,1.3,1,1.9c0.7,1,1.7,1,2.5-0.1c0.7-1.1,1.2-2.2,1.5-3.5c0.7-2.9,0.9-5.8,0.9-9.5c0-1.8-0.2-4.4-0.6-7
		c-0.3-2.1-0.8-4.2-1.8-6.1c-0.4-0.7-0.9-1.5-1.5-2.1C214.5,207.2,213.5,207.4,212.9,208.6z"/>
	<path d="M155.5,272.6c0.7,0.8,1.1,0.8,1.9,0.3c1.1-0.8,1.8-1.9,2.4-3.1c0.4-0.8,0.7-1.6,0.4-2.5c-0.1-0.2,0-0.4,0-0.6
		c0-1.6,0-3.1,0-4.7c0,0,0,0-0.1,0c0-0.8,0-1.6,0-2.4c0-0.2,0-0.3,0-0.5c0.2-0.9-0.3-1.4-0.9-1.8c-1.2-0.7-1.9-0.7-3,0.1
		c-1,0.7-1.7,1.5-2.1,2.6c-0.4,1.1-0.7,2.3-0.7,3.5c-0.1,1.8,0.1,3.5,0.5,5.2C154.2,270.1,154.5,271.5,155.5,272.6z"/>
	<path d="M196.9,331.1c-0.2-2-1.1-3.6-2.6-5c-1.2-1-2.6-1.5-4.2-1.7c0.2,3.9,0.4,7.8,0.5,11.7c1.9-0.2,3.4-0.7,4.8-1.8
		C196.6,333.5,197.1,332.4,196.9,331.1z"/>
	<path d="M172,340c-1.4-0.9-3-1.3-4.8-1.6c0.2,3.4,0.4,6.7,0.5,10.1c0.6,0,1.1,0,1.6-0.1c1.3-0.1,2.5-0.4,3.6-1.1
		c1.2-0.7,1.7-1.8,1.7-3.2C174.4,342.3,173.5,341,172,340z"/>
	<path d="M169.9,333.9c0.7-0.4,1.5-0.9,2.1-1.5c0.9-0.8,1.4-1.9,1.1-3.1c-0.6-3.3-3.7-5-6.4-4.6c-0.1,3,0.1,9.6,0.5,10.4
		C168.1,334.7,169,334.3,169.9,333.9z"/>
	<path d="M247.5,340.3c1.9,0,3.6,0,5.5,0c-0.9-4.8-2.4-9.4-3.5-14.1C248.3,330.8,248.1,335.6,247.5,340.3z"/>
	<path d="M236.9,326.3c-0.6-0.8-1.4-1.4-2.4-1.9c0.2,8.1,0.3,16.1,0.5,24.1c1.3-0.4,2.3-1,3.2-2c1.1-1.4,1.8-2.9,2.1-4.6
		c0.6-3,0.4-6-0.3-9C239.5,330.4,238.5,328.2,236.9,326.3z"/>
</g>
</svg>
