<svg xmlns="http://www.w3.org/2000/svg" viewBox="0 0 32 32"><path d="M 16 4 C 11.593564 4 8 7.5935677 8 12 C 8 12.195683 8.0153666 12.387845 8.0292969 12.580078 C 5.0876831 13.764072 3 16.643186 3 20 C 3 24.406432 6.5935644 28 11 28 C 12.890388 28 14.628379 27.335631 16 26.232422 C 17.371621 27.335631 19.109612 28 21 28 C 25.406436 28 29 24.406432 29 20 C 29 16.643186 26.912317 13.764072 23.970703 12.580078 C 23.984633 12.387845 24 12.195683 24 12 C 24 7.5935677 20.406436 4 16 4 z M 16 6 C 19.325556 6 22 8.674446 22 12 C 22 12.023102 21.996351 12.045321 21.996094 12.068359 C 21.669097 12.027374 21.337804 12 21 12 C 19.109612 12 17.371621 12.664369 16 13.767578 C 14.628379 12.664369 12.890388 12 11 12 C 10.662196 12 10.330903 12.027374 10.003906 12.068359 C 10.003649 12.045321 10 12.023102 10 12 C 10 8.674446 12.674444 6 16 6 z M 11 14 C 12.360072 14 13.607475 14.45273 14.611328 15.208984 C 14.110052 15.875191 13.710721 16.618398 13.435547 17.421875 C 12.008277 16.748871 10.896895 15.533946 10.359375 14.035156 C 10.569969 14.013008 10.783318 14 11 14 z M 21 14 C 21.216682 14 21.430031 14.013008 21.640625 14.035156 C 21.103105 15.533946 19.991723 16.748871 18.564453 17.421875 C 18.289279 16.618398 17.889948 15.875191 17.388672 15.208984 C 18.392525 14.45273 19.639928 14 21 14 z M 8.4355469 14.578125 C 9.1903993 16.782207 10.878414 18.554196 13.029297 19.419922 C 13.015367 19.612155 13 19.804317 13 20 C 13 21.797096 13.604527 23.452954 14.611328 24.791016 C 13.607475 25.54727 12.360072 26 11 26 C 7.6744439 26 5 23.325554 5 20 C 5 17.594646 6.4028703 15.536599 8.4355469 14.578125 z M 23.564453 14.578125 C 25.59713 15.536599 27 17.594646 27 20 C 27 23.325554 24.325556 26 21 26 C 19.639928 26 18.392525 25.54727 17.388672 24.791016 C 18.395473 23.452954 19 21.797096 19 20 C 19 19.804317 18.984633 19.612155 18.970703 19.419922 C 21.121586 18.554196 22.809601 16.782207 23.564453 14.578125 z M 16 16.675781 C 16.264346 17.073691 16.476452 17.507074 16.640625 17.964844 C 16.430031 17.986992 16.216682 18 16 18 C 15.783318 18 15.569969 17.986992 15.359375 17.964844 C 15.523548 17.507074 15.735654 17.073691 16 16.675781 z M 15.003906 19.931641 C 15.330903 19.972626 15.662196 20 16 20 C 16.337804 20 16.669097 19.972626 16.996094 19.931641 C 16.996351 19.954679 17 19.976898 17 20 C 17 21.232254 16.631467 22.373698 16 23.324219 C 15.368533 22.373698 15 21.232254 15 20 C 15 19.976898 15.003649 19.954679 15.003906 19.931641 z"></path></svg>
