<svg xmlns="http://www.w3.org/2000/svg" viewBox="0 0 50 50"><path d="M 46.0625 1.9375 C 45.976563 1.949219 45.894531 1.96875 45.8125 2 C 45.726563 2.019531 45.640625 2.050781 45.5625 2.09375 L 1.5625 24.09375 C 1.210938 24.257813 0.984375 24.613281 0.984375 25 C 0.984375 25.386719 1.210938 25.742188 1.5625 25.90625 L 45.5625 47.90625 C 46.0625 48.148438 46.664063 47.9375 46.90625 47.4375 C 47.148438 46.9375 46.9375 46.335938 46.4375 46.09375 L 39.40625 42.5625 C 41.109375 39.992188 45 33.238281 45 25 C 45 16.761719 41.109375 10.007813 39.40625 7.4375 L 46.4375 3.90625 C 46.960938 3.78125 47.292969 3.269531 47.191406 2.742188 C 47.089844 2.214844 46.59375 1.859375 46.0625 1.9375 Z M 35.75 9.25 C 36.667969 10.550781 41 17.03125 41 25 C 41 32.96875 36.667969 39.449219 35.75 40.75 L 26.59375 36.1875 C 28.097656 34.328125 31 30.078125 31 25 C 31 19.921875 28.097656 15.671875 26.59375 13.8125 Z M 21.6875 16.28125 C 20.347656 18.484375 19 21.542969 19 25 C 19 28.457031 20.347656 31.515625 21.6875 33.71875 L 4.25 25 Z"></path></svg>
