<svg xmlns="http://www.w3.org/2000/svg" viewBox="0 0 32 32"><path d="M 5 5 L 5 7 L 7 7 L 7 5 Z M 9 5 L 9 7 L 11 7 L 11 5 Z M 13 5 L 13 7 L 15 7 L 15 5 Z M 17 5 L 17 7 L 19 7 L 19 5 Z M 21 5 L 21 7 L 23 7 L 23 5 Z M 25 5 L 25 7 L 27 7 L 27 5 Z M 5 9 L 5 11 L 7 11 L 7 9 Z M 25 9 L 25 11 L 27 11 L 27 9 Z M 14 11 L 14 13 L 17.5625 13 L 13.5625 17 L 5 17 L 5 27 L 15 27 L 15 18.4375 L 19 14.4375 L 19 18 L 21 18 L 21 11 Z M 5 13 L 5 15 L 7 15 L 7 13 Z M 25 13 L 25 15 L 27 15 L 27 13 Z M 25 17 L 25 19 L 27 19 L 27 17 Z M 7 19 L 13 19 L 13 25 L 7 25 Z M 25 21 L 25 23 L 27 23 L 27 21 Z M 17 25 L 17 27 L 19 27 L 19 25 Z M 21 25 L 21 27 L 23 27 L 23 25 Z M 25 25 L 25 27 L 27 27 L 27 25 Z"></path></svg>
