<?xml version="1.0" encoding="utf-8"?>
<!-- Generator: Adobe Illustrator 27.7.0, SVG Export Plug-In . SVG Version: 6.00 Build 0)  -->
<svg version="1.1" id="Layer_1" xmlns="http://www.w3.org/2000/svg" xmlns:xlink="http://www.w3.org/1999/xlink" x="0px" y="0px"
	 viewBox="0 0 2048 2048" style="enable-background:new 0 0 2048 2048;" xml:space="preserve">
<style type="text/css">
	.st0{fill:#333333;}
</style>
<path class="st0" d="M1664,576c0,79.3-15,154-45,224s-71.3,131-124,183s-113.7,93-183,123s-144,45.3-224,46c-66,0-129.7-10.7-191-32
	s-117.7-52.7-169-94l-619,619c-12.7,12.7-27.7,19-45,19s-32.3-6.3-45-19s-19-27.7-19-45s6.3-32.3,19-45l619-619
	c-41.3-51.3-72.7-107.7-94-169s-32-125-32-191c0-79.3,15-154,45-224s71.3-131,124-183S794.7,76,864,46s144-45.3,224-46
	c79.3,0,154,15,224,45s131,71.3,183,124s93,113.7,123,183S1663.3,496,1664,576z M640,576c0,62,11.7,120,35,174s55.3,101.3,96,142
	s88,72.7,142,96s112.3,35.3,175,36c62,0,120-11.7,174-35s101.3-55.3,142-96s72.7-88,96-142s35.3-112.3,36-175c0-62-11.7-120-35-174
	s-55.3-101.3-96-142s-88-72.7-142-96s-112.3-35.3-175-36c-62,0-120,11.7-174,35s-101.3,55.3-142,96s-72.7,88-96,142
	S640.7,513.3,640,576z"/>
<path class="st0" d="M1930,1610c0-20.7-2-41-6-61l124-51l-49-119l-124,52c-23.3-34-52-62.7-86-86l52-124l-119-49l-51,124
	c-20-4-40.3-6-61-6s-41,2-61,6l-51-124l-119,49l52,124c-34,23.3-62.7,52-86,86l-124-52l-49,119l124,51c-4,20-6,40.3-6,61s2,41,6,61
	l-124,51l49,119l124-52c23.3,34,52,62.7,86,86l-52,124l119,49l51-124c20,4,40.3,6,61,6s41-2,61-6l51,124l119-49l-52-124
	c34-23.3,62.7-52,86-86l124,52l49-119l-124-51C1928,1651,1930,1630.7,1930,1610z M1787,1685c-10,23.3-23.7,43.7-41,61
	s-37.7,31-61,41s-48.3,15-75,15s-51.7-5-75-15s-43.7-23.7-61-41s-31-37.7-41-61s-15-48.3-15-75s5-51.7,15-75s23.7-43.7,41-61
	s37.7-31,61-41s48.3-15,75-15s51.7,5,75,15s43.7,23.7,61,41s31,37.7,41,61s15,48.3,15,75S1797,1661.7,1787,1685z"/>
</svg>
