<?xml version="1.0" encoding="utf-8"?>
<!-- Generator: Adobe Illustrator 24.0.1, SVG Export Plug-In . SVG Version: 6.00 Build 0)  -->
<svg version="1.1" id="Layer_1" xmlns="http://www.w3.org/2000/svg" xmlns:xlink="http://www.w3.org/1999/xlink" x="0px" y="0px"
	 viewBox="0 0 2048 2048" style="enable-background:new 0 0 2048 2048;" xml:space="preserve">
<style type="text/css">
	.st0{fill:#333333;}
</style>
<polygon class="st0" points="0,256 2048,256 2048,1024 1920,1024 1920,384 128,384 128,1152 1024,1152 1024,1280 0,1280 "/>
<path class="st0" d="M1920,1600c0-20.7-2-41-6-61l124-51l-49-119l-124,52c-23.3-34-52-62.7-86-86l52-124l-119-49l-51,124
	c-20-4-40.3-6-61-6s-41,2-61,6l-51-124l-119,49l52,124c-34,23.3-62.7,52-86,86l-124-52l-49,119l124,51c-4,20-6,40.3-6,61s2,41,6,61
	l-124,51l49,119l124-52c23.3,34,52,62.7,86,86l-52,124l119,49l51-124c20,4,40.3,6,61,6s41-2,61-6l51,124l119-49l-52-124
	c34-23.3,62.7-52,86-86l124,52l49-119l-124-51C1918,1641,1920,1620.7,1920,1600z M1777,1675c-10,23.3-23.7,43.7-41,61
	s-37.7,31-61,41s-48.3,15-75,15s-51.7-5-75-15s-43.7-23.7-61-41s-31-37.7-41-61s-15-48.3-15-75s5-51.7,15-75s23.7-43.7,41-61
	s37.7-31,61-41s48.3-15,75-15s51.7,5,75,15s43.7,23.7,61,41s31,37.7,41,61s15,48.3,15,75S1787,1651.7,1777,1675z"/>
<path class="st0" d="M1118.4,1024H810.5v-60.1c0-20.3,3.7-39.8,11.2-58.5c5.9-15,14.7-29.4,26.5-43.3s25.1-28.1,40.1-42.5
	c15-14.4,29.7-27.8,44.1-40.1c14.4-12.3,28.1-25.4,40.9-39.3c12.8-13.9,23-26.5,30.5-37.7s11.5-23.8,12-37.7
	c0-13.9-5.1-25.9-15.2-36.1c-10.2-10.2-22.2-15.2-36.1-15.2c-12.3,0-23,3.7-32.1,11.2s-15.2,17.4-18.4,29.7l-100.2-20.8
	c3.2-17.6,9.4-33.9,18.4-48.9c9.1-15,20.8-27.8,35.3-38.5c14.4-10.7,29.7-19.2,45.7-25.7c16-6.4,33.1-9.6,51.3-9.6
	c21.4,0,41.4,4,60.1,12c18.7,8,35,19,48.9,32.9c13.9,13.9,24.9,30.2,32.9,48.9s12,38.7,12,60.1c0,20.8-2.9,39.5-8.8,56.1
	c-5.9,16.6-14.2,32.1-24.9,46.5s-22.4,28.1-35.3,40.9c-12.8,12.8-26.5,25.1-40.9,36.9c-14.4,11.8-28.1,24-40.9,36.9
	c-12.8,12.8-25.4,25.9-37.7,39.3h188.4V1024z"/>
<path class="st0" d="M615.8,628.8c-15.5,9.1-33.7,17.4-54.5,24.9s-40.3,11.2-58.5,11.2V562.3c5.9,0,14.2-1.6,24.9-4.8
	c10.7-3.2,21.4-7.2,32.1-12c10.7-4.8,20.3-10.4,28.9-16.8c8.6-6.4,14.4-12.3,17.6-17.6h101.8v513h-92.2V628.8z"/>
<path class="st0" d="M1355.7,1024c-22.4,0-44.1-3.7-64.9-11.2s-40.9-17.4-60.1-29.7V881.3c10.7,8,20,15,28.1,20.8
	c8,5.9,16.6,10.7,25.7,14.4c9.1,3.7,18.2,6.4,27.3,8s21.1,2.4,36.1,2.4c11.8,0,23-1.1,33.7-3.2c10.7-2.1,20-6.1,28.1-12
	c8-5.9,14.7-13.4,20-22.4c5.3-9.1,7.7-20.3,7.2-33.7c0-16.6-6.4-28.3-19.2-35.3c-12.8-6.9-27.8-11.8-44.9-14.4
	c-17.1-2.7-34.5-3.5-52.1-2.4c-17.6,1.1-31.8,1.6-42.5,1.6v-77.8h46.5c16.6,0,32.1-1.9,46.5-5.6s26.5-10.7,36.1-20.8
	c9.6-10.2,14.4-25.4,14.4-45.7c0-22.4-6.7-37.4-20-44.9s-30.5-11.2-51.3-11.2c-21.4,0-39.8,4.8-55.3,14.4
	c-15.5,9.6-31,21.1-46.5,34.5V543.8c18.2-12.3,38.5-20.8,60.9-25.7c22.4-4.8,44.4-7.2,65.7-7.2c19.2,0,37.9,2.7,56.1,8
	s34.2,13.1,48.1,23.2c13.9,10.2,25.4,23.2,34.5,39.3s13.4,34.5,12.8,55.3c0,25.7-5.1,48.4-15.2,68.1c-10.2,19.8-26.7,36.1-49.7,48.9
	c23.5,8,42.8,22.2,57.7,42.5s22.4,43,22.4,68.1c0,25.1-5.3,47.6-16,67.3c-10.7,19.8-24.6,36.3-41.7,49.7
	c-17.1,13.4-37.1,23.8-60.1,31.3C1400.8,1020.3,1378.1,1024,1355.7,1024z"/>
</svg>
