<?xml version="1.0" encoding="utf-8"?>
<!-- Generator: Adobe Illustrator 24.0.1, SVG Export Plug-In . SVG Version: 6.00 Build 0)  -->
<svg version="1.1" id="Layer_1" xmlns="http://www.w3.org/2000/svg" xmlns:xlink="http://www.w3.org/1999/xlink" x="0px" y="0px"
	 viewBox="0 0 386 202" style="enable-background:new 0 0 386 202;" xml:space="preserve">
<style type="text/css">
	.st0{fill:#0067B8;}
	.st1{fill:#FFFFFF;stroke:#000000;stroke-miterlimit:10;}
</style>
<title>pnp-samples-white</title>
<path class="st0" d="M147.7,48.2c0-6.5-3.9-9.8-11.6-9.8h-5.7v19.9h5.7C143.9,58.2,147.7,54.9,147.7,48.2z"/>
<path class="st0" d="M260,48.2c0-6.5-3.9-9.8-11.6-9.8h-5.7v19.9h5.7C256.1,58.2,260,54.9,260,48.2z"/>
<path class="st0" d="M243.7,0.7H43v121l0,0v79.7h300V0.7H243.7z M228.2,27.4h22.7c16.2,0,24.4,6.8,24.4,20.3c0.2,6-2.4,11.7-7,15.5
	c-4.7,4-10.9,6-18.7,6h-6.9V91h-14.5V27.4z M171,45.6h14.2v7.2h0.2c3-5.3,8.7-8.5,14.8-8.3c10.2,0,15.3,6.2,15.3,18.7V91h-14.2V65.7
	c0-7-2.5-10.5-7.6-10.6c-2.3,0-4.6,1-6.1,2.8c-1.6,2-2.5,4.5-2.4,7.1V91H171V45.6z M115.9,27.4h22.7c16.2,0,24.4,6.8,24.4,20.3
	c0.2,6-2.4,11.7-7,15.5c-4.7,3.9-10.9,5.9-18.7,5.9h-6.9V91h-14.5V27.4z M337,195.3H49v-73.7h288V195.3z"/>
<path class="st0" d="M71.7,177.3v-8.7c1.5,1.3,3.3,2.3,5.2,3c1.8,0.7,3.7,1,5.6,1c1,0,2-0.1,2.9-0.3c0.7-0.2,1.4-0.5,2.1-0.9
	c0.5-0.3,0.9-0.7,1.2-1.3c0.3-0.5,0.4-1,0.4-1.6c0-0.7-0.2-1.5-0.7-2c-0.5-0.7-1.1-1.2-1.8-1.7c-0.9-0.6-1.8-1.1-2.7-1.5
	c-1-0.5-2.1-1-3.4-1.4c-2.6-1-5-2.6-6.9-4.7c-1.5-1.9-2.3-4.2-2.3-6.7c0-1.8,0.4-3.6,1.2-5.3c0.8-1.5,2-2.7,3.3-3.6
	c1.5-1,3.1-1.7,4.9-2.1c1.9-0.4,3.9-0.7,5.9-0.7c1.8,0,3.6,0.1,5.4,0.4c1.5,0.2,2.9,0.6,4.3,1.1v8.2c-0.7-0.5-1.4-0.9-2.1-1.2
	c-0.8-0.3-1.6-0.6-2.4-0.9c-0.8-0.2-1.6-0.4-2.4-0.5c-0.8-0.1-1.5-0.2-2.3-0.2c-0.9,0-1.8,0.1-2.7,0.3c-0.7,0.2-1.4,0.4-2.1,0.8
	c-0.5,0.3-1,0.7-1.3,1.2c-0.3,0.5-0.5,1-0.5,1.6c0,0.6,0.2,1.2,0.5,1.7c0.4,0.6,0.9,1.1,1.5,1.5c0.7,0.5,1.5,1,2.3,1.4
	c0.9,0.4,1.9,0.9,3.1,1.4c1.5,0.6,2.9,1.3,4.2,2.1c1.2,0.7,2.3,1.5,3.2,2.5c0.9,0.9,1.6,2,2,3.2c1.1,3.2,1,6.7-0.5,9.7
	c-0.8,1.5-2,2.7-3.4,3.6c-1.5,1-3.2,1.6-5,2c-2,0.4-4,0.6-6,0.6c-2.1,0-4.1-0.2-6.1-0.5C75,178.7,73.3,178.1,71.7,177.3z"/>
<path class="st0" d="M139.2,178.8h-9.6l-2.8-8.7h-13.9l-2.8,8.7h-9.6l14.3-39.1h10.5L139.2,178.8z M124.8,163.4l-4.2-13.2
	c-0.3-1.1-0.6-2.3-0.7-3.5h-0.2c-0.1,1.2-0.3,2.3-0.7,3.4l-4.3,13.3H124.8z"/>
<path class="st0" d="M188.6,178.8h-8.7v-23.4c0-2.5,0.1-5.3,0.3-8.4h-0.2c-0.3,1.7-0.7,3.5-1.2,5.2l-9.2,26.6h-7.2l-9.3-26.3
	c-0.5-1.8-0.9-3.6-1.2-5.4h-0.2c0.2,3.9,0.3,7.2,0.4,10.1v21.6h-7.9v-39.1H157l8,23.2c0.6,1.8,1.1,3.7,1.4,5.6h0.2
	c0.4-1.9,0.9-3.8,1.5-5.6l8-23.1h12.6L188.6,178.8z"/>
<path class="st0" d="M206.4,165.3v13.5h-8.8v-39.1h13.8c9.9,0,14.8,4.2,14.8,12.5c0.1,3.7-1.4,7.2-4.2,9.5
	c-2.8,2.4-6.6,3.6-11.3,3.6H206.4z M206.4,146.4v12.2h3.4c4.7,0,7-2.1,7-6.2c0-4-2.3-6-7-6L206.4,146.4z"/>
<path class="st0" d="M255.1,178.8h-23.3v-39.1h8.8v32h14.5L255.1,178.8z"/>
<path class="st0" d="M283.9,178.8h-23.4v-39.1H283v7.2h-13.8v8.7H282v7.2h-12.8v8.9h14.6L283.9,178.8z"/>
<path class="st0" d="M288.3,177.3v-8.7c1.5,1.3,3.3,2.3,5.2,3c1.8,0.7,3.7,1,5.6,1c1,0,2-0.1,2.9-0.3c0.7-0.2,1.4-0.5,2.1-0.9
	c0.5-0.3,0.9-0.7,1.2-1.3c0.3-0.5,0.4-1,0.4-1.6c0-0.7-0.2-1.5-0.7-2c-0.5-0.7-1.1-1.2-1.8-1.7c-0.9-0.6-1.8-1.1-2.7-1.5
	c-1-0.5-2.2-1-3.4-1.4c-2.6-1-5-2.6-6.8-4.7c-1.5-1.9-2.3-4.2-2.3-6.7c-0.1-1.8,0.4-3.6,1.2-5.3c0.8-1.5,1.9-2.7,3.3-3.6
	c1.5-1,3.2-1.7,4.9-2.1c1.9-0.4,3.9-0.7,5.9-0.7c1.8,0,3.6,0.1,5.4,0.4c1.5,0.2,2.9,0.6,4.3,1.1v8.2c-0.7-0.5-1.4-0.9-2.1-1.2
	c-0.8-0.3-1.6-0.6-2.4-0.9c-0.8-0.2-1.6-0.4-2.4-0.5c-0.8-0.1-1.5-0.2-2.3-0.2c-0.9,0-1.8,0.1-2.7,0.3c-0.7,0.2-1.4,0.4-2.1,0.8
	c-0.5,0.3-1,0.7-1.3,1.2c-0.3,0.5-0.5,1-0.5,1.6c0,0.6,0.2,1.2,0.5,1.7c0.4,0.6,0.9,1.1,1.5,1.5c0.7,0.5,1.5,1,2.3,1.4
	c0.9,0.4,1.9,0.9,3.1,1.4c1.5,0.6,2.9,1.3,4.2,2.1c1.2,0.7,2.3,1.5,3.2,2.5c0.9,0.9,1.6,2,2,3.2c0.5,1.3,0.7,2.7,0.7,4.2
	c0.1,1.9-0.4,3.8-1.2,5.5c-0.8,1.5-2,2.7-3.4,3.6c-1.5,1-3.2,1.6-5,2c-2,0.4-4,0.6-6,0.6c-2.1,0-4.1-0.2-6.1-0.5
	C291.6,178.6,289.9,178.1,288.3,177.3z"/>
<rect x="-1238.1" y="-128.5" class="st1" width="5" height="5"/>
</svg>
