<svg xmlns="http://www.w3.org/2000/svg" viewBox="0 0 349.09 233.53"><defs><style>.a{fill:#fff;}</style></defs><title>pnp-samples-white</title><path class="a" d="M121.86,55.3q0-11.41-13.49-11.41h-6.65V67h6.65Q121.85,67,121.86,55.3Z"/><path class="a" d="M252.48,55.3q0-11.41-13.49-11.41h-6.65V67H239Q252.47,67,252.48,55.3Z"/><path class="a" d="M233.53,0H0V140.81H0v92.72H349.09V0ZM215.45,31.09h26.47q28.35,0,28.35,23.59a22.5,22.5,0,0,1-8.14,18Q254,79.61,240.4,79.61h-8.06V105.1H215.45ZM149,52.25h16.53v8.36h.21A19,19,0,0,1,183,51q17.79,0,17.79,21.78V105.1H184.27V75.73q0-12.27-8.89-12.28a8.91,8.91,0,0,0-7.07,3.25A12.33,12.33,0,0,0,165.54,75V105.1H149ZM84.83,31.09H111.3q28.35,0,28.35,23.59a22.5,22.5,0,0,1-8.14,18q-8.13,6.89-21.73,6.89h-8.06V105.1H84.83ZM342.09,226.53H7V140.81H342.09Z"/><path class="a" d="M33.39,205.57V195.42a19.52,19.52,0,0,0,6,3.47,19.12,19.12,0,0,0,6.54,1.16,14.1,14.1,0,0,0,3.38-.35,8,8,0,0,0,2.41-1,4.26,4.26,0,0,0,1.44-1.46,3.63,3.63,0,0,0,.48-1.83,3.93,3.93,0,0,0-.76-2.38,8.32,8.32,0,0,0-2.08-1.94,21.9,21.9,0,0,0-3.13-1.71q-1.8-.82-3.9-1.68a19.81,19.81,0,0,1-8-5.43,11.83,11.83,0,0,1-2.62-7.74,12.35,12.35,0,0,1,1.43-6.11,12.07,12.07,0,0,1,3.89-4.21,17.51,17.51,0,0,1,5.69-2.43,29.79,29.79,0,0,1,6.86-.77,40.67,40.67,0,0,1,6.3.43,24.48,24.48,0,0,1,5.06,1.31v9.49a15,15,0,0,0-2.49-1.39,18.44,18.44,0,0,0-2.78-1,20.79,20.79,0,0,0-2.84-.59,19.52,19.52,0,0,0-2.68-.19,14.09,14.09,0,0,0-3.17.33,8.26,8.26,0,0,0-2.42.94,4.68,4.68,0,0,0-1.52,1.44,3.42,3.42,0,0,0-.54,1.89,3.58,3.58,0,0,0,.61,2,6.92,6.92,0,0,0,1.71,1.71,18.18,18.18,0,0,0,2.7,1.59c1.05.52,2.25,1.05,3.58,1.6a39.41,39.41,0,0,1,4.91,2.43,17.56,17.56,0,0,1,3.73,2.9,11.4,11.4,0,0,1,2.38,3.7A14.84,14.84,0,0,1,63,200.93a11.73,11.73,0,0,1-3.92,4.18,17.06,17.06,0,0,1-5.76,2.31,33.68,33.68,0,0,1-6.94.69,38.81,38.81,0,0,1-7.12-.63A21.23,21.23,0,0,1,33.39,205.57Z"/><path class="a" d="M111.94,207.32H100.77L97.53,197.2H81.35l-3.21,10.12H67L83.6,161.81H95.76Zm-16.76-18L90.3,174a19.38,19.38,0,0,1-.76-4.1h-.26a17.14,17.14,0,0,1-.79,4l-4.95,15.42Z"/><path class="a" d="M169.48,207.32H159.36V180.09q0-4.41.38-9.74h-.25a48.9,48.9,0,0,1-1.43,6l-10.67,30.94H139l-10.86-30.63a59.25,59.25,0,0,1-1.43-6.34h-.28q.4,6.72.41,11.8v25.17h-9.24V161.81h15l9.3,27a37,37,0,0,1,1.61,6.5h.2a66.33,66.33,0,0,1,1.8-6.57l9.3-26.91h14.63Z"/><path class="a" d="M190.08,191.64v15.68H179.83V161.81h16.06q17.21,0,17.2,14.5a13.9,13.9,0,0,1-4.93,11.09q-4.93,4.24-13.19,4.24Zm0-22v14.19h4q8.19,0,8.19-7.18,0-7-8.19-7Z"/><path class="a" d="M246.86,207.32h-27.1V161.81H230V199h16.85Z"/><path class="a" d="M280.28,207.32H253V161.81h26.25v8.34h-16v10.13h14.88v8.32H263.24V199h17Z"/><path class="a" d="M285.49,205.57V195.42a19.52,19.52,0,0,0,6,3.47,19.06,19.06,0,0,0,6.53,1.16,14.19,14.19,0,0,0,3.39-.35,8,8,0,0,0,2.41-1,4.35,4.35,0,0,0,1.44-1.46,3.63,3.63,0,0,0,.48-1.83,4,4,0,0,0-.76-2.38,8.5,8.5,0,0,0-2.08-1.94,21.9,21.9,0,0,0-3.13-1.71q-1.81-.82-3.9-1.68a19.81,19.81,0,0,1-7.95-5.43,11.83,11.83,0,0,1-2.62-7.74,12.24,12.24,0,0,1,1.43-6.11,12,12,0,0,1,3.88-4.21,17.48,17.48,0,0,1,5.7-2.43,29.79,29.79,0,0,1,6.86-.77,40.67,40.67,0,0,1,6.3.43,24.64,24.64,0,0,1,5.06,1.31v9.49a15,15,0,0,0-2.49-1.39,18.44,18.44,0,0,0-2.78-1,20.79,20.79,0,0,0-2.84-.59,19.63,19.63,0,0,0-2.68-.19,14.18,14.18,0,0,0-3.18.33,8.19,8.19,0,0,0-2.41.94,4.68,4.68,0,0,0-1.52,1.44,3.42,3.42,0,0,0-.54,1.89,3.65,3.65,0,0,0,.6,2,7,7,0,0,0,1.72,1.71,18.57,18.57,0,0,0,2.69,1.59c1.06.52,2.26,1.05,3.59,1.6a39.25,39.25,0,0,1,4.9,2.43,17.31,17.31,0,0,1,3.73,2.9,11.24,11.24,0,0,1,2.38,3.7,13.08,13.08,0,0,1,.83,4.84,12.92,12.92,0,0,1-1.45,6.4,11.62,11.62,0,0,1-3.91,4.18,17.12,17.12,0,0,1-5.77,2.31,33.65,33.65,0,0,1-6.93.69,38.92,38.92,0,0,1-7.13-.63A21.27,21.27,0,0,1,285.49,205.57Z"/></svg>