<?xml version="1.0" encoding="UTF-8" standalone="no"?>
<svg aria-hidden="true" style="position: absolute; width: 0px; height: 0px; overflow: hidden;" version="1.1" id="svg45"
   xmlns:xlink="http://www.w3.org/1999/xlink" xmlns="http://www.w3.org/2000/svg" xmlns:svg="http://www.w3.org/2000/svg">
   <defs id="defs1">
      <!-- FILTERs:::  -->
      <symbol id="icon-facebook">
         <path id="facebook-outer"
            d="M 6 2 C 3.8000022 2 2 3.8000022 2 6 L 2 26 C 2 28.199998 3.8000022 30 6 30 L 26 30 C 28.199998 30 30 28.199998 30 26 L 30 6 C 30 3.8000022 28.199998 2 26 2 L 6 2 z M 17.1 6 L 20.7 6 C 20.9 6 21 6.1000002 21.2 6.3 L 21.2 9.2 C 21.2 9.3999998 21.1 9.5 20.9 9.5 L 18.7 9.5 C 18.100001 9.5 17.7 9.9000005 17.7 10.4 L 17.7 12.5 L 20.8 12.5 C 21 12.5 21.1 12.6 21.1 12.8 L 20.8 15.8 C 20.8 15.9 20.6 16 20.5 16 L 17.7 16 L 17.7 25.8 C 17.7 26 17.6 26.1 17.4 26.1 L 13.5 26.1 C 13.3 26.1 13.2 25.9 13.2 25.8 L 13.2 16.1 L 11.3 16.1 C 11.1 16.1 11 15.9 11 15.8 L 11 12.8 C 11 12.6 11.1 12.5 11.3 12.5 L 13.2 12.5 L 13.2 9.6 C 13.2 7.600002 15.000002 6 17.1 6 z " />
      </symbol>
      <symbol id="icon-discord" viewBox="12 4 42 48">
         <path
            d="m 42.759578,34.665821 c -2.111,-0.13831 -3.77072,-1.88466 -3.77072,-4.01941 0,-0.0713 10e-4,-0.1425 0.005,-0.21375 v 0.009 c -0.004,-0.0671 -0.007,-0.1453 -0.007,-0.22494 0,-2.13054 1.66252,-3.87131 3.76094,-3.99844 h 0.0118 c 2.1082,0.11449 3.77353,1.85113 3.77353,3.97748 0,0.0866 -0.003,0.17185 -0.008,0.25707 v -0.0118 c 0.004,0.0698 0.007,0.15228 0.007,0.23471 0,2.12776 -1.66393,3.86713 -3.76235,3.98728 h -0.0118 z m -13.92333,0 c -2.11098,-0.13831 -3.77072,-1.88466 -3.77072,-4.01941 0,-0.0713 0.001,-0.1425 0.005,-0.21375 v 0.009 c -0.004,-0.0671 -0.007,-0.1453 -0.007,-0.22494 0,-2.13054 1.66253,-3.87131 3.76095,-3.99844 h 0.0118 c 2.10819,0.11449 3.77352,1.85113 3.77352,3.97748 0,0.0866 -0.003,0.17185 -0.008,0.25707 v -0.0118 c 0.004,0.0671 0.007,0.1453 0.007,0.22493 0,2.13056 -1.66252,3.87131 -3.76094,3.99845 z m 21.46897,-19.13723 c -2.46305,-1.16237 -5.32428,-2.08165 -8.31963,-2.61394 l -0.20816,-0.0308 c -0.007,-10e-4 -0.0153,-0.003 -0.0237,-0.003 -0.0489,0 -0.0908,0.0266 -0.11318,0.0656 v 0 c -0.32692,0.57419 -0.68177,1.29089 -1.00171,2.02577 l -0.0601,0.15507 c -1.43899,-0.23053 -3.09872,-0.36185 -4.78919,-0.36185 -1.69048,0 -3.3502,0.13132 -4.96942,0.3842 l 0.18021,-0.0237 c -0.3772,-0.88016 -0.73765,-1.59547 -1.13582,-2.28842 l 0.0573,0.10755 c -0.0237,-0.0405 -0.0671,-0.0656 -0.11593,-0.0656 -0.007,0 -0.0153,0 -0.0224,10e-4 h 0.001 c -3.20351,0.56303 -6.06614,1.48091 -8.74016,2.73409 l 0.21096,-0.0895 c -0.0237,0.009 -0.0434,0.0266 -0.0559,0.0476 v 0 c -3.98728,5.64561 -6.37349,12.67013 -6.37349,20.2521 0,1.26715 0.0671,2.51754 0.19698,3.74976 l -0.0131,-0.15367 c 0.004,0.0405 0.0251,0.074 0.0545,0.0979 v 0 c 2.98976,2.23672 6.46569,4.03896 10.21686,5.22229 l 0.24589,0.0671 c 0.0118,0.004 0.0251,0.005 0.0392,0.005 0.0447,0 0.0838,-0.021 0.10755,-0.053 v 0 c 0.74744,-1.0059 1.45855,-2.14593 2.07466,-3.34182 l 0.0656,-0.13971 c 0.008,-0.0168 0.014,-0.0377 0.014,-0.0601 0,-0.0572 -0.0363,-0.1048 -0.0866,-0.12432 h -10e-4 c -1.27413,-0.49177 -2.35129,-1.01567 -3.37675,-1.61641 l 0.10755,0.0587 c -0.0405,-0.0237 -0.0671,-0.0671 -0.0671,-0.11594 0,-0.0434 0.021,-0.0824 0.0531,-0.10624 v 0 c 0.21934,-0.16486 0.44009,-0.3353 0.64964,-0.50853 0.0224,-0.0182 0.0517,-0.0293 0.0824,-0.0293 0.0195,0 0.0377,0.004 0.0531,0.0118 h -10e-4 c 3.08476,1.48231 6.70599,2.3485 10.52842,2.3485 3.82241,0 7.44504,-0.86619 10.67789,-2.41276 l -0.14948,0.0643 c 0.0168,-0.008 0.035,-0.0131 0.0559,-0.0131 0.0308,0 0.0601,0.0118 0.0824,0.0293 v 0 c 0.20956,0.17323 0.42891,0.34648 0.65104,0.50994 0.0321,0.0251 0.053,0.0643 0.053,0.10755 0,0.0489 -0.0266,0.0908 -0.0643,0.11462 v 0 c -0.92347,0.55184 -2.00061,1.07436 -3.12247,1.50605 l -0.14669,0.0503 c -0.0503,0.0195 -0.0866,0.0685 -0.0866,0.12432 0,0.0224 0.005,0.0434 0.0153,0.0614 v -0.001 c 0.69994,1.3412 1.40965,2.47982 2.19482,3.55977 l -0.0559,-0.0797 c 0.0237,0.0335 0.0643,0.0559 0.10755,0.0559 0.014,0 0.0279,-0.003 0.0405,-0.005 h -0.001 c 4.00264,-1.2462 7.48557,-3.04844 10.57033,-5.35361 l -0.0908,0.0656 c 0.0308,-0.0224 0.0503,-0.0572 0.0545,-0.0964 v 0 c 0.12157,-1.0953 0.19,-2.36665 0.19,-3.65336 0,-7.5652 -2.39181,-14.57156 -6.45871,-20.30519 l 0.0727,0.10899 c -0.0118,-0.0224 -0.0308,-0.0405 -0.0531,-0.0503 v 0 z"
            id="path1-1" style="stroke-width:1.39708" />
      </symbol>
   </defs>
   <!-- Symbols -->
   <symbol id="icon-calendar-ltr-regular" viewBox="0 0 32 32" data-icontype="regular">
      <path
         d="M10.333 17.333a1.667 1.667 0 0 0 0-3.334 1.667 1.667 0 0 0 0 3.334zm7.334-1.666a1.667 1.667 0 0 1-3.334 0 1.667 1.667 0 0 1 3.334 0zm4 1.666a1.667 1.667 0 0 0 0-3.334 1.667 1.667 0 0 0 0 3.334zM12 21a1.667 1.667 0 0 1-3.334 0A1.667 1.667 0 0 1 12 21zm4 1.667a1.667 1.667 0 0 0 0-3.334 1.667 1.667 0 0 0 0 3.334zM4 8.167A4.167 4.167 0 0 1 8.167 4h15.667a4.167 4.167 0 0 1 4.167 4.167v15.667a4.167 4.167 0 0 1-4.167 4.167H8.167A4.167 4.167 0 0 1 4 23.834V8.167zm4.167-2.5a2.5 2.5 0 0 0-2.5 2.5v1.167h20.667V8.167a2.5 2.5 0 0 0-2.5-2.5H8.167zm-2.5 18.166a2.5 2.5 0 0 0 2.5 2.5h15.667a2.5 2.5 0 0 0 2.5-2.5V11H5.667v12.833z"
         id="path1" />
   </symbol>
   <symbol id="icon-calendar-ltr-filled" viewBox="0 0 32 32" data-icontype="filled">
      <path
         d="M4 8.167A4.167 4.167 0 0 1 8.167 4h15.667a4.167 4.167 0 0 1 4.167 4.167v1.167h-24V8.167zM4 11v12.833A4.167 4.167 0 0 0 8.167 28h15.667a4.167 4.167 0 0 0 4.167-4.167V11h-24zm8 4.667a1.667 1.667 0 0 1-3.334 0 1.667 1.667 0 0 1 3.334 0zm4 1.666a1.667 1.667 0 0 1 0-3.334 1.667 1.667 0 0 1 0 3.334zm7.333-1.666a1.667 1.667 0 0 1-3.334 0 1.667 1.667 0 0 1 3.334 0zm-13 7a1.667 1.667 0 0 1 0-3.334 1.667 1.667 0 0 1 0 3.334zM17.667 21a1.667 1.667 0 0 1-3.334 0 1.667 1.667 0 0 1 3.334 0z"
         id="path2" />
   </symbol>
   <symbol id="icon-video-clip-filled" viewBox="0 0 32 32" data-icontype="filled">
      <path
         d="M2.667 8.333A4.333 4.333 0 0 1 7 4h18a4.333 4.333 0 0 1 4.333 4.333v15.333A4.333 4.333 0 0 1 25 27.999H7a4.333 4.333 0 0 1-4.333-4.333V8.333zm10 4.179v6.975a1 1 0 0 0 1.48.877l6.381-3.488a1.001 1.001 0 0 0 .005-1.752l-.005-.003-6.381-3.487a1 1 0 0 0-1.48.877z"
         id="path3" />
   </symbol>
   <symbol id="icon-video-clip-regular" viewBox="0 0 32 32" data-icontype="regular">
      <path
         d="M12.667 12.513v6.975a1 1 0 0 0 1.48.877l6.381-3.488a1.001 1.001 0 0 0 .005-1.752l-.005-.003-6.381-3.488a1 1 0 0 0-1.48.877v.001zM7 4a4.333 4.333 0 0 0-4.333 4.333v15.333A4.333 4.333 0 0 0 7 27.999h18a4.333 4.333 0 0 0 4.333-4.333V8.333A4.333 4.333 0 0 0 25 4H7zM4.667 8.333A2.334 2.334 0 0 1 7 6h18a2.334 2.334 0 0 1 2.333 2.333v15.333A2.333 2.333 0 0 1 25 25.999H7a2.333 2.333 0 0 1-2.333-2.333V8.333z"
         id="path4" />
   </symbol>
   <symbol id="icon-video-play-pause-regular" viewBox="0 0 32 32" data-icontype="regular">
      <path
         d="M16 10.333A2.334 2.334 0 0 1 18.333 8h2a2.334 2.334 0 0 1 2.333 2.333v11.333a2.333 2.333 0 0 1-2.333 2.333h-2A2.333 2.333 0 0 1 16 21.666v-5.507a2.313 2.313 0 0 1-1.11 1.884l-.01.006-8.667 5.269c-1.556.944-3.547-.175-3.547-1.995V10.671c0-1.829 2.009-2.947 3.564-1.981l8.669 5.383a2.313 2.313 0 0 1 1.1 1.877v-5.617zM18.333 10a.333.333 0 0 0-.333.333v11.333c0 .184.149.333.333.333h2a.333.333 0 0 0 .333-.333V10.333a.333.333 0 0 0-.333-.333h-2zm5.667.333A2.334 2.334 0 0 1 26.333 8h2a2.334 2.334 0 0 1 2.333 2.333v11.333a2.333 2.333 0 0 1-2.333 2.333h-2A2.333 2.333 0 0 1 24 21.666V10.333zM26.333 10a.333.333 0 0 0-.333.333v11.333c0 .184.149.333.333.333h2a.333.333 0 0 0 .333-.333V10.333a.333.333 0 0 0-.333-.333h-2zm-21.666.672v10.653a.333.333 0 0 0 .508.284l-.001.001 8.669-5.269a.333.333 0 0 0 .004-.567l-.001-.001-8.669-5.383a.333.333 0 0 0-.509.283z"
         id="path5" />
   </symbol>
   <symbol id="icon-meetup" viewBox="0 0 32 32" data-icontype="regular">
      <g transform="scale(1.5) translate(-2,-2)">
         <path
            d="m 18.004214,21.579619 c -0.166636,-0.229757 -0.232281,-0.517583 -0.184309,-0.797835 0.04797,-0.277729 0.207033,-0.527684 0.44184,-0.689269 0.232281,-0.159059 0.522633,-0.219657 0.800361,-0.166631 0.277728,0.05303 0.522634,0.217132 0.679171,0.454462 0.156538,0.229758 0.212084,0.512535 0.161589,0.785214 -0.05302,0.272676 -0.209559,0.51506 -0.439315,0.671597 -0.227232,0.156528 -0.507485,0.219655 -0.782688,0.171692 -0.27268,-0.04796 -0.515061,-0.201977 -0.676649,-0.429224 z m -6.06457,1.282601 c -0.09847,-0.141383 -0.136339,-0.318126 -0.103517,-0.487288 0.0303,-0.169161 0.126238,-0.320649 0.270154,-0.419117 0.141388,-0.09848 0.315599,-0.136341 0.487286,-0.106032 0.169163,0.03282 0.32065,0.128769 0.419117,0.272677 0.09847,0.141383 0.136338,0.315601 0.103516,0.487287 -0.0303,0.169162 -0.128765,0.32065 -0.270154,0.419117 -0.141389,0.09848 -0.318125,0.136342 -0.487286,0.103522 -0.169164,-0.03029 -0.32065,-0.128769 -0.419117,-0.270152 z M 19.503946,5.4385744 c 0.143912,0.2095595 0.272678,0.431741 0.37872,0.6640224 0.108565,0.2322816 0.194411,0.4721377 0.262579,0.7170435 0.06564,0.2474304 0.111092,0.4999105 0.133815,0.7523904 0.02525,0.2550051 0.02525,0.5100098 0.0051,0.7650146 0.520109,0.1540127 0.994771,0.4670878 1.33057,0.9417502 0.752387,1.0679905 0.540304,2.5121765 -0.439318,3.3377865 1.222003,1.944095 0.709469,4.519392 -1.19928,5.837338 -0.795313,0.550406 -1.70929,0.777638 -2.605594,0.744816 -0.169161,0.669072 -0.560506,1.282597 -1.174033,1.706763 -1.146259,0.790264 -2.64094,0.643825 -3.635712,-0.244906 -0.02777,0.02272 -0.05302,0.04545 -0.07827,0.06817 q -0.01261,0.01255 -0.02777,0.02525 -0.01261,0.01016 -0.02525,0.02272 -0.01261,0.01016 -0.02777,0.02272 -0.01261,0.01016 -0.02777,0.02021 C 10.588888,22.054285 8.1373063,21.604869 6.9026788,19.819839 Q 6.741092,19.585032 6.6148518,19.330028 6.4886119,19.075023 6.4027683,18.804869 6.3144003,18.532191 6.2664292,18.251938 6.2184577,17.971685 6.2134085,17.686383 C 5.228725,17.524793 4.3096978,16.979436 3.7264687,16.075558 2.7417967,14.550578 3.039723,12.57366 4.3349456,11.387004 3.3805711,9.8519254 3.7794896,7.824511 5.2842706,6.7868178 5.7387347,6.4712179 6.2436947,6.2995313 6.7562295,6.2313619 6.847122,5.9915058 6.9556883,5.759224 7.0819285,5.5370417 7.2081682,5.3123342 7.3495572,5.1002513 7.5086194,4.8982671 7.6651573,4.6988081 7.8393687,4.5094479 8.0262035,4.3327119 8.2130389,4.1585007 8.4124983,3.9969134 8.6220568,3.8529998 10.364169,2.64867 12.585993,2.6941164 14.26246,3.7671567 16.143437,3.0879853 18.314765,3.7191854 19.503946,5.4385744 Z M 2.5473871,10.273567 c 0.2221824,0.151488 0.3736704,0.386294 0.4216415,0.648874 0.047971,0.262579 -0.00757,0.532733 -0.1590622,0.754915 C 2.6584785,11.897014 2.4261966,12.048501 2.1636175,12.096473 1.8985134,12.146963 1.6283598,12.088873 1.4087022,11.93741 1.1865197,11.785922 1.0350318,11.553641 0.9870605,11.291061 0.9390875,11.028482 0.9971635,10.755803 1.1461221,10.536146 1.2976092,10.316488 1.5298917,10.165 1.7949958,10.114504 c 0.2625793,-0.04797 0.5327329,0.01008 0.7523913,0.159063 z M 6.4532534,4.1080046 C 6.5668699,4.2746411 6.6123156,4.4816751 6.5744442,4.6811343 6.5391,4.8805929 6.4254814,5.0573297 6.2563196,5.1734705 6.0896835,5.2896111 5.8851739,5.3325321 5.6831897,5.2971856 5.4837299,5.2593133 5.3069937,5.1456977 5.1933777,4.9790608 5.0772371,4.8124239 5.0317905,4.6053903 5.0696626,4.4059311 5.1050099,4.2064719 5.2186257,4.0297359 5.3877874,3.9135951 5.5544243,3.7999791 5.7589331,3.7545325 5.9583921,3.7898798 6.1603771,3.8277527 6.3371123,3.9413667 6.4532534,4.1080046 Z M 7.9024886,0.06579846 c 0.1413888,-0.03282235 0.2878272,-0.0075743 0.4090173,0.07069442 0.1237155,0.0757439 0.2095595,0.19945926 0.2398563,0.33832326 0.030295,0.14138884 0.00253,0.2878272 -0.078268,0.40901764 C 8.3948268,1.0050241 8.2711095,1.0883426 8.1297218,1.1161153 7.9908578,1.1413634 7.8494689,1.1135906 7.7308032,1.0378466 7.614662,0.95957791 7.5313445,0.83838737 7.5010463,0.70204821 7.4732739,0.5657089 7.4985156,0.42179539 7.5717418,0.30312977 7.6474847,0.18446421 7.7661507,0.09862094 7.9024886,0.06579846 Z m 6.0999174,0.77763848 c 0.227232,-0.12876488 0.494861,-0.16411207 0.747341,-0.0959425 0.25248,0.0656448 0.467088,0.2297568 0.600902,0.45193926 0.13634,0.2247072 0.176737,0.4898113 0.116141,0.7448163 -0.05807,0.2524803 -0.214608,0.474663 -0.434266,0.6135271 -0.227232,0.1363393 -0.49991,0.1767363 -0.75744,0.1136162 C 14.017555,2.6057484 13.795372,2.4441611 13.659033,2.2144038 13.522694,1.9871716 13.482297,1.7170179 13.547942,1.4594881 13.611062,1.2019586 13.775174,0.97977615 14.002406,0.84343694 Z M 5.1706546,19.287104 c -0.1211907,0.02777 -0.2474305,0.0025 -0.3509474,-0.06312 -0.1060417,-0.06817 -0.1792613,-0.174211 -0.204509,-0.295402 -0.027772,-0.121191 -0.00504,-0.24743 0.063121,-0.353472 0.068169,-0.103517 0.1742108,-0.176736 0.2954017,-0.204509 0.1211912,-0.02525 0.2474305,-0.0025 0.353472,0.06564 0.1035174,0.06564 0.1767376,0.171686 0.2019848,0.295401 0.027772,0.121191 0.00504,0.247431 -0.063121,0.350947 -0.068169,0.106043 -0.1742108,0.179261 -0.2954017,0.204512 z M 22.657421,6.5393872 C 22.796285,6.723699 22.854355,6.9585044 22.816483,7.1857359 22.7786,7.4154929 22.649847,7.6200018 22.460487,7.7512912 22.268603,7.882581 22.033796,7.9305516 21.806564,7.8851058 21.579332,7.8371332 21.379872,7.7007939 21.256157,7.5063858 21.137493,7.3195492 21.09457,7.0948431 21.140016,6.8802351 c 0.04292,-0.2171342 0.169163,-0.4090176 0.350947,-0.532733 0.181785,-0.1262383 0.403968,-0.1767356 0.621101,-0.1388641 0.219658,0.035345 0.414067,0.1540126 0.545357,0.3307492 z m 0.679172,5.6833258 c 0.16412,-0.02777 0.328224,0.0076 0.464561,0.09847 0.136342,0.09089 0.232283,0.232281 0.267631,0.393869 0.03535,0.159062 0.005,0.328224 -0.08078,0.467087 -0.08583,0.138865 -0.222182,0.239856 -0.381244,0.280253 -0.164119,0.03282 -0.333275,0 -0.472139,-0.09089 -0.138876,-0.09089 -0.237337,-0.234806 -0.272683,-0.396393 -0.03535,-0.164112 -0.0051,-0.333274 0.08332,-0.474663 0.0909,-0.138864 0.229757,-0.239856 0.391344,-0.277728 z m 1.269973,-2.9312935 c 0.123728,-0.030295 0.252481,-0.00757 0.361048,0.060594 0.106032,0.068169 0.181775,0.1742108 0.209549,0.2979263 0.02525,0.1262402 0.0024,0.2550048 -0.06817,0.3610472 -0.0707,0.106042 -0.179265,0.17926 -0.302974,0.201983 -0.121177,0.02272 -0.247433,0 -0.350949,-0.06817 -0.10099,-0.06817 -0.174222,-0.1742113 -0.199462,-0.295402 -0.02778,-0.1211907 -0.005,-0.2449058 0.0606,-0.3509471 0.06564,-0.1035174 0.169162,-0.1767376 0.29035,-0.2070332 z"
            id="meetup-splash" fill="red" />
         <path
            d="m 17.032166,15.368614 c 0.449415,0.06312 0.896304,0.12624 0.966999,0.578179 0.189359,1.206855 -2.15113,0.75744 -2.686388,0.497386 -0.840758,-0.411543 -1.350768,-1.350769 -1.13111,-2.279895 0.08332,-0.358521 0.537782,-1.287648 0.964474,-2.163754 0.401443,-0.818035 0.777638,-1.588099 0.807935,-1.800182 0.05807,-0.4443649 -0.17926,-0.482237 -0.328223,-0.4898113 -0.18936,-0.010097 -0.340849,0.083318 -0.527684,0.3660963 -0.118665,0.179261 -1.070515,2.065286 -1.706765,3.325161 -0.285302,0.570605 -0.510009,1.012445 -0.56303,1.110912 -0.297927,0.565555 -0.674122,0.69937 -1.052842,0.681697 -0.552931,-0.0303 -0.805411,-0.325699 -0.724618,-0.858432 0.0202,-0.141389 0.290353,-0.800362 0.580705,-1.512356 0.343373,-0.843283 0.717043,-1.759785 0.75239,-1.994592 0.03787,-0.265104 -0.01515,-0.547882 -0.277728,-0.684221 -0.265104,-0.136339 -0.57818,0.07322 -0.671597,0.229757 -0.0606,0.103517 -0.487286,1.184131 -0.934176,2.322816 -0.494861,1.257351 -1.0174943,2.582871 -1.1134369,2.759607 -0.3206496,0.580704 -0.656448,0.765015 -1.1614084,0.790262 -1.1967548,0.05555 -2.0854849,-0.929126 -1.6941405,-2.133456 0.03282,-0.100992 0.098467,-0.323174 0.1893601,-0.623625 0.3938684,-1.320471 1.247251,-4.1810697 1.7219134,-5.0243533 0.391344,-0.6968449 1.4820575,-1.2270524 2.2369733,-0.9013533 0.24743,0.1085669 0.557981,0.2575296 0.790262,0.3686207 0.133815,0.065644 0.244906,0.1161412 0.302976,0.1439136 0.323175,0.1413889 0.666548,-0.1792603 0.853383,-0.3534723 0.02525,-0.025248 0.04797,-0.045448 0.06817,-0.063121 q 0.02777,-0.022723 0.05302,-0.047972 c 0.138864,-0.118666 0.275204,-0.2398563 0.44184,-0.3105505 0.18936,-0.083317 0.489811,-0.1161412 0.719568,-0.083317 0.229757,0.035345 0.368621,0.1211907 0.454465,0.1918842 0.141388,0.1136164 0.239856,0.2045091 0.361046,0.3231743 l 0.07574,0.070695 c 0.222182,0.2120835 0.386294,0.1110897 0.50496,0.040398 l 0.0303,-0.020198 0.0076,-0.00253 c 0.20704,-0.1211902 0.373677,-0.2171332 0.987204,-0.2070324 0.638774,0.012621 1.373491,0.2398561 1.524979,1.3280451 0.08332,0.5882784 -0.381245,1.6259709 -0.866007,2.7040609 -0.510009,1.138685 -1.042742,2.325341 -0.964473,3.067632 0.05555,0.522634 0.532733,0.588279 1.007395,0.653923 z"
            id="meetup-logo" fill="white" />
      </g>
   </symbol>
   <symbol id="icon-www">
      <g>
         <g>
            <path d="M6.501,6.249c0.44,0.335,0.892,0.654,1.361,0.939C7.623,7.764,7.411,8.372,7.221,9h1.927
			c0.11-0.322,0.215-0.649,0.34-0.955C10.381,8.454,11.312,8.766,12.267,9h7.471c0.967-0.235,1.912-0.554,2.812-0.972
			c0.125,0.31,0.229,0.644,0.343,0.972h1.891c-0.189-0.629-0.4-1.235-0.641-1.812c0.471-0.285,0.924-0.604,1.36-0.939
			c0.84,0.818,1.572,1.743,2.179,2.751h2.688c-2.604-5.318-8.057-9-14.368-9C9.689,0,4.238,3.682,1.635,9h2.686
			C4.929,7.992,5.661,7.065,6.501,6.249z M24.109,5.073c-0.246,0.176-0.493,0.349-0.75,0.509c-0.319-0.587-0.666-1.144-1.041-1.646
			C22.95,4.266,23.544,4.651,24.109,5.073z M21.794,6.422c-0.808,0.371-1.64,0.67-2.496,0.88c-0.239-1.728-0.584-3.396-1.075-4.672
			C19.605,3.329,20.829,4.655,21.794,6.422z M15.82,2.379c0.061-0.001,0.12-0.008,0.182-0.008s0.121,0.007,0.182,0.008
			c0.438,0.717,0.965,2.507,1.354,5.229c-0.509,0.06-1.021,0.098-1.535,0.098c-0.517,0-1.028-0.038-1.535-0.098
			C14.855,4.886,15.382,3.096,15.82,2.379z M13.771,2.658c-0.485,1.272-0.827,2.927-1.065,4.645c-0.843-0.206-1.661-0.5-2.453-0.86
			C11.214,4.692,12.421,3.366,13.771,2.658z M9.684,3.936C9.31,4.438,8.965,4.996,8.642,5.582C8.386,5.423,8.139,5.25,7.893,5.074
			C8.459,4.651,9.052,4.266,9.684,3.936z" />
            <path d="M25.503,25.752c-0.438-0.336-0.894-0.654-1.36-0.941c0.237-0.574,0.45-1.182,0.641-1.811h-1.891
			c-0.109,0.328-0.216,0.66-0.341,0.971c-0.901-0.418-1.848-0.734-2.813-0.971h-7.47c-0.955,0.234-1.885,0.547-2.778,0.955
			C9.364,23.648,9.26,23.32,9.149,23H7.223c0.189,0.629,0.401,1.236,0.64,1.812c-0.47,0.285-0.921,0.604-1.361,0.938
			C5.663,24.934,4.931,24.008,4.325,23H1.638c2.603,5.316,8.054,9,14.366,9c6.312,0,11.764-3.684,14.367-9h-2.688
			C27.075,24.008,26.343,24.934,25.503,25.752z M7.893,26.928c0.246-0.176,0.494-0.35,0.749-0.508
			c0.323,0.586,0.668,1.143,1.042,1.645C9.052,27.734,8.459,27.35,7.893,26.928z M10.251,25.559c0.792-0.356,1.61-0.653,2.453-0.858
			c0.238,1.719,0.58,3.368,1.065,4.645C12.421,28.635,11.214,27.307,10.251,25.559z M16.184,29.621
			c-0.061,0.002-0.12,0.008-0.182,0.008s-0.121-0.006-0.182-0.008c-0.438-0.717-0.966-2.508-1.354-5.229
			c0.507-0.06,1.019-0.099,1.535-0.099c0.517,0,1.028,0.039,1.536,0.099C17.146,27.113,16.622,28.904,16.184,29.621z M18.223,29.369
			c0.491-1.275,0.836-2.943,1.075-4.672c0.856,0.211,1.688,0.51,2.496,0.881C20.829,27.346,19.605,28.672,18.223,29.369z
			 M22.318,28.064c0.375-0.504,0.722-1.062,1.041-1.646c0.257,0.16,0.504,0.334,0.75,0.51C23.544,27.35,22.95,27.734,22.318,28.064z
			" />
            <path d="M4.795,19.18l0.637-2.236c0.169-0.596,0.299-1.183,0.416-1.977h0.026c0.13,0.78,0.247,1.354,0.403,1.977l0.598,2.236
			h1.859l1.95-6.355H8.748l-0.546,2.521c-0.143,0.729-0.273,1.443-0.364,2.171H7.812c-0.13-0.729-0.299-1.441-0.468-2.158
			l-0.637-2.534h-1.56l-0.676,2.612c-0.156,0.623-0.338,1.353-0.468,2.08H3.977c-0.104-0.729-0.234-1.431-0.364-2.094l-0.507-2.601
			H1.09l1.846,6.357h1.859V19.18z" />
            <path d="M18.314,15.344c-0.145,0.729-0.272,1.443-0.362,2.172h-0.027c-0.129-0.729-0.299-1.442-0.467-2.159l-0.64-2.534h-1.56
			l-0.676,2.612c-0.156,0.624-0.338,1.353-0.468,2.081h-0.026c-0.104-0.729-0.234-1.432-0.364-2.095l-0.507-2.601h-2.015
			l1.846,6.357h1.859l0.637-2.235c0.169-0.599,0.299-1.184,0.416-1.978h0.026c0.13,0.78,0.248,1.354,0.404,1.978l0.598,2.235h1.859
			l1.947-6.357h-1.938L18.314,15.344z" />
            <path d="M28.43,15.344c-0.144,0.729-0.273,1.443-0.363,2.172h-0.025c-0.129-0.729-0.3-1.442-0.469-2.159l-0.637-2.534h-1.562
			l-0.677,2.612c-0.155,0.624-0.338,1.353-0.469,2.081h-0.024c-0.104-0.729-0.233-1.432-0.363-2.095l-0.508-2.601h-2.017
			l1.849,6.357h1.856l0.64-2.235c0.168-0.599,0.299-1.184,0.416-1.978h0.024c0.129,0.78,0.246,1.354,0.402,1.978l0.598,2.235h1.859
			l1.949-6.357h-1.938L28.43,15.344z" />
         </g>
      </g>
   </symbol>
   <symbol id="icon-video-play-pause-filled" viewBox="0 0 32 32" data-icontype="filled">
      <path
         d="M16 10.333A2.334 2.334 0 0 1 18.333 8h2a2.334 2.334 0 0 1 2.333 2.333v11.333a2.333 2.333 0 0 1-2.333 2.333h-2A2.333 2.333 0 0 1 16 21.666v-5.507a2.313 2.313 0 0 1-1.11 1.884l-.01.006-8.667 5.269c-1.556.944-3.547-.175-3.547-1.995V10.671c0-1.829 2.009-2.947 3.564-1.981l8.669 5.383a2.313 2.313 0 0 1 1.1 1.877v-5.617zm8 0A2.334 2.334 0 0 1 26.333 8h2a2.334 2.334 0 0 1 2.333 2.333v11.333a2.333 2.333 0 0 1-2.333 2.333h-2A2.333 2.333 0 0 1 24 21.666V10.333z"
         id="path8" />
   </symbol>
   <symbol id="frosted-schema" viewBox="0 0 300 300">
      <filter id="noiseFilter" x="0" y="0" width="1" height="1">
         <feTurbulence baseFrequency="1.3" numOctaves="2" result="turb" stitchTiles="stitch" type="fractalNoise"
            id="feTurbulence6" />
         <feColorMatrix in="turb" type="saturate" values="0.10" id="feColorMatrix6" />
      </filter>
      <rect width="100%" height="100%" filter="url(#noiseFilter)" id="rect6" />
   </symbol>
   <symbol id="hamburger-inactive" viewBox="0 0 32 32">
      <path
         d="M26.49 10.84h-20.98c-0.84 0-1.51-0.68-1.51-1.51s0.68-1.51 1.51-1.51h20.97c0.84 0 1.51 0.68 1.51 1.51s-0.68 1.51-1.51 1.51z"
         id="path9" />
      <path
         d="M26.49 17.23h-20.98c-0.84 0-1.51-0.68-1.51-1.51s0.68-1.51 1.51-1.51h20.97c0.84 0 1.51 0.68 1.51 1.51s-0.68 1.51-1.51 1.51z"
         id="path10" />
      <path
         d="M26.49 24.19h-20.98c-0.84 0-1.51-0.68-1.51-1.51s0.68-1.51 1.51-1.51h20.97c0.84 0 1.51 0.68 1.51 1.51s-0.68 1.51-1.51 1.51z"
         id="path11" />
   </symbol>
   <symbol id="hamburger" viewBox="0 0 32 32">
      <path
         d="M4.1 25.1c-0.3-0.78 0.090-1.66 0.88-1.95l9.31-3.55c1.11-0.42 2.32-0.42 3.43 0l9.31 3.55c0.78 0.3 1.17 1.17 0.88 1.95-0.3 0.78-1.17 1.17-1.95 0.88l-9.31-3.55c-0.41-0.16-0.86-0.16-1.27 0l-9.31 3.55c-0.34 0.13-1.51 0.28-1.95-0.88z"
         id="path12" />
      <path
         d="M4.1 18.71c-0.3-0.78 0.090-1.66 0.88-1.95l9.31-3.55c1.11-0.42 2.32-0.42 3.43 0l9.31 3.55c0.78 0.3 1.17 1.17 0.88 1.95-0.3 0.78-1.17 1.17-1.95 0.88l-9.31-3.55c-0.41-0.16-0.86-0.16-1.27 0l-9.31 3.55c-0.34 0.13-1.51 0.28-1.95-0.88z"
         id="path13" />
      <path
         d="M4.1 11.74c-0.3-0.78 0.090-1.66 0.88-1.95l9.31-3.55c1.11-0.42 2.32-0.42 3.43 0l9.31 3.55c0.78 0.3 1.17 1.17 0.88 1.95-0.3 0.78-1.17 1.17-1.95 0.88l-9.31-3.55c-0.41-0.16-0.86-0.16-1.27 0l-9.31 3.55c-0.34 0.13-1.51 0.28-1.95-0.88z"
         id="path14" />
   </symbol>
   <symbol id="icon-ms-teams" viewBox="0 0 34 32">
      <path fill="#5059c9" style="fill: #5059c9"
         d="M23.994 12h8.886c0.839 0 1.52 0.681 1.52 1.52 0 0 0 0 0 0v8.094c0 3.085-2.501 5.586-5.586 5.586v0h-0.026c-3.085 0-5.587-2.5-5.587-5.586 0-0 0-0.001 0-0.001v-8.819c0-0.439 0.356-0.794 0.794-0.794v0z"
         id="path15" />
      <path fill="#5059c9" style="fill: #5059c9"
         d="M33.6 6.8c0 1.988-1.612 3.6-3.6 3.6s-3.6-1.612-3.6-3.6c0-1.988 1.612-3.6 3.6-3.6s3.6 1.612 3.6 3.6z"
         id="path16" />
      <path fill="#7b83eb" style="fill: #7b83eb"
         d="M24 5.2c0 2.872-2.328 5.2-5.2 5.2s-5.2-2.328-5.2-5.2c0-2.872 2.328-5.2 5.2-5.2s5.2 2.328 5.2 5.2z"
         id="path17" />
      <path fill="#7b83eb" style="fill: #7b83eb"
         d="M25.734 12h-14.667c-0.829 0.021-1.486 0.709-1.466 1.538v9.231c-0.116 4.978 3.822 9.109 8.8 9.23 4.978-0.122 8.916-4.253 8.8-9.23v-9.231c0.019-0.829-0.637-1.518-1.466-1.538z"
         id="path18" />
      <path fill="#000" style="fill: #000)" opacity="0.1"
         d="M19.2 12v12.936c-0.004 0.593-0.363 1.126-0.912 1.352-0.175 0.074-0.362 0.112-0.552 0.112h-7.432c-0.104-0.264-0.2-0.528-0.28-0.8-0.28-0.918-0.423-1.872-0.424-2.832v-9.232c-0.019-0.828 0.636-1.515 1.464-1.536h8.136z"
         id="path19" />
      <path fill="#000" style="fill: #000)" opacity="0.2"
         d="M18.4 12v13.736c-0 0.19-0.038 0.377-0.112 0.552-0.226 0.549-0.759 0.908-1.352 0.912h-6.256c-0.136-0.264-0.264-0.528-0.376-0.8s-0.2-0.528-0.28-0.8c-0.28-0.918-0.423-1.872-0.424-2.832v-9.232c-0.019-0.828 0.636-1.515 1.464-1.536h7.336z"
         id="path20" />
      <path fill="#000" style="fill: #000)" opacity="0.2"
         d="M18.4 12v12.136c-0.006 0.806-0.658 1.458-1.464 1.464h-6.912c-0.28-0.918-0.423-1.872-0.424-2.832v-9.232c-0.019-0.828 0.636-1.515 1.464-1.536h7.336z"
         id="path21" />
      <path fill="#000" style="fill: #000)" opacity="0.2"
         d="M17.6 12v12.136c-0.006 0.806-0.658 1.458-1.464 1.464h-6.112c-0.28-0.918-0.423-1.872-0.424-2.832v-9.232c-0.019-0.828 0.636-1.515 1.464-1.536h6.536z"
         id="path22" />
      <path fill="#000" style="fill: #000)" opacity="0.1"
         d="M19.2 7.864v2.52c-0.136 0.008-0.264 0.016-0.4 0.016s-0.264-0.008-0.4-0.016c-0.27-0.018-0.538-0.061-0.8-0.128-1.62-0.384-2.958-1.52-3.6-3.056-0.11-0.258-0.196-0.526-0.256-0.8h3.992c0.807 0.003 1.461 0.657 1.464 1.464z"
         id="path23" />
      <path fill="#000" style="fill: #000)" opacity="0.2"
         d="M18.4 8.664v1.72c-0.27-0.018-0.538-0.061-0.8-0.128-1.62-0.384-2.958-1.52-3.6-3.056h2.936c0.807 0.003 1.461 0.657 1.464 1.464z"
         id="path24" />
      <path fill="#000" style="fill: #000)" opacity="0.2"
         d="M17.6 8.664v1.592c-1.62-0.384-2.958-1.52-3.6-3.056h2.136c0.807 0.003 1.461 0.657 1.464 1.464z"
         id="path25" />
      <path fill="#000" style="fill: #000)"
         d="M1.466 7.2h14.667c0.81 0 1.466 0.657 1.466 1.466v14.667c0 0.81-0.657 1.466-1.466 1.466h-14.667c-0.81 0-1.466-0.657-1.466-1.466v-14.667c0-0.81 0.657-1.466 1.466-1.466z"
         id="path26" />
      <path fill="#fff" style="fill: var(--color4, #fff)"
         d="M12.659 12.782h-2.932v7.984h-1.868v-7.984h-2.918v-1.549h7.718v1.549z" id="path27" />
   </symbol>
   <symbol id="ms-teams-2" viewBox="0 0 48 48">
      <path
         d="M31.993 19H43.1a1.9 1.9 0 0 1 1.9 1.9v10.117A6.983 6.983 0 0 1 38.017 38h-.033A6.983 6.983 0 0 1 31 31.017V19.993a.993.993 0 0 1 .993-.993z"
         fill="#5059c9" id="path28" />
      <circle cx="39.5" cy="12.5" r="4.5" fill="#5059c9" id="circle26" />
      <circle cx="25.5" cy="10.5" r="6.5" fill="#7b83eb" id="circle27" />
      <path
         d="M34.167 19H15.833A1.88 1.88 0 0 0 14 20.923v11.539A11.279 11.279 0 0 0 25 44a11.279 11.279 0 0 0 11-11.538V20.923A1.88 1.88 0 0 0 34.167 19z"
         fill="#7b83eb" id="path29" />
      <path
         d="M26 19v16.17a1.841 1.841 0 0 1-1.14 1.69 1.772 1.772 0 0 1-.69.14h-9.29c-.13-.33-.25-.66-.35-1a12.179 12.179 0 0 1-.53-3.54V20.92A1.877 1.877 0 0 1 15.83 19z"
         opacity=".1" id="path30" />
      <path
         d="M25 19v17.17a1.772 1.772 0 0 1-.14.69A1.841 1.841 0 0 1 23.17 38h-7.82c-.17-.33-.33-.66-.47-1s-.25-.66-.35-1a12.179 12.179 0 0 1-.53-3.54V20.92A1.877 1.877 0 0 1 15.83 19z"
         opacity=".2" id="path31" />
      <path
         d="M25 19v15.17A1.844 1.844 0 0 1 23.17 36h-8.64a12.179 12.179 0 0 1-.53-3.54V20.92A1.877 1.877 0 0 1 15.83 19z"
         opacity=".2" id="path32" />
      <path
         d="M24 19v15.17A1.844 1.844 0 0 1 22.17 36h-7.64a12.179 12.179 0 0 1-.53-3.54V20.92A1.877 1.877 0 0 1 15.83 19z"
         opacity=".2" id="path33" />
      <path
         d="M26 13.83v3.15c-.17.01-.33.02-.5.02s-.33-.01-.5-.02a5.489 5.489 0 0 1-1-.16A6.5 6.5 0 0 1 19.5 13a5.556 5.556 0 0 1-.32-1h4.99A1.837 1.837 0 0 1 26 13.83z"
         opacity=".1" id="path34" />
      <path d="M25 14.83v2.15a5.489 5.489 0 0 1-1-.16A6.5 6.5 0 0 1 19.5 13h3.67A1.837 1.837 0 0 1 25 14.83z"
         opacity=".2" id="path35" />
      <path d="M25 14.83v2.15a5.489 5.489 0 0 1-1-.16A6.5 6.5 0 0 1 19.5 13h3.67A1.837 1.837 0 0 1 25 14.83z"
         opacity=".2" id="path36" />
      <path d="M24 14.83v1.99A6.5 6.5 0 0 1 19.5 13h2.67A1.837 1.837 0 0 1 24 14.83z" opacity=".2" id="path37" />
      <rect x="2" y="13" width="22" height="22" rx="1.833" fill="url(#gradient)" style="fill:#5a62c3" id="rect35" />
      <path d="M17.824 19.978h-3.665v9.98h-2.335v-9.98H8.176v-1.936h9.648z" fill="#fff" id="path38" />
   </symbol>
   <symbol id="icon-github" viewBox="0 0 96 96">
      <path fill-rule="evenodd" clip-rule="evenodd"
         d="M48.854 0C21.839 0 0 22 0 49.217c0 21.756 13.993 40.172 33.405 46.69 2.427.49 3.316-1.059 3.316-2.362 0-1.141-.08-5.052-.08-9.127-13.59 2.934-16.42-5.867-16.42-5.867-2.184-5.704-5.42-7.17-5.42-7.17-4.448-3.015.324-3.015.324-3.015 4.934.326 7.523 5.052 7.523 5.052 4.367 7.496 11.404 5.378 14.235 4.074.404-3.178 1.699-5.378 3.074-6.6-10.839-1.141-22.243-5.378-22.243-24.283 0-5.378 1.94-9.778 5.014-13.2-.485-1.222-2.184-6.275.486-13.038 0 0 4.125-1.304 13.426 5.052a46.97 46.97 0 0 1 12.214-1.63c4.125 0 8.33.571 12.213 1.63 9.302-6.356 13.427-5.052 13.427-5.052 2.67 6.763.97 11.816.485 13.038 3.155 3.422 5.015 7.822 5.015 13.2 0 18.905-11.404 23.06-22.324 24.283 1.78 1.548 3.316 4.481 3.316 9.126 0 6.6-.08 11.897-.08 13.526 0 1.304.89 2.853 3.316 2.364 19.412-6.52 33.405-24.935 33.405-46.691C97.707 22 75.788 0 48.854 0z"
         fill="#24292f" id="path39" />
   </symbol>
   <symbol id="icon-linkedin" viewBox="0 0 32 32">
      <path fill="#2967b2" style="fill: var(--color1, #2967b2)"
         d="M31.99 15.999c0 4.52 0 9.038 0 13.559 0 1.442-0.998 2.44-2.437 2.44-9.043 0-18.087 0-27.13 0-1.419 0.002-2.422-1.003-2.422-2.425 0-9.048 0-18.099 0-27.148 0-1.417 1.005-2.425 2.425-2.425 9.053 0 18.107 0 27.16 0 1.4 0 2.405 1.010 2.405 2.41 0 4.53 0 9.058 0 13.589z"
         id="path40" />
      <path fill="#2967b2" style="fill: var(--color1, #2967b2)"
         d="M17.084 14.090c-0.025-0.010-0.052-0.022-0.077-0.032 0-0.584-0.010-1.17 0.005-1.754 0.005-0.227-0.050-0.307-0.294-0.304-1.315 0.012-2.629 0.010-3.944 0-0.227 0-0.304 0.050-0.304 0.294 0.007 4.887 0.007 9.774 0 14.664 0 0.22 0.052 0.287 0.279 0.284 1.385-0.010 2.769-0.012 4.154 0 0.244 0 0.317-0.057 0.314-0.309-0.010-2.46-0.005-4.917-0.007-7.377 0-0.409 0.022-0.813 0.070-1.22 0.19-1.564 0.99-2.402 2.44-2.547s2.34 0.506 2.654 1.928c0.115 0.529 0.152 1.063 0.152 1.602 0.005 2.54 0.007 5.077-0.003 7.616 0 0.249 0.065 0.312 0.312 0.309 1.375-0.012 2.749-0.012 4.124 0 0.237 0 0.297-0.062 0.297-0.297-0.005-2.677 0.005-5.356 0-8.033 0-1.105-0.052-2.208-0.299-3.291-0.334-1.464-0.993-2.704-2.41-3.403-0.96-0.474-1.991-0.584-3.046-0.594-1.382-0.012-2.57 0.454-3.572 1.397-0.334 0.312-0.606 0.676-0.846 1.068z"
         id="path41" />
      <path fill="#2967b2" style="fill: var(--color1, #2967b2)"
         d="M9.477 19.611c0-2.437 0-4.877 0.005-7.315 0-0.207-0.032-0.297-0.272-0.294-1.405 0.012-2.809 0.010-4.211 0-0.22 0-0.259 0.075-0.259 0.274 0.005 4.897 0.005 9.794 0 14.692 0 0.232 0.070 0.279 0.287 0.277 1.385-0.010 2.769-0.012 4.151 0 0.254 0 0.309-0.075 0.309-0.317-0.010-2.437-0.005-4.877-0.005-7.315z"
         id="path42" />
      <path fill="#2967b2" style="fill: var(--color1, #2967b2)"
         d="M4.373 7.162c0 1.494 1.237 2.739 2.729 2.744 1.514 0.005 2.757-1.23 2.759-2.742 0-1.499-1.232-2.739-2.727-2.744-1.517-0.005-2.759 1.23-2.762 2.742z"
         id="path43" />
      <path fill="#fdfefe" style="fill: var(--color2, #fdfefe)"
         d="M17.084 14.090c0.239-0.392 0.511-0.756 0.846-1.068 1.003-0.943 2.19-1.41 3.572-1.397 1.055 0.010 2.086 0.12 3.046 0.594 1.417 0.699 2.076 1.938 2.41 3.403 0.247 1.083 0.299 2.185 0.299 3.291 0.003 2.677-0.007 5.356 0 8.033 0 0.235-0.062 0.299-0.297 0.297-1.375-0.010-2.749-0.012-4.124 0-0.247 0-0.314-0.060-0.312-0.309 0.010-2.54 0.010-5.077 0.003-7.616 0-0.536-0.037-1.073-0.152-1.602-0.312-1.422-1.202-2.071-2.654-1.928-1.449 0.145-2.25 0.983-2.44 2.547-0.050 0.407-0.070 0.811-0.070 1.22 0 2.46-0.003 4.917 0.007 7.377 0 0.252-0.072 0.312-0.314 0.309-1.385-0.012-2.769-0.010-4.154 0-0.227 0-0.279-0.065-0.279-0.284 0.005-4.887 0.007-9.774 0-14.664 0-0.244 0.077-0.294 0.304-0.294 1.315 0.010 2.629 0.012 3.944 0 0.244 0 0.299 0.077 0.294 0.304-0.015 0.584-0.005 1.168-0.005 1.754 0.025 0.010 0.052 0.022 0.077 0.032z"
         id="path44" />
      <path fill="#fdfdfe" style="fill: var(--color3, #fdfdfe)"
         d="M9.477 19.611c0 2.437-0.002 4.877 0.005 7.315 0 0.242-0.052 0.319-0.309 0.317-1.385-0.012-2.769-0.010-4.151 0-0.217 0-0.287-0.045-0.287-0.277 0.007-4.897 0.007-9.794 0-14.691 0-0.2 0.040-0.274 0.259-0.274 1.405 0.010 2.809 0.010 4.211 0 0.239 0 0.274 0.087 0.272 0.294-0.005 2.437-0.005 4.877-0.005 7.315z"
         id="path45" />
      <path fill="#fdfdfe" style="fill: var(--color3, #fdfdfe)"
         d="M4.373 7.162c0-1.512 1.247-2.744 2.762-2.742 1.494 0.005 2.727 1.245 2.727 2.744 0 1.512-1.245 2.747-2.759 2.742-1.492-0.005-2.732-1.252-2.729-2.744z"
         id="path46" />
   </symbol>
   <symbol id="icon-twitter" viewBox="0 0 32 32">
      <path
         d="M12.003 6.125h-6.815l8.079 10.673-7.562 8.952h3.494l5.72-6.771 5.079 6.708h6.815l-8.3-10.963 7.159-8.475h-3.494l-5.316 6.294-4.859-6.418zM8.948 7.994h2.121l11.981 15.825h-2.121l-11.981-15.825z"
         id="path47" />
   </symbol>
   <symbol id="icon-bluesky" viewBox="0 0 32 32">
      <path
         d="m 7.0363583,3.9433054 c 3.6282707,2.723878 7.5308917,8.2467666 8.9637367,11.2106706 1.432954,-2.963685 5.335353,-8.4868466 8.963735,-11.2106706 2.617967,-1.965441 6.859753,-3.48618694 6.859753,1.352909 0,0.966434 -0.554094,8.1185426 -0.879074,9.2796586 -1.129636,4.036845 -5.245978,5.066462 -8.907534,4.443289 6.400329,1.089314 8.028509,4.697505 4.512258,8.305699 -6.67806,6.852662 -9.598312,-1.71936 -10.346926,-3.915826 -0.137172,-0.40266 -0.201362,-0.591032 -0.202306,-0.430857 -0.0011,-0.160183 -0.06513,0.0282 -0.202306,0.430857 C 15.049408,25.605501 12.129209,34.177741 5.4507683,27.324861 1.9344603,23.716667 3.5625893,20.108254 9.9630265,19.019162 6.3013633,19.642335 2.1849633,18.612715 1.0554933,14.575873 0.73050129,13.414647 0.17641729,6.2625394 0.17641729,5.2962144 c 0,-4.83909594 4.24189501,-3.31835 6.85975601,-1.352909 z"
         fill="#1185fe" id="pathbsky" />
   </symbol>
   <view id="frosted-glass-view" viewBox="0 0 300 300" />
   <!-- This ID used here is what you'll use
    in your CSS! -->
   <use xlink:href="#frosted-schema" width="100%" height="100%" x="0" y="0" id="frosted-glass" style="display:none" />
</svg>