<?xml version="1.0" encoding="UTF-8"?>
<svg id="Layer_1" data-name="Layer 1" xmlns="http://www.w3.org/2000/svg" viewBox="0 0 233.53 233.53">
  <defs>
    <style>
      .cls-1 {
        fill: #2673ba;
      }

      .cls-1, .cls-2 {
        stroke-width: 0px;
      }

      .cls-2 {
        fill: #fff;
      }
    </style>
  </defs>
  <path class="cls-2" d="M184.22,79.76h-26.47v73.97h16.89v-25.5h8.06c9.06,0,16.31-2.29,21.74-6.88,5.34-4.43,8.34-11.07,8.13-18,0-15.73-9.45-23.59-28.35-23.59ZM181.29,115.67h-6.65v-23.11h6.65c8.99,0,13.49,3.8,13.49,11.41,0,7.8-4.49,11.7-13.49,11.7Z"/>
  <path class="cls-2" d="M53.6,79.76h-26.47v73.97h16.87v-25.5h8.13c9.07,0,16.31-2.29,21.74-6.88,5.34-4.43,8.34-11.07,8.13-18,0-15.73-9.47-23.59-28.4-23.59ZM50.65,115.67h-6.65v-23.11h6.67c8.99,0,13.49,3.8,13.49,11.41,0,7.8-4.5,11.7-13.51,11.7Z"/>
  <path class="cls-2" d="M125.26,99.67c-7.08-.26-13.71,3.45-17.21,9.61h-.21v-8.36h-16.53v52.85h16.53v-30.1c-.12-3.01.87-5.97,2.78-8.3,1.73-2.11,4.33-3.31,7.06-3.25,5.93,0,8.89,4.1,8.89,12.28v29.37h16.48v-32.32c0-14.52-5.93-21.78-17.79-21.78Z"/>
  <path class="cls-1" d="M50.67,92.56h-6.67v23.11h6.65c9.01,0,13.52-3.9,13.51-11.7,0-7.61-4.5-11.41-13.49-11.41Z"/>
  <path class="cls-1" d="M181.29,92.56h-6.65v23.11h6.65c9,0,13.5-3.9,13.49-11.7,0-7.61-4.5-11.41-13.49-11.41Z"/>
  <path class="cls-1" d="M.25,0v233.53h233.28V74.45h.25V0H.25ZM204.44,121.35c-5.43,4.59-12.68,6.89-21.74,6.88h-8.06v25.5h-16.89v-73.97h26.47c18.9,0,28.35,7.86,28.35,23.59.21,6.93-2.79,13.57-8.13,18ZM117.68,112.12c-2.73-.06-5.33,1.14-7.06,3.25-1.91,2.33-2.9,5.29-2.78,8.3v30.1h-16.53v-52.85h16.53v8.36h.21c3.5-6.16,10.13-9.87,17.21-9.61,11.86,0,17.79,7.26,17.79,21.78v32.32h-16.48v-29.37c0-8.18-2.96-12.27-8.89-12.28ZM73.87,121.35c-5.43,4.59-12.67,6.89-21.74,6.88h-8.13v25.5h-16.87v-73.97h26.47c18.93,0,28.4,7.86,28.4,23.59.21,6.93-2.79,13.57-8.13,18Z"/>
</svg>