<?xml version="1.0" encoding="utf-8"?>
<!-- Generator: Adobe Illustrator 27.7.0, SVG Export Plug-In . SVG Version: 6.00 Build 0)  -->
<svg version="1.1" id="Layer_1" xmlns="http://www.w3.org/2000/svg" xmlns:xlink="http://www.w3.org/1999/xlink" x="0px" y="0px"
	 viewBox="0 0 2048 2048" style="enable-background:new 0 0 2048 2048;" xml:space="preserve">
<style type="text/css">
	.st0{fill:#333333;}
</style>
<path class="st0" d="M1930,1610c0-20.7-2-41-6-61l124-51l-49-119l-124,52c-23.3-34-52-62.7-86-86l52-124l-119-49l-51,124
	c-20-4-40.3-6-61-6s-41,2-61,6l-51-124l-119,49l52,124c-34,23.3-62.7,52-86,86l-124-52l-49,119l124,51c-4,20-6,40.3-6,61s2,41,6,61
	l-124,51l49,119l124-52c23.3,34,52,62.7,86,86l-52,124l119,49l51-124c20,4,40.3,6,61,6s41-2,61-6l51,124l119-49l-52-124
	c34-23.3,62.7-52,86-86l124,52l49-119l-124-51C1928,1651,1930,1630.7,1930,1610z M1787,1685c-10,23.3-23.7,43.7-41,61
	s-37.7,31-61,41s-48.3,15-75,15s-51.7-5-75-15s-43.7-23.7-61-41s-31-37.7-41-61s-15-48.3-15-75s5-51.7,15-75s23.7-43.7,41-61
	s37.7-31,61-41s48.3-15,75-15s51.7,5,75,15s43.7,23.7,61,41s31,37.7,41,61s15,48.3,15,75S1797,1661.7,1787,1685z"/>
<rect x="640" y="1359.8" class="st0" width="384" height="128"/>
<path class="st0" d="M1664,640v356.2h128V549L1243,0H128v2048h1024v-128H256V128h896v512H1664z M1280,219l293,293h-293V219z"/>
<rect x="384" y="1359.8" class="st0" width="128" height="128"/>
<path class="st0" d="M1039.4,226.9v461.3h-671V226.9H1039.4z M997.5,268.9H410.4v377.4h587.1V268.9z M498.5,561.8h-37.4l77-205.8
	h38.3l76.7,205.8h-37.7l-18.3-52.4h-80.9L498.5,561.8z M556.2,386.5c-0.4,2.2-0.8,4.4-1,6.6c-0.2,2.2-0.8,4.4-1.6,6.6L525,481.5
	h63.2l-28.8-81.9c-0.7-2-1.1-4-1.3-6.2c-0.2-2.2-0.7-4.5-1.3-6.9H556.2z M706.9,561.8h-33.4V344.2h33.4v96.3h0.3
	c5.7-9.4,12.6-16.6,20.6-21.6c8.1-5,17.8-7.5,29.2-7.5c10.5,0,19.4,2,26.9,5.9c7.4,3.9,13.7,9.4,18.7,16.4c5,7,8.5,14.7,10.5,23.3
	s3.1,17.6,3.3,27.2c0,10.5-1.2,20.5-3.6,30.1c-2.4,9.6-6.3,18.2-11.8,25.9c-5.5,7.6-12.2,13.7-20.3,18c-8.1,4.4-18.1,6.7-30.1,6.9
	c-18.8,0-33.2-8.2-43.2-24.6h-0.3V561.8z M706.5,500.2c0,5.2,0.9,10.2,2.6,14.7c1.7,4.6,4.2,8.7,7.2,12.5c3.1,3.7,6.8,6.4,11.1,8.2
	c4.4,1.7,9.4,2.8,15.1,3.3c7.6,0,14-1.6,19-4.9c5-3.3,9.1-7.5,12.1-12.8c3.1-5.2,5.2-11.1,6.6-17.7s2-13,2-19.3
	c0-5.7-0.7-11.2-2-16.7s-3.4-10.5-6.2-15.1c-2.8-4.6-6.6-8.1-11.1-10.5s-10.3-3.7-17-3.9c-6.3,0-11.9,1.2-16.7,3.6
	c-4.8,2.4-9,5.6-12.5,9.5c-3.5,3.9-6,8.6-7.5,14.1c-1.5,5.5-2.4,11.1-2.6,17V500.2z M913.6,565.1c-10.9,0-20.9-1.7-29.8-5.2
	c-9-3.5-16.6-8.5-22.9-15.1c-6.3-6.6-11.2-14.3-14.7-23.3c-3.5-9-5.2-18.9-5.2-29.8c0-12,1.9-22.9,5.6-32.8
	c3.7-9.8,9-18.2,15.7-25.2c6.8-7,15.1-12.5,24.9-16.4s20.9-5.9,33.1-5.9c6.1,0,12.1,0.5,18,1.6s11.7,2.8,17.4,5.2v31.1
	c-4.8-3.5-9.9-6.2-15.4-8.2c-5.5-2-11.2-3.1-17.4-3.3c-7.6,0-14.4,1.3-20.3,3.9s-10.8,6.3-14.7,11.1s-7.1,10.3-9.5,16.4
	c-2.4,6.1-3.5,12.9-3.3,20.3c0,14.4,4,26.2,12.1,35.4c8.1,9.2,19.5,13.8,34.4,13.8c6.3,0,12.3-1.1,18-3.3c5.7-2.2,11-5.4,16.1-9.5
	v28.8c-6.3,3.7-13.1,6.3-20.3,7.9S920.8,565.1,913.6,565.1z"/>
<path class="st0" d="M703.9,1128.8H578.1v-24.6c0-8.3,1.5-16.3,4.6-23.9c2.4-6.1,6-12,10.8-17.7c4.8-5.7,10.3-11.5,16.4-17.4
	c6.1-5.9,12.1-11.4,18-16.4c5.9-5,11.5-10.4,16.7-16.1s9.4-10.8,12.5-15.4c3.1-4.6,4.7-9.7,4.9-15.4c0-5.7-2.1-10.6-6.2-14.7
	c-4.2-4.2-9.1-6.2-14.7-6.2c-5,0-9.4,1.5-13.1,4.6c-3.7,3.1-6.2,7.1-7.5,12.1l-41-8.5c1.3-7.2,3.8-13.9,7.5-20
	c3.7-6.1,8.5-11.4,14.4-15.7s12.1-7.9,18.7-10.5s13.5-3.9,21-3.9c8.7,0,16.9,1.6,24.6,4.9c7.6,3.3,14.3,7.8,20,13.4
	c5.7,5.7,10.2,12.3,13.4,20s4.9,15.8,4.9,24.6c0,8.5-1.2,16.2-3.6,22.9c-2.4,6.8-5.8,13.1-10.2,19c-4.4,5.9-9.2,11.5-14.4,16.7
	s-10.8,10.3-16.7,15.1s-11.5,9.8-16.7,15.1s-10.4,10.6-15.4,16.1h77V1128.8z M1039.4,793.3v461.3h-671V793.3H1039.4z M997.5,835.3
	H410.4v377.4h587.1V835.3z M498.5,967.3c-6.3,3.7-13.8,7.1-22.3,10.2s-16.5,4.6-23.9,4.6v-41.9c2.4,0,5.8-0.7,10.2-2
	s8.7-2.9,13.1-4.9s8.3-4.3,11.8-6.9s5.9-5,7.2-7.2h41.6v209.7h-37.7V967.3z M800.9,1128.8c-9.2,0-18-1.5-26.5-4.6
	s-16.7-7.1-24.6-12.1v-41.6c4.4,3.3,8.2,6.1,11.5,8.5s6.8,4.4,10.5,5.9c3.7,1.5,7.4,2.6,11.1,3.3c3.7,0.7,8.6,1,14.7,1
	c4.8,0,9.4-0.4,13.8-1.3c4.4-0.9,8.2-2.5,11.5-4.9s6-5.5,8.2-9.2c2.2-3.7,3.2-8.3,2.9-13.8c0-6.8-2.6-11.6-7.9-14.4
	s-11.4-4.8-18.3-5.9c-7-1.1-14.1-1.4-21.3-1s-13,0.7-17.4,0.7v-31.8h19c6.8,0,13.1-0.8,19-2.3s10.8-4.4,14.7-8.5s5.9-10.4,5.9-18.7
	c0-9.2-2.7-15.3-8.2-18.3c-5.5-3.1-12.5-4.6-21-4.6c-8.7,0-16.3,2-22.6,5.9c-6.3,3.9-12.7,8.6-19,14.1v-42.6
	c7.4-5,15.7-8.5,24.9-10.5s18.1-2.9,26.9-2.9c7.9,0,15.5,1.1,22.9,3.3c7.4,2.2,14,5.4,19.7,9.5c5.7,4.2,10.4,9.5,14.1,16.1
	c3.7,6.6,5.5,14.1,5.2,22.6c0,10.5-2.1,19.8-6.2,27.8c-4.2,8.1-10.9,14.7-20.3,20c9.6,3.3,17.5,9.1,23.6,17.4
	c6.1,8.3,9.2,17.6,9.2,27.8s-2.2,19.4-6.6,27.5c-4.4,8.1-10,14.9-17,20.3c-7,5.5-15.2,9.7-24.6,12.8
	C819.4,1127.3,810.1,1128.8,800.9,1128.8z"/>
</svg>
