<?xml version="1.0" encoding="UTF-8" standalone="no"?>
<svg
   viewBox="0 0 163.53 71.04"
   version="1.1"
   id="svg17"
   xmlns="http://www.w3.org/2000/svg"
   xmlns:svg="http://www.w3.org/2000/svg"
   xmlns:rdf="http://www.w3.org/1999/02/22-rdf-syntax-ns#"
   xmlns:cc="http://creativecommons.org/ns#"
   xmlns:dc="http://purl.org/dc/elements/1.1/">
  <defs
     id="defs1">
    <style
       id="style1">.cls-1{fill:#1d1d1b;}</style>
  </defs>
  <title
     id="title1">spfx-controls-black</title>
  <g
     id="Layer_2"
     data-name="Layer 2">
    <path
       class="cls-1"
       d="M 161.23,42.94 V 68.76 H 2.28 V 42.94 h 159 m 2.28,-2.28 H 0 V 71 H 163.51 V 40.66 Z"
       id="path9" />
    <path
       class="cls-1"
       d="m 79.33,32 v -5.19 a 10,10 0 0 0 6.38,2.35 7.27,7.27 0 0 0 1.72,-0.16 4.1,4.1 0 0 0 1.23,-0.49 2.23,2.23 0 0 0 0.73,-0.74 1.83,1.83 0 0 0 0.24,-0.92 2,2 0 0 0 -0.38,-1.21 4.39,4.39 0 0 0 -1.06,-1 11.59,11.59 0 0 0 -1.59,-0.87 c -0.62,-0.28 -1.28,-0.56 -2,-0.85 a 10.07,10.07 0 0 1 -4,-2.75 6,6 0 0 1 -1.34,-3.93 6.14,6.14 0 0 1 0.74,-3.09 6,6 0 0 1 2,-2.13 8.73,8.73 0 0 1 2.9,-1.23 14.58,14.58 0 0 1 3.49,-0.4 21.63,21.63 0 0 1 3.2,0.22 12.49,12.49 0 0 1 2.58,0.67 v 4.81 a 7.42,7.42 0 0 0 -1.27,-0.71 10.33,10.33 0 0 0 -1.41,-0.51 12.89,12.89 0 0 0 -1.45,-0.3 11,11 0 0 0 -1.36,-0.09 6.77,6.77 0 0 0 -1.62,0.17 4.32,4.32 0 0 0 -1.23,0.47 2.35,2.35 0 0 0 -0.77,0.73 1.79,1.79 0 0 0 -0.28,1 1.87,1.87 0 0 0 0.31,1 4,4 0 0 0 0.87,0.87 9.52,9.52 0 0 0 1.38,0.8 c 0.53,0.26 1.14,0.53 1.82,0.81 a 21.59,21.59 0 0 1 2.5,1.23 9.22,9.22 0 0 1 1.83,1.44 5.67,5.67 0 0 1 1.21,1.88 6.58,6.58 0 0 1 0.42,2.45 6.52,6.52 0 0 1 -0.73,3.24 6,6 0 0 1 -2,2.12 8.79,8.79 0 0 1 -2.94,1.17 17.36,17.36 0 0 1 -3.52,0.35 A 19.23,19.23 0 0 1 82.3,32.89 11.1,11.1 0 0 1 79.33,32 Z"
       id="path10" />
    <path
       class="cls-1"
       d="m 104.15,24.9 v 7.94 H 98.94 V 9.78 h 8.17 q 8.74,0 8.75,7.35 a 7.06,7.06 0 0 1 -2.51,5.62 10,10 0 0 1 -6.71,2.15 z m 0,-11.13 V 21 h 2 c 2.78,0 4.17,-1.22 4.17,-3.64 0,-2.42 -1.39,-3.55 -4.17,-3.55 z"
       id="path11" />
    <path
       class="cls-1"
       d="m 132.64,14 h -8.17 v 5.66 H 132 v 4.21 h -7.51 v 9 h -5.22 V 9.78 h 13.39 z"
       id="path12" />
    <path
       class="cls-1"
       d="m 151.92,16.37 -5.45,8 5.42,8.49 H 146 l -2.39,-4.44 c -0.19,-0.35 -0.42,-0.85 -0.69,-1.49 h -0.07 a 9.94,9.94 0 0 1 -0.66,1.44 l -2.4,4.49 h -5.87 l 5.59,-8.2 -5.25,-8.27 h 5.91 l 2.37,4.61 a 10.22,10.22 0 0 1 0.66,1.54 h 0.07 A 10.46,10.46 0 0 1 144,21 l 2.41,-4.59 z"
       id="path13" />
    <path
       class="cls-1"
       d="m 53.86,14.07 h -2 V 21 h 2 c 2.67,0 4,-1.17 4,-3.49 0,-2.32 -1.33,-3.44 -4,-3.44 z"
       id="path14" />
    <path
       class="cls-1"
       d="m 15.12,14.07 h -2 V 21 h 2 c 2.67,0 4,-1.17 4,-3.49 0,-2.32 -1.33,-3.44 -4,-3.44 z"
       id="path15" />
    <path
       class="cls-1"
       d="m 0,0 v 42.64 l 70,0.11 V 0.12 Z m 22,22.7 a 9.54,9.54 0 0 1 -6.44,2.06 h -2.41 v 7.64 h -5 V 10.24 H 16 q 8.4,0 8.41,7.06 A 6.75,6.75 0 0 1 22,22.7 Z m 20.54,9.7 h -4.91 v -8.8 q 0,-3.68 -2.64,-3.67 a 2.62,2.62 0 0 0 -2.09,1 3.68,3.68 0 0 0 -0.82,2.47 v 9 H 27.17 V 16.57 h 4.91 v 2.51 h 0.06 a 5.62,5.62 0 0 1 5.1,-2.89 q 5.28,0 5.28,6.52 z m 18.21,-9.7 a 9.57,9.57 0 0 1 -6.45,2.06 h -2.41 v 7.64 h -5 V 10.24 h 7.85 q 8.42,0 8.41,7.06 a 6.77,6.77 0 0 1 -2.42,5.4 z"
       id="path16" />
    <path
       class="cls-1"
       d="M 161.25,2.4 V 40.48 H 70 V 2.4 h 91.21 m 2.32,-2.27 H 67.76 v 42.63 h 95.77 z"
       id="path17" />
    <text
       xml:space="preserve"
       style="font-size:20px;font-family:'Gill Sans MT';-inkscape-font-specification:'Gill Sans MT';text-align:center;writing-mode:lr-tb;direction:ltr;text-anchor:middle;display:inline;fill:#1d1d1b;fill-opacity:1;stroke:#ffffff;stroke-width:0"
       x="81.764999"
       y="62.859634"
       id="text17"><tspan
         id="tspan17"
         x="81.764999"
         y="62.859634"
         style="font-style:normal;font-variant:normal;font-weight:bold;font-stretch:normal;font-size:20px;font-family:'Segoe UI';-inkscape-font-specification:'Segoe UI Bold';fill:#1d1d1b;fill-opacity:1">SAMPLES</tspan></text>
  </g>
  <metadata
     id="metadata17">
    <rdf:RDF>
      <cc:Work
         rdf:about="">
        <dc:title>spfx-controls-black</dc:title>
      </cc:Work>
    </rdf:RDF>
  </metadata>
</svg>
