<?xml version="1.0" standalone="no"?>
<!DOCTYPE svg PUBLIC "-//W3C//DTD SVG 20010904//EN"
 "http://www.w3.org/TR/2001/REC-SVG-20010904/DTD/svg10.dtd">
<svg version="1.0" xmlns="http://www.w3.org/2000/svg"
 width="700.000000pt" height="700.000000pt" viewBox="0 0 700.000000 700.000000"
 preserveAspectRatio="xMidYMid meet">
<metadata>
Created by potrace 1.14, written by Peter Selinger 2001-2017
</metadata>
<g transform="translate(0.000000,700.000000) scale(0.100000,-0.100000)"
fill="#000000" stroke="none">
<path d="M9 6983 c0 -23 0 -6954 0 -6970 1 -10 707 -13 3496 -13 l3495 0 0
3500 0 3500 -3495 0 c-3322 0 -3495 -1 -3496 -17z m1821 -2389 c114 -17 155
-28 240 -61 175 -69 288 -186 345 -357 65 -194 54 -431 -28 -595 -104 -207
-305 -348 -569 -401 -87 -17 -172 -23 -335 -24 l-163 0 0 -383 0 -382 -253 0
-254 0 0 1110 0 1110 461 -2 c340 -1 486 -5 556 -15z m3918 0 c251 -40 413
-126 510 -273 81 -120 106 -214 106 -396 1 -77 -2 -159 -6 -182 -12 -71 -68
-192 -120 -261 -46 -60 -62 -77 -143 -147 -50 -42 -224 -122 -316 -144 -108
-26 -192 -33 -389 -35 l-155 -1 -1 -370 c-1 -204 -2 -376 -3 -382 -1 -10 -58
-13 -251 -12 l-250 0 0 1110 0 1110 468 -2 c332 -1 491 -5 550 -15z m-1913
-588 c167 -14 296 -96 368 -233 78 -150 86 -227 86 -864 l1 -519 -248 0 -248
0 -1 483 c0 333 -4 499 -12 537 -35 162 -122 233 -276 226 -106 -6 -190 -69
-244 -185 l-25 -56 -3 -475 c-1 -261 -2 -487 -2 -502 l-1 -28 -245 0 c-226 0
-245 1 -246 18 -5 97 -2 1547 3 1555 5 8 79 12 248 12 l240 0 1 -25 c1 -14 1
-69 0 -122 0 -57 4 -98 9 -98 6 0 10 4 10 9 0 5 21 34 46 65 69 86 164 149
278 186 37 12 170 28 191 24 6 -2 37 -5 70 -8z"/>
<path d="M1325 4220 c-4 -7 -8 -451 -6 -643 l1 -48 158 5 c240 7 324 39 395
151 66 104 67 279 1 393 -60 102 -167 142 -392 147 -84 1 -155 -1 -157 -5z"/>
<path d="M5242 4216 c-4 -6 -7 -161 -7 -344 0 -325 0 -333 20 -338 11 -3 83
-3 160 0 185 5 257 28 332 102 41 40 55 64 71 115 27 87 23 214 -7 285 -40 92
-141 164 -253 180 -78 11 -309 11 -316 0z"/>
</g>
</svg>
