<?xml version="1.0" encoding="utf-8"?>
<!-- Generator: Adobe Illustrator 27.7.0, SVG Export Plug-In . SVG Version: 6.00 Build 0)  -->
<svg version="1.1" id="Capa_1" xmlns="http://www.w3.org/2000/svg" xmlns:xlink="http://www.w3.org/1999/xlink" x="0px" y="0px"
	 viewBox="0 0 512 512" style="enable-background:new 0 0 512 512;" xml:space="preserve">
<style type="text/css">
	.st0{fill:#333333;}
</style>
<rect x="128" y="80" width="32" height="32"/>
<rect x="192" y="80" width="32" height="32"/>
<path d="M64,240h96v-96H64V240z M96,176h32v32H96V176z"/>
<path d="M352,144v96h96v-96H352z M416,208h-32v-32h32V208z"/>
<path d="M208,240h96v-96h-96V240z M240,176h32v32h-32V176z"/>
<path class="st0" d="M480,383.3c0-5.2-0.5-10.2-1.5-15.2l31-12.8l-12.2-29.8l-31,13c-5.8-8.5-13-15.7-21.5-21.5l13-31L428,273.8
	l-12.8,31c-5-1-10.1-1.5-15.2-1.5s-10.2,0.5-15.2,1.5l-12.8-31l-29.8,12.2l13,31c-8.5,5.8-15.7,13-21.5,21.5l-31-13l-12.2,29.8
	l31,12.8c-1,5-1.5,10.1-1.5,15.2s0.5,10.2,1.5,15.2l-31,12.8l12.2,29.8l31-13c5.8,8.5,13,15.7,21.5,21.5l-13,31l29.8,12.2l12.8-31
	c5,1,10.1,1.5,15.2,1.5s10.2-0.5,15.2-1.5l12.8,31l29.8-12.2l-13-31c8.5-5.8,15.7-13,21.5-21.5l31,13l12.2-29.8l-31-12.8
	C479.5,393.6,480,388.5,480,383.3z M444.2,402.1c-2.5,5.8-5.9,10.9-10.2,15.2s-9.4,7.8-15.2,10.2s-12.1,3.8-18.8,3.8
	s-12.9-1.2-18.8-3.8s-10.9-5.9-15.2-10.2s-7.8-9.4-10.2-15.2S352,390,352,383.3s1.2-12.9,3.8-18.8s5.9-10.9,10.2-15.2
	s9.4-7.8,15.2-10.2s12.1-3.8,18.8-3.8s12.9,1.2,18.8,3.8s10.9,5.9,15.2,10.2s7.8,9.4,10.2,15.2s3.8,12.1,3.8,18.8
	S446.8,396.2,444.2,402.1z"/>
<g>
	<polygon points="256,272 32,272 32,112 96,112 96,80 0,80 0,304 256,304 	"/>
	<polygon points="256,80 256,112 480,112 480,240 512,240 512,80 	"/>
</g>
</svg>
