<?xml version="1.0" encoding="utf-8"?>
<!-- Generator: Adobe Illustrator 23.0.4, SVG Export Plug-In . SVG Version: 6.00 Build 0)  -->
<svg version="1.1" id="Layer_1" xmlns="http://www.w3.org/2000/svg" xmlns:xlink="http://www.w3.org/1999/xlink" x="0px" y="0px"
	 viewBox="0 0 376 212" style="enable-background:new 0 0 376 212;" xml:space="preserve">
<style type="text/css">
	.st0{fill:#F4F4F4;}
	.st1{fill:#FFFFFF;filter:url(#Adobe_OpacityMaskFilter);}
	.st2{mask:url(#mask0_1_);}
	.st3{fill:#FFFFFF;}
	.st4{fill:#49ACAC;}
	.st5{fill:#FFFFFF;filter:url(#Adobe_OpacityMaskFilter_1_);}
	.st6{mask:url(#path-5-inside-1_1_);}
	.st7{fill:#EDEBE9;}
	.st8{fill:none;stroke:#1A9AA0;stroke-width:2;}
	.st9{fill:none;stroke:#1A9AA0;stroke-width:2;stroke-dasharray:28.3987,9.4662;}
	.st10{fill:none;stroke:#1A9AA0;stroke-width:2;stroke-dasharray:24.0241,8.008;}
	.st11{fill:#81D5D7;}
	.st12{fill:#7A442C;}
	.st13{fill:#9B643D;}
	.st14{fill:url(#SVGID_1_);}
	.st15{fill:#E1DFDD;}
	.st16{fill:#28C2D1;}
	.st17{fill:#F3AE5A;}
	.st18{fill:url(#SVGID_2_);}
	.st19{fill:#B8EEEE;}
	.st20{fill:#594539;}
	.st21{fill:url(#SVGID_3_);}
	.st22{fill:#3A312E;}
	.st23{fill:url(#SVGID_4_);}
</style>
<rect class="st0" width="376" height="212"/>
<defs>
	<filter id="Adobe_OpacityMaskFilter" filterUnits="userSpaceOnUse" x="5.3" y="19.3" width="311.6" height="193.2">
		<feColorMatrix  type="matrix" values="1 0 0 0 0  0 1 0 0 0  0 0 1 0 0  0 0 0 1 0"/>
	</filter>
</defs>
<mask maskUnits="userSpaceOnUse" x="5.3" y="19.3" width="311.6" height="193.2" id="mask0_1_">
	<rect class="st1" width="376" height="212"/>
</mask>
<g class="st2">
	<path class="st3" d="M65.8,212.4c-3.6,0-6.6-3-6.6-6.6v-180c0-3.6,3-6.6,6.6-6.6h244.4c3.6,0,6.6,3,6.6,6.6v180
		c0,3.6-3,6.6-6.6,6.6"/>
	<path class="st4" d="M316.8,59.4H59.2V25.8c0-3.6,3-6.6,6.6-6.6h244.4c3.6,0,6.6,3,6.6,6.6V59.4z"/>
	<defs>
		<filter id="Adobe_OpacityMaskFilter_1_" filterUnits="userSpaceOnUse" x="71.2" y="71.1" width="230.8" height="72">
			<feColorMatrix  type="matrix" values="1 0 0 0 0  0 1 0 0 0  0 0 1 0 0  0 0 0 1 0"/>
		</filter>
	</defs>
	<mask maskUnits="userSpaceOnUse" x="71.2" y="71.1" width="230.8" height="72" id="path-5-inside-1_1_">
		<path class="st5" d="M301,72.1H72.2v70H301V72.1z"/>
	</mask>
	<g class="st6">
		<rect x="72.2" y="72.1" class="st7" width="228.8" height="70"/>
		<g>
			<polyline class="st8" points="301,87.1 301,72.1 286,72.1 			"/>
			<line class="st9" x1="276.5" y1="72.1" x2="92" y2="72.1"/>
			<polyline class="st8" points="87.2,72.1 72.2,72.1 72.2,87.1 			"/>
			<line class="st10" x1="72.2" y1="95.1" x2="72.2" y2="123.2"/>
			<polyline class="st8" points="72.2,127.2 72.2,142.2 87.2,142.2 			"/>
			<line class="st9" x1="96.7" y1="142.2" x2="281.3" y2="142.2"/>
			<polyline class="st8" points="286,142.2 301,142.2 301,127.2 			"/>
			<line class="st10" x1="301" y1="119.1" x2="301" y2="91.1"/>
		</g>
	</g>
	<path class="st7" d="M301,152.4h-63.2v47.2H301V152.4z"/>
	<path class="st7" d="M135.5,152.4H72.2v47.2h63.2V152.4z"/>
	<path class="st7" d="M218.2,152.4h-65.1v47.2h65.1V152.4z"/>
	<path class="st11" d="M231.3,44.6h-50v4.8h50V44.6z"/>
	<path class="st11" d="M166.5,44.6h-37.7v4.8h37.7V44.6z"/>
	<path class="st11" d="M114.5,44.6H72.6v4.8h41.9V44.6z"/>
	<path class="st12" d="M159.2,96.8l3.2,2.3c0.4,0.3,0.6,0.6,0.7,1.1l0.2,3.7c0,0.4-0.3,0.6-0.7,0.6l-4.5,0.3l-2.4-3.6l2-4.2
		L159.2,96.8z"/>
	<path class="st13" d="M154.1,95.8c0.4-0.5,0.9-0.7,1.6-0.8l6.3-0.6c0.5,0,0.9,0.3,1.1,0.7l1.6,3.7c0.1,0.3,0.1,0.6-0.1,0.7
		c-1,0.2-2.1-1.5-2.6-2.9c0,0-2.4,0.5-3.5,0.6c-0.4,0.1-0.7,0.3-0.8,0.6l-1.5,3c-0.3,0.5-0.1,0.8,0.4,1.2l0.8,0.6
		c0.4,0.3,0.8,0.4,1.2,0.2c1.6-0.6,5.2-1.8,5.2-0.7s-0.6,2-6.1,4.7c-0.2,0.1-0.3,0.3-0.5,0.4c-0.3,0.3-0.7,1.4-3.3,2.6
		c-2.8,1.3-4.4,1.8-4.4,1.8l-4.3-4L154.1,95.8z"/>
	
		<radialGradient id="SVGID_1_" cx="-413.3926" cy="496.3977" r="1" gradientTransform="matrix(44.0285 0 0 -43.7725 18288.7852 21903.0723)" gradientUnits="userSpaceOnUse">
		<stop  offset="0.1429" style="stop-color:#37C5CF"/>
		<stop  offset="0.644" style="stop-color:#81D5D7"/>
		<stop  offset="1" style="stop-color:#B8EEEE"/>
	</radialGradient>
	<path class="st14" d="M145.4,107.7c0,0-18.8,13.3-36.3,16.8c-18,3.6-41.3-5.3-41.3-5.3s7.3,24,6.1,30.7c9.6-1.5,16.8,1.2,34.1-3.5
		c20.5-5.5,41.6-34.7,41.6-34.7L145.4,107.7z"/>
	<path class="st15" d="M225.8,81.6c-9.6,3-48.6,14.9-62.1,18.5c-1,0.2-1.6,1.2-1.3,2.3c2.9,9.8,17.2,57.6,24.9,66
		c0.5,0.5,1.3,0.7,2,0.5l62.6-21.8c1-0.4,1.6-1.5,1-2.6c-4.4-8.5-22.7-44.7-24.8-61.5C228,82,226.9,81.3,225.8,81.6z"/>
	<path class="st3" d="M219.8,78.7c-9.6,3-48.6,14.9-62.1,18.5c-1,0.2-1.6,1.2-1.3,2.3c2.9,9.8,17.2,57.6,24.9,66
		c0.5,0.5,1.3,0.7,2,0.5l62.6-21.8c1-0.4,1.6-1.5,1-2.6c-4.4-8.5-22.7-44.7-24.8-61.5C222,79,220.9,78.3,219.8,78.7z"/>
	<path class="st16" d="M203.5,125.1l-3.8,1.4l-1.4-3.7l-7.2-19.3c-9.8,5-14.6,16.7-10.6,27.2c4.3,11.4,17,17.2,28.5,13
		c10.6-3.9,16.4-15.1,13.8-25.8L203.5,125.1z"/>
	<path class="st17" d="M189.2,98.9l10.4,27.8l28-10.4C221.2,101.8,204.6,94.2,189.2,98.9z"/>
	<path class="st13" d="M157.4,102.8c0.4,0.3,0.8,0.4,1.2,0.2c1.6-0.6,5.2-1.8,5.2-0.7c0,1.1-0.6,2-6.2,4.7
		C157.5,107,157.4,102.8,157.4,102.8z"/>
	
		<radialGradient id="SVGID_2_" cx="-415.7467" cy="498.0154" r="1" gradientTransform="matrix(58.318 0 0 -57.979 24243.3047 29071.5957)" gradientUnits="userSpaceOnUse">
		<stop  offset="0.1429" style="stop-color:#49ACAC"/>
		<stop  offset="0.644" style="stop-color:#81D5D7"/>
		<stop  offset="1" style="stop-color:#B8EEEE"/>
	</radialGradient>
	<path class="st18" d="M86.9,141.1c0-13.3-14.5-24.2-32.3-24.2c-17.8,0-32.3,10.8-32.3,24.2l-0.9,71.3h66.3L86.9,141.1z"/>
	<path class="st19" d="M12.2,212.3c0,0-1-0.1-2.9-4.1c-4.8-10.4-4.7-21.6-3.1-35.7c2.4-21.2,15.6-42.8,27.4-49.3
		c4.7-2.6,16.2,8.7,8.5,22.5c-3.3,8-13.4,62.4-18.8,66.7C23.5,212.4,12.2,212.3,12.2,212.3z"/>
	<path class="st20" d="M63.4,62.3c3,0,5.5-2.4,5.5-5.5s-2.5-5.5-5.5-5.5c-3,0-5.5,2.4-5.5,5.5S60.3,62.3,63.4,62.3z"/>
	<path class="st20" d="M71.8,66.6c3,0,5.5-2.4,5.5-5.5c0-3-2.5-5.5-5.5-5.5c-3,0-5.5,2.4-5.5,5.5C66.3,64.2,68.8,66.6,71.8,66.6z"/>
	<path class="st20" d="M53.8,62.7c3,0,5.5-2.4,5.5-5.5s-2.5-5.5-5.5-5.5c-3,0-5.5,2.4-5.5,5.5S50.8,62.7,53.8,62.7z"/>
	<path class="st20" d="M45.8,67.1c3,0,5.5-2.4,5.5-5.5c0-3-2.5-5.5-5.5-5.5c-3,0-5.5,2.4-5.5,5.5C40.3,64.6,42.8,67.1,45.8,67.1z"/>
	<path class="st20" d="M75.2,73.5c3,0,5.5-2.4,5.5-5.5s-2.5-5.5-5.5-5.5s-5.5,2.4-5.5,5.5S72.1,73.5,75.2,73.5z"/>
	<path class="st20" d="M42,73.5c3,0,5.5-2.4,5.5-5.5S45,62.6,42,62.6c-3,0-5.5,2.4-5.5,5.5S38.9,73.5,42,73.5z"/>
	<path class="st20" d="M72.9,80c3,0,5.5-2.4,5.5-5.5s-2.5-5.5-5.5-5.5c-3,0-5.5,2.4-5.5,5.5S69.9,80,72.9,80z"/>
	<path class="st20" d="M44.3,80c3,0,5.5-2.4,5.5-5.5s-2.5-5.5-5.5-5.5c-3,0-5.5,2.4-5.5,5.5S41.3,80,44.3,80z"/>
	<path class="st20" d="M47.6,90.7H68c3.7,0,6.8-3.1,6.8-6.7V73.5c0-8.7-7.1-15.7-15.8-15.7h-2.3c-8.7,0-15.8,7-15.8,15.7V84
		C40.9,87.7,43.8,90.7,47.6,90.7z"/>
	
		<radialGradient id="SVGID_3_" cx="-452.2014" cy="523.0675" r="1" gradientTransform="matrix(-14.4856 0 0 14.4014 -6495.7275 -7428.1782)" gradientUnits="userSpaceOnUse">
		<stop  offset="0" style="stop-color:#724937"/>
		<stop  offset="0.4397" style="stop-color:#8F5C3B"/>
		<stop  offset="0.7031" style="stop-color:#9B643D"/>
	</radialGradient>
	<path class="st21" d="M41.2,119.1c0,0,4.9-1.1,4.9-7.8V92h8.5h8.5v19.3c0,6.7,4.9,7.8,4.9,7.8s-5.9,4.3-13.5,4.3
		C46.9,123.4,41.2,119.1,41.2,119.1z"/>
	<path class="st13" d="M60.8,108.8c8,0,14.4-6.4,14.4-14.3V78.1c0-8-6.4-14.3-14.4-14.3c-8,0-14.4,6.4-14.4,14.3v16.5
		C46.3,102.4,52.8,108.8,60.8,108.8z"/>
	<path class="st22" d="M57.3,86.5c0.7,0,1.3-1,1.3-2.3c0-1.3-0.6-2.3-1.3-2.3c-0.7,0-1.3,1-1.3,2.3C56,85.5,56.6,86.5,57.3,86.5z"/>
	
		<radialGradient id="SVGID_4_" cx="-469.8857" cy="539.7168" r="1" gradientTransform="matrix(-8.9433 0.1121 0.1004 8.0142 -4192.5601 -4181.1079)" gradientUnits="userSpaceOnUse">
		<stop  offset="0" style="stop-color:#724937"/>
		<stop  offset="0.3496" style="stop-color:#88573A"/>
		<stop  offset="0.7026" style="stop-color:#96613C"/>
		<stop  offset="1" style="stop-color:#9B643D"/>
	</radialGradient>
	<path class="st23" d="M71.8,102.8l-8.3-0.2l-0.3-6.5c0-0.6,0.3-1.1,0.8-1.5l2.5-1.7c0.6-0.4,0.7-1.1,0.4-1.7l-2.2-3.4
		c-0.6-0.8-0.8-1.8-0.8-2.8l-0.1-13.5l8,0.3V102.8z"/>
	<path class="st22" d="M69.2,86.5c0.7,0,1.3-1,1.3-2.3c0-1.3-0.6-2.3-1.3-2.3c-0.7,0-1.3,1-1.3,2.3C67.9,85.5,68.5,86.5,69.2,86.5z"
		/>
	<path class="st13" d="M39.9,87.9c0,3,2.4,5.4,5.4,5.4c0.2,0,2.8,0,3,0c2.7-0.3,2.4-2.6,2.4-5.4c0-2.8,0.4-5-2.3-5.4
		c-0.2,0-2.9,0-3.1,0C42.3,82.5,39.9,84.9,39.9,87.9z"/>
	<path class="st12" d="M58.2,97.7c0.7,0.4,1.2,0.7,1.7,0.9c0.5,0.3,1,0.4,1.5,0.6c0.5,0.1,1,0.2,1.6,0.3c0.6,0.1,1.2,0.1,2,0.1h0.1
		c0.4,0,0.6,0.3,0.6,0.6c0,0.1,0,0.2-0.1,0.3c-0.5,0.8-1.3,1.3-2.1,1.6c-0.8,0.3-1.9,0.3-2.8,0c-0.9-0.3-1.8-0.7-2.3-1.5
		c-0.6-0.7-1-1.6-1-2.4c0-0.4,0.3-0.6,0.6-0.6C58,97.6,58.1,97.6,58.2,97.7z"/>
	<path class="st20" d="M51,60.8h19.3l6,9.1l-1.2,12.6l-1.6-9.2c-0.7-3-3.2-5-6.2-5H53.9c-3,0-5.6,2.1-6.2,5l-1.6,9.2l-1.2-12.6
		L51,60.8z"/>
	<path class="st20" d="M56.9,74.7c3,0,5.5-2.4,5.5-5.5s-2.5-5.5-5.5-5.5c-3,0-5.5,2.4-5.5,5.5S53.9,74.7,56.9,74.7z"/>
	<path class="st20" d="M49.8,73.9c3,0,5.5-2.4,5.5-5.5S52.8,63,49.8,63c-3,0-5.5,2.4-5.5,5.5S46.8,73.9,49.8,73.9z"/>
	<path class="st20" d="M50.3,79.8c2.5,0,4.5-2,4.5-4.4c0-2.5-2-4.4-4.5-4.4s-4.5,2-4.5,4.4C45.9,77.8,47.9,79.8,50.3,79.8z"/>
</g>
</svg>
